<svg width="740" height="632" viewBox="0 0 740 632" fill="none" xmlns="http://www.w3.org/2000/svg">
<path d="M899.806 174.889L898.021 171.925C882.898 147.033 855.578 132.038 826.768 133.849C823.059 134.086 819.372 134.592 815.737 135.365C789.544 140.971 766.746 160.766 757.299 186.128C751.744 201.042 750.187 218.209 739.64 230.052C725.926 245.448 702.631 245.931 682.141 245.301C661.65 244.67 638.342 245.207 624.695 260.671C616.134 270.354 613.424 284.128 614.108 297.097C615.933 331.445 639.885 362.144 670.332 377.407C700.779 392.669 736.634 394.037 769.953 387.331C816.637 377.943 861.039 352.085 887.715 312.225C914.392 272.366 921.155 217.941 899.806 174.889Z" fill="#F5F5F5"/>
<path d="M39.1566 174.889L40.9547 171.925C56.0642 147.033 83.3981 132.038 112.208 133.849C115.917 134.086 119.603 134.592 123.238 135.365C149.432 140.971 172.217 160.766 181.677 186.128C187.232 201.042 188.775 218.209 199.322 230.052C213.05 245.448 236.345 245.931 256.822 245.301C277.298 244.67 300.62 245.207 314.28 260.671C322.828 270.354 325.552 284.128 324.854 297.097C323.029 331.445 299.09 362.144 268.643 377.407C238.196 392.669 202.342 394.037 169.009 387.331C122.326 377.943 77.9367 352.085 51.2469 312.225C24.5571 272.366 17.8075 217.941 39.1566 174.889Z" fill="#F5F5F5"/>
<path d="M304.417 200.814C326.873 200.814 345.076 182.62 345.076 160.177C345.076 137.733 326.873 119.539 304.417 119.539C281.962 119.539 263.759 137.733 263.759 160.177C263.759 182.62 281.962 200.814 304.417 200.814Z" fill="#F5F5F5"/>
<path d="M694.554 503.907C708.802 489.666 708.802 466.576 694.554 452.335C680.305 438.094 657.204 438.094 642.955 452.335C628.707 466.576 628.707 489.666 642.955 503.907C657.204 518.148 680.305 518.148 694.554 503.907Z" fill="#F5F5F5"/>
<path d="M918.752 565.641C918.752 565.829 713.07 565.99 459.403 565.99C205.736 565.99 0 565.829 0 565.641C0 565.453 205.642 565.292 459.403 565.292C713.164 565.292 918.752 565.453 918.752 565.641Z" fill="#E61D55"/>
<path d="M470.568 0H462.544V22.6256H470.568V0Z" fill="#E61D55"/>
<path d="M433.693 68.1321C433.814 67.2469 446.253 17.7977 446.253 17.7977C459.095 11.8697 472.245 12.1246 485.664 17.7977L496.949 68.1321H433.693Z" fill="#E61D55"/>
<path d="M497.043 68.1318L433.707 68.2123L292.112 596.099L635.806 599.09L497.043 68.1318Z" fill="#4CC5C4"/>
<path opacity="0.7" d="M497.043 68.293L433.707 68.3734L292.112 596.099L635.806 599.251L497.043 68.293Z" fill="white"/>
<path d="M465.322 78.848C482.782 78.848 496.936 74.0503 496.936 68.132C496.936 62.2137 482.782 57.416 465.322 57.416C447.861 57.416 433.707 62.2137 433.707 68.132C433.707 74.0503 447.861 78.848 465.322 78.848Z" fill="white"/>
<path d="M496.949 68.1319C496.876 67.6747 496.759 67.2255 496.6 66.7907C496.018 65.5486 495.085 64.5042 493.916 63.7865C491.031 61.7077 486.066 59.9641 479.8 58.8912C472.433 57.6973 464.945 57.427 457.511 58.0865C453.147 58.4375 448.828 59.2147 444.616 60.4067C442.387 61.0425 440.243 61.9431 438.229 63.0891C437.197 63.6518 436.252 64.361 435.424 65.1947C434.618 65.9887 434.139 67.0559 434.082 68.1856C434.134 69.3164 434.614 70.3854 435.424 71.1764C436.238 71.9925 437.164 72.6881 438.175 73.2418C440.208 74.3885 442.37 75.289 444.616 75.9241C448.849 77.1296 453.191 77.9157 457.578 78.2712C465.017 78.937 472.509 78.6667 479.88 77.4665C486.133 76.3935 491.098 74.65 493.983 72.5846C495.151 71.8591 496.083 70.811 496.667 69.567C496.828 69.1327 496.945 68.6834 497.016 68.2258C497.055 68.7099 496.982 69.1965 496.801 69.6474C496.265 70.9434 495.354 72.05 494.185 72.826C491.286 75.0121 486.294 76.8495 480.001 77.9761C472.59 79.2596 465.045 79.5797 457.552 78.9284C453.119 78.598 448.731 77.8207 444.455 76.6081C442.177 75.9655 439.98 75.0656 437.907 73.9258C436.833 73.3226 435.849 72.5734 434.981 71.6994C434.49 71.264 434.096 70.7292 433.826 70.1304C433.556 69.5316 433.417 68.8825 433.417 68.2258C433.417 67.5691 433.556 66.9199 433.826 66.3211C434.096 65.7223 434.49 65.1876 434.981 64.7521C435.836 63.8378 436.822 63.0558 437.907 62.4319C439.975 61.29 442.167 60.3899 444.441 59.7496C448.719 58.5434 453.106 57.7662 457.538 57.4293C465.031 56.7847 472.576 57.1047 479.988 58.3816C486.281 59.5216 491.273 61.3456 494.171 63.5317C495.34 64.3077 496.251 65.4143 496.788 66.7103C496.95 67.1654 497.005 67.652 496.949 68.1319Z" fill="#E61D55"/>
<path d="M463.979 631.989C559.121 631.989 636.249 616.545 636.249 597.494C636.249 578.442 559.121 562.999 463.979 562.999C368.838 562.999 291.71 578.442 291.71 597.494C291.71 616.545 368.838 631.989 463.979 631.989Z" fill="#4CC5C4"/>
<path opacity="0.4" d="M463.979 631.989C559.121 631.989 636.249 616.545 636.249 597.494C636.249 578.442 559.121 562.999 463.979 562.999C368.838 562.999 291.71 578.442 291.71 597.494C291.71 616.545 368.838 631.989 463.979 631.989Z" fill="white"/>
<path opacity="0.3" d="M480 622.812C480 622.812 485.603 626.071 494.115 621.792C502.628 617.513 515.511 606.755 520.925 607.218C526.338 607.682 525.066 606.953 534.336 611.127C543.606 615.3 554.555 615.631 568.9 613.18C583.245 610.729 592.8 609.643 587.535 603.707C582.271 597.772 564.082 594.672 558.669 592.035C553.256 589.399 505.348 589.386 502.398 591.638C499.447 593.89 480 622.812 480 622.812Z" fill="black"/>
<path d="M486.711 80.725C486.116 80.9674 485.501 81.1559 484.873 81.2883C483.652 81.5834 481.867 81.9321 479.639 82.2539C473.818 83.0747 467.927 83.2905 462.061 82.8977C456.213 82.5191 450.42 81.5302 444.778 79.9471C442.604 79.3436 440.873 78.7803 439.705 78.3243C439.085 78.1281 438.483 77.8767 437.907 77.5732C438.551 77.6841 439.184 77.8501 439.799 78.0695C440.994 78.4316 442.738 78.9278 444.898 79.4777C450.545 80.8861 456.307 81.7838 462.115 82.1601C467.932 82.5217 473.77 82.3601 479.559 81.6772C481.786 81.409 483.585 81.1408 484.806 80.9262C485.433 80.7966 486.071 80.7292 486.711 80.725Z" fill="white"/>
<path d="M433.238 563.012H432.929L432.017 563.079L428.528 563.254C426.998 563.321 425.146 563.428 422.986 563.562C420.826 563.696 418.383 563.83 415.673 564.045C404.83 564.836 389.882 566.258 373.458 568.524C357.033 570.791 342.246 573.46 331.645 575.861C326.344 577.068 322.091 578.181 319.165 578.999L315.811 579.965L314.938 580.206C314.737 580.206 314.63 580.273 314.63 580.206C314.719 580.155 314.813 580.115 314.912 580.085L315.77 579.777L319.098 578.677C321.997 577.778 326.237 576.598 331.537 575.324C342.125 572.803 356.912 570.026 373.364 567.787C389.815 565.547 404.79 564.166 415.646 563.495C418.33 563.321 420.812 563.2 422.973 563.119C425.133 563.039 426.998 562.945 428.514 562.932H432.017H432.929C433.036 562.938 433.141 562.965 433.238 563.012Z" fill="white"/>
<path d="M574.09 223.395L576.773 215.187C573.93 210.955 572.33 206.011 572.157 200.917C571.94 194.69 573.839 188.573 577.543 183.562C581.248 178.551 586.54 174.941 592.56 173.319C598.579 171.698 604.97 172.16 610.692 174.632C616.414 177.104 621.131 181.438 624.075 186.931C627.018 192.423 628.015 198.75 626.902 204.88C625.79 211.011 622.633 216.584 617.948 220.694C613.262 224.803 607.322 227.206 601.096 227.511C594.87 227.817 588.723 226.007 583.657 222.376L574.09 223.395Z" fill="white"/>
<path d="M574.09 223.395L574.734 223.315L576.586 223.087L583.711 222.228L583.644 222.376C583.635 222.368 583.629 222.359 583.624 222.349C583.619 222.338 583.617 222.327 583.617 222.315C583.617 222.304 583.619 222.293 583.624 222.282C583.629 222.272 583.635 222.263 583.644 222.255C583.658 222.245 583.674 222.24 583.691 222.24C583.708 222.24 583.724 222.245 583.738 222.255C587.488 224.925 591.848 226.612 596.419 227.164C597.829 227.338 599.252 227.396 600.672 227.338C602.186 227.263 603.693 227.08 605.181 226.788C609.954 225.822 614.383 223.602 618.012 220.357C621.641 217.112 624.34 212.959 625.83 208.325C627.319 203.691 627.547 198.744 626.488 193.993C625.43 189.243 623.124 184.86 619.807 181.296C616.768 178.025 612.971 175.551 608.75 174.093C604.73 172.698 600.443 172.239 596.217 172.752C592.244 173.253 588.432 174.627 585.053 176.776C579.047 180.61 574.758 186.617 573.083 193.54C573.003 193.929 572.922 194.318 572.828 194.694C572.739 195.069 572.676 195.45 572.641 195.834C572.547 196.585 572.453 197.336 572.372 198.074C572.291 199.499 572.291 200.927 572.372 202.352C572.771 206.908 574.303 211.292 576.827 215.107C575.928 217.789 575.244 219.787 574.761 221.169C574.533 221.866 574.345 222.389 574.224 222.751C574.103 223.113 574.023 223.288 574.023 223.288L574.184 222.778C574.305 222.416 574.466 221.893 574.694 221.209C575.15 219.801 575.807 217.735 576.68 215.066C574.1 211.245 572.526 206.835 572.104 202.245C571.993 200.808 571.971 199.366 572.037 197.926C572.117 197.175 572.198 196.424 572.292 195.66C572.327 195.271 572.39 194.886 572.48 194.506C572.56 194.117 572.654 193.728 572.735 193.339C574.387 186.317 578.721 180.219 584.811 176.347C588.223 174.146 592.083 172.735 596.11 172.216C600.397 171.682 604.75 172.141 608.831 173.557C613.111 175.033 616.961 177.544 620.035 180.866C620.43 181.261 620.798 181.682 621.136 182.127L622.182 183.468L623.095 184.809C623.419 185.259 623.706 185.735 623.954 186.231L624.732 187.693C624.974 188.181 625.189 188.683 625.376 189.195C625.577 189.705 625.806 190.201 625.98 190.711C626.154 191.22 626.289 191.757 626.436 192.266C627.47 195.938 627.732 199.784 627.206 203.562C626.681 207.341 625.379 210.969 623.383 214.22C621.387 217.471 618.739 220.275 615.607 222.454C612.474 224.633 608.925 226.14 605.181 226.882C603.676 227.18 602.151 227.364 600.619 227.432C599.189 227.481 597.757 227.414 596.338 227.231C591.734 226.657 587.35 224.932 583.59 222.215L583.711 222.094C583.72 222.102 583.726 222.111 583.731 222.121C583.736 222.132 583.738 222.143 583.738 222.154C583.738 222.166 583.736 222.177 583.731 222.188C583.726 222.198 583.72 222.207 583.711 222.215L576.519 222.966L574.694 223.154L574.09 223.395Z" fill="#E61D55"/>
<path d="M587.039 200.635L590.89 196.384L599.062 202.942L611.206 189.007L615.178 192.87L598.874 210.788L587.039 200.635Z" fill="#7F7F7F"/>
</svg>
