<svg width="286" height="448" viewBox="0 0 286 448" fill="none" xmlns="http://www.w3.org/2000/svg">
<path d="M224.204 17.9707C226.625 20.0165 228.515 22.6165 229.713 25.5495C230.912 28.4825 231.384 31.6615 231.088 34.8159C230.766 37.8603 229.827 41.3206 231.746 43.7079C233.665 46.0952 237.502 46.1086 239.327 48.5361C241.461 51.3928 239.488 55.4968 240.186 58.9973C240.565 60.6347 241.514 62.0843 242.863 63.0868C244.213 64.0892 245.875 64.5793 247.553 64.4693C243.537 67.5486 238.751 69.4648 233.718 70.0083C232.484 68.3319 231.249 66.6688 230.028 64.9923C230.645 65.9379 230.929 67.0622 230.834 68.187C230.739 69.3119 230.271 70.3729 229.505 71.202C227.924 72.8184 225.904 73.9373 223.695 74.4208C218.499 75.8635 213.041 76.0863 207.745 75.072C202.45 74.0576 197.46 71.8335 193.167 68.5733" fill="#E61D55"/>
<path d="M166.021 43.3195C167.058 41.0899 167.976 38.8067 168.771 36.4796C170.033 31.3294 167.671 25.4283 170.314 20.8414C172.193 17.5824 176.058 16.0669 179.708 15.061C183.357 14.0551 187.235 13.2235 190 10.6485C192.026 8.77085 193.22 6.14216 195.233 4.2511C198.118 1.56875 202.278 0.737216 206.21 0.603098C210.27 0.327698 214.332 1.10375 218.005 2.85626C219.825 3.75082 221.41 5.06042 222.631 6.6795C223.853 8.29858 224.676 10.1818 225.036 12.1775C225.291 14.1356 225.036 16.201 225.559 18.0652C226.083 19.9294 227.747 21.7803 228.699 23.7384C229.645 25.8335 229.868 28.1829 229.334 30.4183C228.799 32.6538 227.538 34.6488 225.747 36.0906L197.018 71.0953C191.127 73.1339 177.091 70.076 172.716 65.6501C168.342 61.2243 163.914 49.1805 166.021 43.3195Z" fill="#E61D55"/>
<path d="M225.116 31.5308C224.204 23.3764 218.3 13.5992 210.181 14.8465L185.021 22.5181C183.839 22.7092 182.77 23.3351 182.025 24.2731C181.281 25.211 180.913 26.3931 180.996 27.5877L186.672 86.5994C186.672 86.5994 184.793 88.0613 183.599 87.5785C183.534 87.5514 183.462 87.5456 183.393 87.5619C183.324 87.5782 183.262 87.6158 183.216 87.6693C183.17 87.7229 183.142 87.7896 183.136 87.86C183.13 87.9304 183.146 88.0008 183.183 88.0613C186.055 92.5006 199.648 111.881 214.368 106.502C217.656 105.295 214.368 94.955 214.838 91.1595L214.69 81.4627C214.502 76.5004 214.408 74.4618 214.408 74.5155C214.408 74.5691 224.781 72.2757 226.284 58.5286C227.062 51.6484 226.136 40.5837 225.116 31.5308Z" fill="#FFBF9D"/>
<path d="M221.695 43.9493C221.717 44.4045 221.562 44.8506 221.262 45.1935C220.961 45.5363 220.539 45.749 220.085 45.7867C219.863 45.8147 219.638 45.7982 219.423 45.7382C219.208 45.6782 219.007 45.5758 218.832 45.4372C218.657 45.2985 218.512 45.1263 218.404 44.9307C218.297 44.7351 218.229 44.52 218.206 44.298C218.18 43.8427 218.332 43.3951 218.63 43.0497C218.928 42.7043 219.348 42.4882 219.803 42.4472C220.026 42.4192 220.253 42.4361 220.47 42.4968C220.686 42.5575 220.889 42.6608 221.065 42.8007C221.241 42.9406 221.388 43.1143 221.496 43.3115C221.604 43.5088 221.672 43.7256 221.695 43.9493Z" fill="#E61D55"/>
<path d="M204.251 44.5134C204.281 44.9695 204.13 45.4191 203.831 45.7652C203.532 46.1114 203.11 46.3265 202.654 46.3642C202.432 46.3922 202.208 46.3757 201.992 46.3157C201.777 46.2557 201.576 46.1533 201.402 46.0146C201.227 45.876 201.081 45.7038 200.973 45.5082C200.866 45.3126 200.799 45.0975 200.775 44.8755C200.749 44.4202 200.901 43.9725 201.199 43.6271C201.497 43.2817 201.918 43.0657 202.372 43.0247C202.594 42.9948 202.82 43.0099 203.035 43.0692C203.251 43.1285 203.453 43.2307 203.628 43.3697C203.804 43.5087 203.949 43.6816 204.056 43.8781C204.163 44.0746 204.229 44.2907 204.251 44.5134Z" fill="#E61D55"/>
<path d="M223.815 38.2366C223.614 38.5451 222.017 37.4721 219.978 37.7135C217.938 37.955 216.596 39.3095 216.341 39.0547C216.086 38.7999 216.341 38.3975 216.958 37.7135C217.725 36.9188 218.746 36.416 219.843 36.2919C220.936 36.1776 222.034 36.4531 222.943 37.0698C223.641 37.6063 223.923 38.1025 223.815 38.2366Z" fill="#E61D55"/>
<path d="M205.512 39.2418C205.257 39.5234 203.701 38.3164 201.487 38.3432C199.272 38.37 197.716 39.5771 197.461 39.282C197.206 38.9869 197.582 38.6517 198.279 38.0884C199.201 37.3851 200.327 36.9992 201.487 36.9886C202.64 36.9757 203.764 37.3486 204.68 38.0481C205.391 38.598 205.593 39.1077 205.512 39.2418Z" fill="#E61D55"/>
<path d="M212.007 52.3049C212.969 51.9649 213.97 51.7442 214.986 51.6478C215.455 51.5673 215.912 51.4466 215.979 51.1247C215.993 50.627 215.857 50.1365 215.59 49.7165L213.979 46.1221C211.752 41.0122 210.115 36.7339 210.329 36.7339C210.544 36.7339 212.503 40.7574 214.731 45.8271C215.268 47.0878 215.791 48.2948 216.274 49.4482C216.612 50.0119 216.732 50.68 216.609 51.3259C216.551 51.4991 216.452 51.6561 216.322 51.7842C216.191 51.9123 216.032 52.008 215.858 52.0635C215.596 52.1446 215.326 52.1941 215.053 52.211C214.046 52.3708 213.022 52.4023 212.007 52.3049Z" fill="#E61D55"/>
<path d="M214.382 74.5152C207.961 74.9105 201.555 73.5177 195.878 70.4917C195.878 70.4917 200.923 79.8799 214.53 77.895L214.382 74.5152Z" fill="#FF9A6C"/>
<path d="M206.116 57.6162C206.347 57.1662 206.688 56.7829 207.109 56.503C207.625 56.2752 208.203 56.2325 208.746 56.3823C209.548 56.5306 210.281 56.9298 210.84 57.5223C211.116 57.8223 211.305 58.1916 211.388 58.5907C211.471 58.9899 211.444 59.404 211.309 59.7889C211.081 60.5668 209.9 60.9691 209.095 61.1301C208.276 61.2131 207.452 61.0144 206.76 60.5668C206.453 60.418 206.187 60.1958 205.985 59.9198C205.784 59.6438 205.654 59.3224 205.606 58.9842C205.647 58.4898 205.823 58.0163 206.116 57.6162Z" fill="#FF9A6C"/>
<path d="M206.573 54.9878C206.882 54.9878 206.989 56.9995 208.801 58.3675C210.612 59.7355 212.826 59.4002 212.826 59.7087C212.826 60.0172 212.37 60.1379 211.484 60.205C210.289 60.271 209.108 59.9202 208.143 59.2125C207.219 58.5287 206.594 57.5151 206.399 56.3826C206.238 55.4974 206.439 54.9878 206.573 54.9878Z" fill="#E61D55"/>
<path d="M205.592 31.8786C205.431 32.4017 203.539 32.2542 201.339 32.6163C199.138 32.9784 197.394 33.6892 197.072 33.2332C196.937 33.0321 197.219 32.5358 197.917 31.9994C198.851 31.3482 199.921 30.917 201.046 30.7381C202.17 30.5593 203.321 30.6374 204.412 30.9666C205.19 31.2483 205.592 31.6372 205.592 31.8786Z" fill="#E61D55"/>
<path d="M222.85 31.3429C222.501 31.7855 220.998 31.3429 219.213 31.477C217.428 31.6112 215.926 31.933 215.563 31.477C215.402 31.2759 215.563 30.8333 216.261 30.3907C217.141 29.8495 218.153 29.5618 219.186 29.5591C220.213 29.5178 221.231 29.764 222.125 30.27C222.783 30.6991 223.037 31.1283 222.85 31.3429Z" fill="#E61D55"/>
<path d="M179.453 24.3153C180.959 22.5444 182.981 21.2878 185.236 20.721C194.63 17.3976 204.387 15.205 214.301 14.1895C215.468 16.2549 214.301 18.9774 212.369 20.3991C210.34 21.6298 208.13 22.5349 205.82 23.0814C203.579 23.8459 201.271 25.0664 200.292 27.2257C199.312 29.385 199.997 32.2953 199.084 34.6424C197.501 38.6659 191.771 39.8327 190.201 43.8697C189.02 46.9275 190.724 50.2671 191.073 53.5261C191.259 55.183 191.088 56.8604 190.573 58.4461C190.058 60.0318 189.21 61.4893 188.085 62.7209C186.961 63.9526 185.587 64.93 184.054 65.5879C182.521 66.2457 180.865 66.5688 179.198 66.5356C178.849 54.8137 178.504 43.0963 178.164 31.3833C178.084 28.9558 178.07 26.3271 179.453 24.3153Z" fill="#E61D55"/>
<path d="M155.045 53.2034C156.937 51.594 159.299 50.2394 160.104 47.8387C161.271 44.4052 158.614 40.2744 160.48 37.1897C162.197 34.3732 166.988 34.6415 168.531 31.825C169.779 29.5718 168.531 27.5198 168.987 25.5215C169.426 24.4584 170.188 23.5602 171.166 22.9537C172.143 22.3472 173.287 22.0632 174.435 22.1417L189.759 45.7464C191.021 53.5521 192.443 57.7365 190.604 62.2295C189.438 64.618 188.538 67.1278 187.921 69.7132C187.491 72.3285 188.082 75.3328 190.189 76.9422C180.608 77.425 171.791 72.1676 163.646 67.0979L155.032 61.7332C154.091 61.242 153.285 60.5284 152.683 59.6544C151.516 57.4951 153.139 54.8128 155.045 53.2034Z" fill="#E61D55"/>
<path d="M163.539 64.7378C163.863 64.8581 164.201 64.9348 164.545 64.9658C165.538 65.0986 166.546 65.0578 167.524 64.8451C169.094 64.5181 170.551 63.7877 171.751 62.726C173.333 61.2862 174.355 59.3338 174.636 57.2138C174.808 55.9918 174.74 54.7481 174.435 53.5524C174.04 52.2802 173.476 51.0668 172.758 49.9446C172.004 48.7914 171.421 47.5357 171.027 46.2161C170.828 45.5406 170.781 44.8293 170.89 44.1336C170.999 43.4378 171.261 42.7749 171.657 42.1926C172.556 41.0526 174.18 40.8514 175.683 40.2479C176.504 39.9816 177.228 39.4774 177.763 38.7994C178.258 38.0684 178.511 37.2007 178.487 36.3183C178.329 34.6211 178.014 32.942 177.548 31.3023C177.361 30.4994 177.361 29.6642 177.548 28.8613C177.783 28.0787 178.293 27.4073 178.984 26.9703C180.473 26.1525 182.157 25.7539 183.855 25.8169C185.596 25.7878 187.302 25.3269 188.82 24.4757C190.28 23.6282 191.481 22.3996 192.295 20.9216C192.973 19.4837 193.426 17.9502 193.637 16.375C193.841 14.9203 194.196 13.491 194.697 12.11C195.231 10.8453 196.032 9.71075 197.046 8.78391C198.73 7.25911 200.854 6.30774 203.114 6.06673C205.373 5.82572 207.651 6.3075 209.619 7.44274C210.977 8.19155 212.194 9.17196 213.215 10.3397C214.076 11.356 214.81 12.4729 215.402 13.6658C215.402 13.6658 215.402 13.5853 215.322 13.411C215.241 13.2366 215.161 13.0086 215.013 12.7002C213.852 10.3751 212.026 8.44722 209.767 7.1611C207.933 6.09415 205.835 5.56864 203.715 5.64557C201.127 5.77343 198.66 6.78135 196.724 8.50228C195.657 9.46959 194.811 10.6541 194.241 11.9759C193.726 13.3882 193.352 14.8484 193.127 16.3347C192.909 17.8569 192.456 19.3362 191.785 20.7204C191.011 22.1093 189.875 23.2631 188.498 24.0599C187.052 24.8603 185.428 25.2846 183.774 25.2938C181.977 25.2364 180.198 25.6625 178.622 26.5277C177.828 27.0477 177.243 27.8315 176.971 28.7406C176.742 29.6175 176.719 30.5357 176.904 31.423C177.365 33.0281 177.684 34.6707 177.857 36.3317C177.875 37.1035 177.655 37.8622 177.226 38.5044C176.772 39.1303 176.134 39.5992 175.401 39.8456C174.677 40.1272 173.898 40.315 173.147 40.61C172.371 40.8677 171.68 41.3313 171.147 41.9512C170.702 42.5949 170.407 43.3309 170.287 44.1043C170.166 44.8778 170.222 45.6685 170.45 46.4173C170.857 47.7858 171.463 49.0871 172.248 50.2799C172.953 51.3597 173.512 52.5276 173.912 53.7536C174.219 54.8938 174.296 56.0836 174.14 57.254C173.902 59.3012 172.952 61.1999 171.456 62.6187C170.317 63.6593 168.932 64.3931 167.43 64.7512C166.145 65.0002 164.823 64.9956 163.539 64.7378Z" fill="#4CC5C4"/>
<path d="M251.807 56.476C252.065 57.2935 252.031 58.1748 251.713 58.9706C251.536 59.4276 251.26 59.8399 250.905 60.1783C250.55 60.5167 250.125 60.7729 249.66 60.9287C249.04 61.0945 248.385 61.0831 247.771 60.8958C247.156 60.7085 246.607 60.3529 246.185 59.8692C245.701 59.3091 245.431 58.5969 245.42 57.8574C245.413 57.0332 245.559 56.2148 245.849 55.4433C246.413 53.8473 247.486 52.1172 247.392 49.9981C247.359 48.9286 247.104 47.8776 246.642 46.9124C246.18 45.9471 245.521 45.0887 244.709 44.392C243.838 43.6678 242.842 43.1087 241.77 42.7424C240.673 42.3999 239.536 42.2015 238.388 42.1522C237.277 42.1153 236.171 41.9716 235.087 41.7231C234.075 41.4791 233.181 40.8853 232.565 40.0466C232.019 39.1932 231.726 38.2028 231.719 37.1899C231.685 36.2004 231.793 35.2112 232.041 34.2527C232.615 32.448 232.958 30.5778 233.061 28.6868C233.019 27.0024 232.467 25.3704 231.478 24.0061C230.646 22.9278 229.617 22.0175 228.445 21.3238C227.586 20.7926 226.77 20.1963 226.003 19.54C225.363 18.9641 224.851 18.2605 224.5 17.4746C224.5 17.4746 224.5 17.4746 224.5 17.6489C224.547 17.8092 224.606 17.966 224.674 18.1184C224.955 18.7102 225.347 19.2428 225.828 19.6875C226.58 20.3835 227.388 21.016 228.244 21.5786C229.362 22.2886 230.34 23.1978 231.129 24.261C232.041 25.5741 232.54 27.1289 232.565 28.7271C232.442 30.5784 232.091 32.4074 231.518 34.1722C231.253 35.1737 231.131 36.2078 231.156 37.2435C231.166 38.3554 231.486 39.4424 232.082 40.3819C232.769 41.3296 233.774 42.0003 234.913 42.2729C236.027 42.5353 237.164 42.6924 238.308 42.7424C239.414 42.7846 240.51 42.9694 241.569 43.2922C242.576 43.6338 243.513 44.1565 244.333 44.8346C245.1 45.4767 245.726 46.2705 246.172 47.166C246.618 48.0615 246.873 49.0394 246.923 50.0384C247.03 51.9697 246.024 53.6327 245.46 55.3226C245.154 56.1457 245.008 57.0198 245.031 57.8977C245.052 58.7357 245.371 59.5389 245.93 60.1642C246.404 60.6934 247.02 61.0765 247.704 61.2689C248.388 61.4613 249.113 61.4549 249.794 61.2506C250.297 61.0776 250.753 60.7917 251.127 60.4151C251.502 60.0384 251.785 59.581 251.955 59.0779C252.186 58.4565 252.238 57.7823 252.102 57.1332C252.046 56.8976 251.946 56.6748 251.807 56.476Z" fill="#E61D55"/>
<path opacity="0.5" d="M192.175 7.99251C192.175 7.99251 191.611 8.64969 190.377 10.2457C189.142 11.8417 185.975 13.2767 184.754 13.7596C183.533 14.2424 178.729 15.3824 176.703 16.0798C174.79 16.8571 173.059 18.0215 171.617 19.4998C169.672 21.1629 169.457 23.0673 168.934 24.6767C168.41 26.2861 169.135 28.0699 169.095 29.5452C168.993 30.8411 168.528 32.0822 167.753 33.1262C166.921 34.6685 163.043 35.3391 161.312 36.412C159.581 37.485 159.89 39.604 159.809 40.5697C159.885 41.8538 160.051 43.131 160.305 44.392C160.419 45.2287 160.419 46.0768 160.305 46.9134C160.15 47.8304 159.783 48.6985 159.232 49.4483C158.435 50.3906 157.535 51.2408 156.548 51.9831L154.857 53.3913C152.965 54.9873 151.489 57.5087 152.71 59.668C153.312 60.542 154.118 61.2556 155.059 61.7468C155.059 61.7468 158.923 60.1911 161.768 54.4374C163.298 51.2857 163.982 47.9059 164.036 42.4473C164.036 37.6727 169.296 37.9141 171.148 34.4003C174.449 28.1101 171.376 25.1462 175.563 22.1017C180.434 18.561 182.393 22.5845 190.645 14.524C196.845 8.46193 197.529 5.41745 205.151 2.88263C213.081 0.200279 221.669 5.56498 221.669 5.56498C220.592 4.48946 219.357 3.58489 218.006 2.88263C214.334 1.13012 210.271 0.354065 206.211 0.629465C202.279 0.763583 198.16 1.58168 195.234 4.27745C194.61 4.86322 194.035 5.50028 193.517 6.18193L193.222 6.57086" fill="white"/>
<path opacity="0.5" d="M229.598 46.3773C232.175 49.7168 236.026 49.985 236.026 55.001C236.026 60.017 240.535 66.5619 240.535 66.5619V68.3591C243.032 67.4126 245.378 66.1069 247.499 64.4831C245.823 64.5937 244.162 64.1056 242.813 63.1058C241.463 62.1059 240.513 60.6595 240.132 59.0245C239.434 55.5241 241.407 51.4067 239.273 48.55C237.448 46.1224 233.584 46.0822 231.692 43.7217C229.8 41.3612 230.712 37.8742 231.034 34.8297C231.526 29.6654 229.964 24.5151 226.686 20.4926C226.684 20.4613 226.684 20.4299 226.686 20.3987C227.143 20.7742 227.679 21.1497 228.256 21.5521C229.371 22.2659 230.349 23.1745 231.141 24.2344C232.053 25.5476 232.553 27.1024 232.577 28.7005C232.457 30.5522 232.106 32.3815 231.531 34.1457C231.266 35.1474 231.144 36.1813 231.168 37.217C231.178 38.3289 231.499 39.4159 232.094 40.3554C232.786 41.3021 233.788 41.9761 234.925 42.2598C236.04 42.5178 237.177 42.6705 238.32 42.7158C239.426 42.7641 240.521 42.9488 241.581 43.2657C242.589 43.6073 243.526 44.13 244.345 44.8081C245.112 45.4507 245.738 46.2446 246.183 47.14C246.629 48.0354 246.885 49.013 246.935 50.0118C247.043 51.9565 246.036 53.6062 245.473 55.2961C245.166 56.1192 245.021 56.9932 245.043 57.8711C245.065 58.7092 245.384 59.5124 245.942 60.1377C246.418 60.6652 247.033 61.0481 247.716 61.2426C248.4 61.4371 249.124 61.4353 249.807 61.2375C250.618 60.9331 251.295 60.351 251.718 59.5947C252.141 58.8384 252.281 57.9568 252.115 57.1067C252.068 56.8832 251.981 56.6698 251.86 56.4763C252.117 57.2938 252.084 58.1751 251.766 58.9709C251.59 59.4288 251.315 59.842 250.96 60.1807C250.605 60.5193 250.179 60.7749 249.713 60.929C249.094 61.0948 248.44 61.0847 247.826 60.8999C247.212 60.7151 246.662 60.3629 246.237 59.8829C245.756 59.3163 245.486 58.6008 245.473 57.8577C245.468 57.0337 245.614 56.2156 245.902 55.4436C246.466 53.8476 247.539 52.1175 247.445 49.9984C247.412 48.9289 247.157 47.8779 246.694 46.9127C246.232 45.9474 245.574 45.089 244.761 44.3923C243.891 43.6681 242.895 43.109 241.823 42.7427C240.725 42.4046 239.589 42.2107 238.441 42.1659C237.33 42.118 236.225 41.9699 235.14 41.7234C234.128 41.4794 233.234 40.8856 232.617 40.0469C232.074 39.1974 231.781 38.2119 231.772 37.2036C231.744 36.21 231.853 35.2172 232.094 34.253C232.667 32.4526 233.01 30.587 233.114 28.7005C233.072 27.012 232.52 25.3756 231.531 24.0064C230.693 22.9338 229.665 22.0245 228.498 21.3241C227.778 20.8666 227.083 20.3696 226.418 19.8354C226.103 19.2869 225.847 18.7071 225.653 18.1053C225.09 16.2142 225.385 14.1756 225.13 12.2175C224.741 9.71877 223.561 7.4106 221.762 5.63232C223.962 10.2862 225.345 15.6643 224.539 19.7012C224.11 21.9008 228.109 23.8991 228.565 29.5857C229.021 35.2723 228.31 44.6874 229.598 46.3773Z" fill="white"/>
<path d="M225.049 12.593C225.049 12.593 224.969 11.8419 224.553 10.5544C223.952 8.74594 222.899 7.12091 221.493 5.83342C219.345 3.99359 216.836 2.62308 214.126 1.80989C210.848 0.696787 207.347 0.402107 203.928 0.951538C200.507 1.5082 197.31 3.00853 194.696 5.28353C193.563 6.28834 192.578 7.44886 191.771 8.73036C191.057 9.8953 190.15 10.9295 189.087 11.7882C187.507 12.9543 185.709 13.7932 183.8 14.256C183.288 14.3849 182.768 14.4834 182.244 14.5511C181.881 14.5511 181.693 14.5511 181.693 14.5511C181.693 14.5511 182.431 14.3767 183.72 13.9609C185.549 13.4195 187.264 12.5467 188.778 11.3859C189.771 10.5333 190.611 9.51728 191.261 8.38166C192.09 7.06131 193.097 5.86094 194.253 4.81413C196.943 2.43276 200.25 0.857027 203.794 0.267546C207.329 -0.292623 210.948 0.0298926 214.328 1.20636C217.105 2.08799 219.662 3.55108 221.829 5.49812C223.259 6.86104 224.285 8.59216 224.794 10.5007C224.931 11.0146 225.021 11.5398 225.063 12.0699C225.089 12.4052 225.076 12.593 225.049 12.593Z" fill="white"/>
<path d="M240.481 60.1916C240.481 60.1916 240.387 60.0575 240.253 59.7758C240.076 59.3458 239.954 58.8951 239.891 58.4346C239.717 56.812 239.717 55.1754 239.891 53.5528C239.965 52.4611 239.888 51.3644 239.663 50.2937C239.342 49.1115 238.584 48.0951 237.542 47.4504C236.343 46.7246 235.102 46.0708 233.825 45.4923C232.332 44.8824 231.086 43.7921 230.283 42.3942C229.726 40.8906 229.642 39.2529 230.041 37.7001C230.349 36.3282 230.542 34.933 230.618 33.529C230.697 31.1579 230.333 28.7928 229.545 26.5549C228.76 24.5023 227.714 22.5595 226.432 20.7744C226.432 20.7744 226.566 20.8549 226.781 21.0829C227.091 21.4019 227.378 21.7425 227.639 22.1022C228.625 23.4097 229.42 24.8502 230.001 26.3805C230.881 28.6638 231.309 31.096 231.262 33.5424C231.207 34.9769 231.027 36.4038 230.726 37.8073C230.356 39.2244 230.421 40.7198 230.913 42.0991C231.655 43.3541 232.786 44.3334 234.134 44.8888C235.44 45.4824 236.704 46.1634 237.918 46.9273C239.073 47.67 239.899 48.8268 240.226 50.1596C240.442 51.2861 240.496 52.4377 240.387 53.5796C240.182 55.1758 240.115 56.7867 240.186 58.3944C240.293 59.5746 240.562 60.1647 240.481 60.1916Z" fill="white"/>
<path d="M181.707 14.5243C179.635 14.9085 177.62 15.5528 175.709 16.4422C173.696 17.4439 171.972 18.9445 170.704 20.801C169.979 21.9058 169.473 23.1398 169.215 24.4356C169.028 25.8626 168.978 27.3043 169.067 28.7407C169.18 30.2785 168.794 31.8116 167.967 33.113C166.996 34.1807 165.715 34.9171 164.303 35.2186C163.148 35.4805 162.065 35.9985 161.137 36.7342C160.408 37.4669 159.918 38.4014 159.728 39.4165C159.49 40.9241 159.577 42.465 159.983 43.9363C160.154 44.4823 160.27 45.0438 160.331 45.6127C160.062 45.1077 159.854 44.5718 159.714 44.0167C159.197 42.5092 159.037 40.9026 159.244 39.3226C159.422 38.2004 159.942 37.1605 160.734 36.3452C161.713 35.5183 162.87 34.9306 164.115 34.6285C165.384 34.3512 166.536 33.691 167.416 32.7374C168.158 31.5333 168.492 30.1225 168.369 28.7139C168.28 27.2365 168.338 25.7539 168.544 24.2881C168.827 22.9111 169.379 21.6032 170.167 20.4389C171.522 18.488 173.376 16.9364 175.535 15.9459C176.956 15.2711 178.472 14.8188 180.03 14.6048C180.583 14.5044 181.147 14.4774 181.707 14.5243Z" fill="white"/>
<path d="M226.418 53.4317C226.308 52.9206 226.259 52.3985 226.271 51.8759C226.271 50.7225 226.15 49.3142 226.069 47.6378C225.881 44.0702 225.586 39.1347 224.996 33.7164C224.66 29.093 223.135 24.6348 220.568 20.774C219.406 19.2637 218.053 17.9111 216.542 16.7505C217.023 16.9461 217.475 17.2079 217.884 17.5284C219.063 18.3471 220.105 19.3475 220.97 20.4924C223.72 24.3631 225.354 28.9141 225.694 33.6493C226.284 39.0945 226.512 44.0434 226.566 47.6378C226.566 49.4215 226.566 50.8834 226.566 51.8759C226.58 52.3985 226.53 52.9209 226.418 53.4317Z" fill="white"/>
<path d="M178.675 384.648L181.909 421.665L198.159 419.666L200.279 383.32L178.675 384.648Z" fill="#E61D55"/>
<path d="M198.427 412.344C198.427 412.344 187.303 421.249 181.439 414.315L180.097 417.883L174.73 443.097C174.536 443.879 174.632 444.705 174.999 445.422C175.366 446.139 175.981 446.7 176.729 447C177.301 447.201 177.92 447.231 178.509 447.085C179.098 446.94 179.631 446.626 180.044 446.182C184.579 441.353 201.138 423.516 200.87 421.222L200.548 415.12C200.518 414.506 200.307 413.915 199.942 413.421C199.576 412.927 199.073 412.552 198.494 412.344H198.427Z" fill="#E61D55"/>
<path d="M177.238 447.148L200.721 419.131V420.472C200.772 421.018 200.705 421.569 200.524 422.088C200.343 422.606 200.054 423.079 199.674 423.476C197.796 426.32 192.549 432.744 180.016 446.276C179.66 446.658 179.216 446.946 178.722 447.114C178.228 447.283 177.7 447.327 177.185 447.242L177.238 447.148Z" fill="#4CC5C4"/>
<path d="M183.761 433.051C183.586 433.145 182.821 431.522 180.956 430.717C179.812 430.31 178.599 430.132 177.387 430.194C177.387 430.114 177.736 429.846 178.447 429.712C179.396 429.565 180.367 429.696 181.243 430.089C182.119 430.481 182.863 431.119 183.385 431.924C183.761 432.541 183.828 433.024 183.761 433.051Z" fill="#FAFAFA"/>
<path d="M181.721 437.371C181.574 437.518 180.554 436.539 178.944 436.137C177.939 435.987 176.926 435.902 175.911 435.882C176.369 435.557 176.899 435.349 177.456 435.277C178.013 435.204 178.579 435.269 179.105 435.466C180.943 435.922 181.882 437.277 181.721 437.371Z" fill="#FAFAFA"/>
<path d="M187.639 427.458C186.305 426.622 184.91 425.887 183.466 425.259C181.95 424.854 180.407 424.558 178.85 424.374C180.439 423.86 182.16 423.941 183.694 424.602C185.306 425.056 186.705 426.068 187.639 427.458Z" fill="#FAFAFA"/>
<path d="M187.854 419.854C187.854 420.042 186.056 419.398 183.828 419.412C181.601 419.425 179.803 420.056 179.803 419.868C180.965 419.017 182.392 418.608 183.828 418.714C185.264 418.598 186.693 419.003 187.854 419.854Z" fill="#E61D55"/>
<path d="M182.566 419.412C182.526 419.01 182.567 418.604 182.687 418.219C182.939 417.154 183.395 416.147 184.029 415.255C184.437 414.566 185.059 414.029 185.8 413.726C186.048 413.659 186.31 413.671 186.55 413.76C186.791 413.849 186.998 414.01 187.142 414.222C187.416 414.662 187.521 415.186 187.437 415.697C187.231 416.728 186.673 417.655 185.857 418.318C185.041 418.981 184.02 419.34 182.969 419.332C181.938 419.291 180.943 418.94 180.114 418.325C179.286 417.71 178.663 416.86 178.326 415.885C178.236 415.636 178.201 415.371 178.222 415.108C178.242 414.844 178.319 414.588 178.447 414.356C178.591 414.145 178.799 413.985 179.04 413.899C179.28 413.812 179.542 413.803 179.788 413.873C180.521 414.141 181.166 414.605 181.654 415.214C182.384 416.002 182.974 416.91 183.398 417.897C183.589 418.253 183.698 418.647 183.72 419.05C183.092 417.766 182.284 416.578 181.318 415.523C180.859 415.019 180.29 414.629 179.654 414.383C179.517 414.339 179.369 414.342 179.233 414.39C179.097 414.439 178.981 414.53 178.903 414.651C178.772 414.974 178.772 415.334 178.903 415.657C179.22 416.483 179.768 417.2 180.482 417.723C181.196 418.246 182.045 418.553 182.928 418.608C183.818 418.609 184.683 418.309 185.38 417.756C186.077 417.203 186.566 416.43 186.766 415.563C186.836 415.211 186.779 414.845 186.605 414.53C186.529 414.407 186.413 414.313 186.277 414.262C186.141 414.211 185.993 414.206 185.854 414.249C185.227 414.503 184.693 414.943 184.324 415.51C183.522 416.702 182.928 418.022 182.566 419.412Z" fill="#FAFAFA"/>
<path d="M241.957 415.536C241.609 414.959 238.562 402.513 238.562 402.513L259.67 397.403L262.139 415.281L241.957 415.536Z" fill="#E61D55"/>
<path d="M262.059 411.781V413.202C262.059 413.202 284.871 423.248 285.018 427.821L239.395 426.856L240.361 410.949C243.681 412.712 247.357 413.703 251.114 413.847C254.872 413.991 258.613 413.285 262.059 411.781Z" fill="#E61D55"/>
<path d="M239.421 426.856L239.649 423.033L283.246 425.353C283.246 425.353 285.259 426.319 284.991 427.821L239.421 426.856Z" fill="#4CC5C4"/>
<path d="M262.193 413.336C262.193 413.577 261.066 413.658 259.952 414.382C258.838 415.106 258.234 416.085 258.033 415.978C257.832 415.87 258.194 414.543 259.549 413.684C260.905 412.826 262.247 413.121 262.193 413.336Z" fill="#FAFAFA"/>
<path d="M266.929 415.509C266.929 415.737 266.003 416.126 265.225 417.091C264.446 418.057 264.205 419.103 263.977 419.09C263.749 419.076 263.655 417.748 264.634 416.555C265.614 415.361 266.929 415.294 266.929 415.509Z" fill="#FAFAFA"/>
<path d="M269.506 421.584C269.305 421.584 269.023 420.457 269.627 419.183C270.231 417.909 271.277 417.426 271.358 417.628C271.438 417.829 270.794 418.486 270.311 419.545C269.828 420.605 269.734 421.557 269.506 421.584Z" fill="#FAFAFA"/>
<path d="M230.712 183.486C230.712 183.486 244.131 244.08 252.263 304.098C258.972 353.467 260.958 406.752 260.958 406.752L237.247 407.476C237.247 407.476 224.553 346.13 214.556 302.006C205.351 261.315 197.541 239.883 197.541 239.883L191.234 180.401L230.712 183.486Z" fill="#E61D55"/>
<path d="M169.068 179.784C169.068 179.784 147.517 207.225 148.43 236.583C148.98 254.139 178.85 410.936 178.85 410.936H202.775L199.072 245.126L207.727 191.184L169.068 179.784Z" fill="#E61D55"/>
<path d="M264.756 73.71C264.506 75.8579 264.02 77.9717 263.307 80.0135C262.82 82.1199 262.114 84.1697 261.2 86.1293C261.448 83.9822 261.93 81.8686 262.636 79.8257C263.116 77.7156 263.827 75.6647 264.756 73.71Z" fill="white"/>
<path d="M264.555 73.3345L260.422 87.0279L258.892 89.3482C258.892 89.3482 257.751 96.9258 257.711 98.5352C257.671 100.145 260.059 108.487 260.059 108.487L255.645 116.131L268.755 120.651C268.755 120.651 272.029 113.691 272.982 112.886C274.004 111.573 274.612 109.985 274.726 108.326C274.914 106.824 276.537 97.878 276.537 97.878C276.537 97.878 281.905 87.8863 279.53 87.4705C278.929 87.4372 278.326 87.4687 277.732 87.5644C277.732 87.5644 274.498 94.1362 273.572 94.2703L272.23 93.5595C272.23 93.5595 274.592 83.6079 274.659 81.7571C274.726 79.9063 274.31 78.6188 272.874 78.4578C272.874 78.4578 271.827 78.9272 271.747 79.3966C271.666 79.866 269.358 90.9576 268.741 90.7698C268.124 90.582 268.379 89.5762 268.379 89.5762C268.379 89.5762 271.505 76.1644 271.304 75.3597C271.222 74.8457 270.951 74.3809 270.544 74.056C270.137 73.7311 269.623 73.5695 269.103 73.6027L266.608 81.0194C266.608 81.0194 267.681 74.8098 266.608 73.7503C266.359 73.4644 266.023 73.2686 265.652 73.1934C265.281 73.1182 264.895 73.1678 264.555 73.3345Z" fill="#FFBF9D"/>
<path d="M268.325 103.19C268.217 103.19 268.258 102.036 267.761 100.212C267.049 97.7752 265.56 95.6372 263.521 94.1233L263.333 94.0026V93.788C263.534 92.8089 263.735 91.7628 263.937 90.7033V90.6363C264.151 90.301 264.366 89.9254 264.567 89.5365C265.246 88.3126 265.701 86.9772 265.909 85.5934C266.008 84.9857 265.976 84.3638 265.815 83.7694C265.751 83.53 265.622 83.313 265.442 83.1426C265.262 82.9721 265.038 82.8548 264.796 82.8038L265.01 82.7099C263.521 84.2388 262.259 85.513 261.374 86.3713C260.938 86.8713 260.447 87.3211 259.911 87.7125C260.256 87.1559 260.666 86.6426 261.132 86.1835C261.951 85.2447 263.145 83.9304 264.594 82.3612L264.688 82.2539H264.809C265.177 82.2965 265.525 82.4462 265.809 82.6847C266.093 82.9231 266.3 83.2397 266.406 83.5951C266.602 84.2834 266.652 85.0052 266.553 85.7141C266.364 87.1788 265.909 88.5968 265.211 89.8986C264.997 90.301 264.782 90.6899 264.541 91.052V90.9313C264.312 91.9908 264.111 93.0235 263.91 94.016L263.762 93.6807C265.916 95.284 267.433 97.598 268.043 100.212C268.219 100.95 268.304 101.707 268.298 102.465C268.392 102.908 268.365 103.19 268.325 103.19Z" fill="#FF9A6C"/>
<path d="M267.949 92.2451C269.455 92.4414 270.889 93.0082 272.122 93.8948C273.468 94.5963 274.624 95.6133 275.491 96.8588C274.203 96.1341 272.957 95.3371 271.76 94.4715C270.451 93.7977 269.179 93.0545 267.949 92.2451Z" fill="#FF9A6C"/>
<path d="M234.926 106.099C234.989 106.385 235.02 106.678 235.02 106.971C235.02 107.615 235.087 108.446 235.127 109.479C235.234 111.652 235.261 114.844 235.221 118.706C235.154 126.498 234.483 137.255 233.369 149.084C232.255 160.913 231.276 171.629 230.914 179.394C230.712 183.284 230.591 186.436 230.565 188.608C230.565 189.641 230.565 190.472 230.484 191.116C230.49 191.408 230.467 191.7 230.417 191.988C230.358 191.701 230.335 191.409 230.35 191.116C230.35 190.472 230.35 189.641 230.35 188.608C230.35 186.422 230.35 183.244 230.484 179.381C230.726 171.589 231.625 160.846 232.738 149.017C233.852 137.188 234.604 126.472 234.805 118.693C234.899 114.803 234.939 111.652 234.912 109.479C234.912 108.446 234.912 107.615 234.912 106.971C234.885 106.681 234.89 106.388 234.926 106.099Z" fill="#E61D55"/>
<path d="M254.182 112.001L248.667 130.268L239.971 96.9801C239.481 95.1528 238.553 93.4723 237.267 92.0842C235.981 90.6961 234.376 89.6421 232.591 89.0135L224.889 87.042L231.598 153.336L233.383 158.352C234.626 161.39 236.956 163.856 239.918 165.273C247.848 169.135 258.113 165.407 260.475 156.904L272.686 117.661L254.182 112.001Z" fill="#E2F5F4"/>
<path d="M172.663 106.636L176.555 181.983L225.788 183.78L230.296 188.635L230.686 128.148L214.838 84.6271C212.691 88.4226 208.773 89.6162 204.103 89.12C200.91 88.7847 195.113 88.0336 192.563 86.0889L186.042 79.5977L172.663 106.636Z" fill="white"/>
<path d="M185.854 76.0039L180.486 81.9855L154.28 91.4811L168.02 168.867L155.058 198.373C153.688 201.467 152.536 204.654 151.609 207.909L143.316 236.905C143.316 236.905 173.079 249.78 179.802 246.145C186.525 242.511 194.858 202.168 197.541 193.41C200.225 184.653 201.272 156.783 199.943 142.768C198.615 128.752 196.267 108.098 194.992 100.95C193.717 93.8013 185.854 76.0039 185.854 76.0039Z" fill="#E2F5F4"/>
<path d="M214.986 79.061L218.569 84.9622L234.068 89.3479C234.068 89.3479 237.597 110.029 237.436 115.662C237.275 121.295 233.182 183.673 233.102 186.623C233.021 189.574 247.58 234.53 246.52 236.958C245.903 238.379 239.261 238.446 235.168 239.519C234.511 239.689 233.825 239.715 233.157 239.594C232.49 239.474 231.856 239.21 231.3 238.821C230.744 238.432 230.279 237.928 229.937 237.342C229.594 236.757 229.383 236.104 229.318 235.429C228.231 224.243 225.131 198.292 225.399 189.225C225.721 177.463 226.741 148.99 224.755 134.653C222.769 120.316 214.986 84.8549 214.986 84.8549V79.061Z" fill="#E2F5F4"/>
<path d="M226.271 196.187C226.257 196.089 226.257 195.99 226.271 195.892C226.271 195.664 226.271 195.369 226.271 195.034C226.271 194.229 226.352 193.129 226.419 191.734C226.566 188.81 226.781 184.693 227.036 179.664C227.559 169.43 228.378 155.294 229.076 139.683C229.156 137.725 229.237 135.807 229.263 133.903C229.29 131.998 229.183 130.147 229.089 128.31C228.901 124.622 228.7 121.081 228.458 117.701C228.217 114.322 227.908 111.13 227.492 108.152C227.083 105.407 226.395 102.711 225.439 100.105C224.038 96.3159 222.425 92.6085 220.608 89.0002L219.119 86.063C218.958 85.7545 218.824 85.4997 218.73 85.2985C218.636 85.0973 218.596 85.0303 218.609 85.0303C218.676 85.104 218.734 85.185 218.783 85.2717L219.226 86.0093C219.602 86.6531 220.152 87.6187 220.823 88.8929C222.743 92.4568 224.424 96.1442 225.855 99.9307C226.855 102.557 227.575 105.281 228.002 108.058C228.458 111.049 228.767 114.268 229.035 117.648C229.304 121.027 229.505 124.582 229.706 128.256C229.787 130.094 229.961 131.971 229.894 133.903C229.827 135.834 229.773 137.738 229.706 139.697C229.008 155.321 228.123 169.444 227.479 179.677C227.13 184.747 226.861 188.878 226.66 191.748C226.553 193.089 226.459 194.229 226.405 195.034C226.405 195.382 226.338 195.664 226.325 195.892C226.32 195.992 226.302 196.091 226.271 196.187Z" fill="#E61D55"/>
<path d="M197.89 171.844C197.815 171.541 197.775 171.23 197.769 170.918C197.769 170.315 197.676 169.429 197.635 168.236C197.555 165.929 197.515 162.59 197.635 158.459C197.729 156.393 197.877 154.14 198.105 151.753C198.193 149.199 197.958 146.644 197.407 144.148C196.072 138.4 194.345 132.75 192.241 127.236C190.04 121.348 187.759 115.796 185.639 110.78C184.562 108.421 183.621 106.003 182.821 103.538C182.23 101.357 181.76 99.1447 181.412 96.9121C180.741 92.8886 180.406 89.5088 180.191 87.202C180.084 86.062 180.017 85.1634 179.99 84.5196C179.951 84.2124 179.951 83.9015 179.99 83.5942C180.059 83.8942 180.103 84.1991 180.124 84.5062L180.446 87.1886C180.728 89.482 181.13 92.7947 181.788 96.845C182.169 99.0546 182.662 101.244 183.264 103.403C184.08 105.841 185.03 108.232 186.109 110.565C188.269 115.581 190.577 121.12 192.818 127.035C194.935 132.578 196.652 138.266 197.957 144.054C198.499 146.605 198.72 149.214 198.615 151.82C198.36 154.234 198.185 156.487 198.065 158.526C197.823 162.63 197.81 165.969 197.81 168.276C197.81 169.389 197.81 170.261 197.81 170.958C197.81 171.656 197.904 171.844 197.89 171.844Z" fill="#E61D55"/>
<path d="M237.328 107.079C237.372 107.345 237.399 107.614 237.408 107.884C237.408 108.474 237.408 109.225 237.515 110.191C237.609 112.202 237.636 115.126 237.596 118.72C237.529 125.923 236.912 135.861 235.878 146.791C234.845 157.722 233.946 167.62 233.611 174.795C233.423 178.389 233.315 181.3 233.289 183.312L233.221 185.618C233.25 185.89 233.25 186.165 233.221 186.436C233.17 186.167 233.148 185.893 233.154 185.618C233.154 185.028 233.154 184.277 233.154 183.312C233.154 181.3 233.154 178.376 233.275 174.782C233.503 167.58 234.335 157.668 235.368 146.738C236.402 135.807 237.073 125.896 237.26 118.72C237.354 115.126 237.395 112.216 237.368 110.204C237.368 109.252 237.368 108.474 237.368 107.884C237.323 107.618 237.31 107.348 237.328 107.079Z" fill="#E61D55"/>
<path d="M165.9 133.165C165.843 132.63 165.843 132.09 165.9 131.555C165.9 130.522 165.9 129.02 165.819 127.169C165.612 122.357 164.951 117.575 163.847 112.886C162.732 108.2 161.168 103.633 159.177 99.2462C158.426 97.5563 157.768 96.2151 157.285 95.2226C157.013 94.7592 156.788 94.2694 156.614 93.7607C156.957 94.1749 157.254 94.6245 157.5 95.1019C158.05 95.9871 158.761 97.3149 159.58 98.9913C161.697 103.362 163.335 107.949 164.464 112.671C165.575 117.4 166.178 122.233 166.262 127.089C166.262 128.953 166.262 130.455 166.142 131.501C166.119 132.063 166.038 132.62 165.9 133.165Z" fill="#E61D55"/>
<path d="M158.734 228.683C158.734 228.683 164.29 233.122 165.444 234.853C166.598 236.583 169.536 242.685 171.791 244.509C171.745 244.807 171.622 245.089 171.433 245.325C171.245 245.561 170.998 245.744 170.717 245.855C170.437 245.966 170.131 246.002 169.832 245.959C169.533 245.915 169.251 245.795 169.013 245.609C166.721 244.238 164.734 242.412 163.176 240.244C162.25 238.742 161.217 239.574 161.123 240.861C161.029 242.149 161.888 250.866 161.888 250.866C161.888 250.866 164.33 260.59 163.565 261.663C163.401 261.872 163.191 262.041 162.951 262.157C162.712 262.274 162.449 262.334 162.183 262.334C161.917 262.334 161.654 262.274 161.415 262.157C161.175 262.041 160.965 261.872 160.801 261.663C160.439 261.153 157.621 252.999 157.621 252.999L156.95 248.586C156.95 248.586 158.131 262.534 157.218 263.594C157.077 263.785 156.893 263.941 156.681 264.048C156.469 264.155 156.235 264.211 155.997 264.211C155.759 264.211 155.525 264.155 155.313 264.048C155.101 263.941 154.917 263.785 154.776 263.594C154.185 263.031 153.729 256.888 153.729 256.888L152.522 248.64L152.347 264.291C152.347 264.291 152.132 265.767 151.005 265.794C149.878 265.82 149.1 264.077 149.1 264.077L147.892 247.956C147.892 247.956 148.187 256.928 147.57 257.344C146.953 257.76 146.013 257.72 145.772 257.022C145.249 253.878 144.895 250.709 144.712 247.527L144.403 232.17L143.826 224.767L158.211 224.23L158.734 228.683Z" fill="#FFBF9D"/>
<path d="M166.075 133.836L154.293 91.4814C154.293 91.4814 147.369 99.609 145.249 107.576C141.666 120.987 133.266 164.28 133.762 172.931C134.259 181.582 138.929 231.299 138.929 231.299L161.163 226.913L158.775 170.262L166.075 133.836Z" fill="#E2F5F4"/>
<path d="M208.276 151.727C208.976 150.953 209.559 150.081 210.007 149.138C210.994 146.798 211.771 144.374 212.329 141.896C212.902 139.417 213.284 136.897 213.469 134.359C213.482 133.299 213.562 132.242 213.711 131.193C213.897 132.246 213.956 133.318 213.885 134.385C213.825 136.961 213.497 139.523 212.906 142.03C212.347 144.55 211.5 146.998 210.383 149.326C209.972 150.341 209.229 151.187 208.276 151.727Z" fill="#E61D55"/>
<path opacity="0.5" d="M271.345 75.4004C271.262 74.8864 270.991 74.4215 270.584 74.0966C270.177 73.7717 269.664 73.6101 269.144 73.6434L266.648 81.0735C266.648 81.0735 267.722 74.8639 266.648 73.7909C266.4 73.4882 266.056 73.2793 265.673 73.1988C265.29 73.1183 264.89 73.1711 264.541 73.3483L260.408 87.0418L260.274 87.2429C260.086 87.4709 259.992 87.6185 260.019 87.6319L258.879 89.362C258.879 89.362 257.738 96.9396 257.698 98.549C257.658 100.158 260.046 108.501 260.046 108.501L257.47 112.967L254.169 111.947L248.654 130.214L239.958 96.9262C239.536 95.383 238.803 93.9422 237.804 92.6923C236.805 91.4423 235.561 90.4094 234.148 89.657V89.362L218.649 84.9764C218.649 84.9764 234.349 90.8641 236.926 96.1618C240.347 103.19 244.225 129.436 247.446 132.374C250.666 135.311 255.685 114.254 255.685 114.254L263.052 114.603L260.61 96.3629L261.254 89.657L265.977 82.75C265.977 82.75 266.541 82.9512 267.198 82.2001C267.856 81.449 269.225 75.1992 269.708 75.1992C270.257 75.2267 270.805 75.2939 271.345 75.4004Z" fill="white"/>
<path opacity="0.5" d="M154.293 91.4941C154.293 91.4941 154.132 91.655 153.85 92.0037C153.568 92.3524 153.139 92.8486 152.616 93.5461C151.075 95.555 149.672 97.6654 148.416 99.863C147.509 101.452 146.711 103.101 146.027 104.799C145.28 106.844 144.671 108.936 144.202 111.062C143.102 115.608 141.948 120.812 140.767 126.579C139.586 132.346 138.338 138.65 137.117 145.476C135.896 152.303 134.634 159.572 133.789 167.324C133.551 169.295 133.461 171.281 133.521 173.266C133.695 175.25 133.87 177.289 134.044 179.287C134.393 183.311 134.769 187.482 135.131 191.693C135.493 195.905 138.835 226.926 139.157 231.245L138.633 202.53C137.962 191.237 135.574 176.618 140.727 157.56C145.879 138.502 153.622 106.81 156.131 100.292C158.641 93.7741 180.446 81.9985 180.446 81.9985L154.293 91.4941Z" fill="white"/>
<path d="M240.266 97.7306C239.724 95.9945 238.943 94.3423 237.945 92.8219C236.773 91.4462 235.418 90.237 233.919 89.2275C234.485 89.2607 235.032 89.446 235.502 89.764C236.693 90.4218 237.732 91.3232 238.55 92.4094C239.369 93.4956 239.949 94.7421 240.253 96.0675C240.408 96.6104 240.413 97.1853 240.266 97.7306Z" fill="white"/>
<path d="M258.703 88.3423C258.24 91.5843 258.043 94.8587 258.113 98.1329C258.435 101.391 259.028 104.616 259.884 107.776C259.344 106.955 258.949 106.048 258.717 105.094C257.985 102.846 257.534 100.517 257.375 98.1597C257.231 95.8072 257.384 93.446 257.831 91.1319C257.974 90.1622 258.269 89.221 258.703 88.3423Z" fill="white"/>
<path d="M180.5 81.9854L180.137 82.1463L179.037 82.5621L174.837 84.0776C171.187 85.4188 165.9 87.2562 159.405 89.6837L156.923 90.636C156.084 90.9393 155.264 91.2931 154.467 91.6955C153.046 93.0281 151.785 94.5225 150.71 96.1482C148.34 99.7672 146.53 103.724 145.343 107.883C144.725 110.121 144.232 112.391 143.867 114.683C143.41 117.044 142.963 119.449 142.525 121.899C141.585 126.794 140.606 131.877 139.613 137.067C137.654 147.462 135.587 157.373 134.031 166.359C133.453 170.64 133.453 174.979 134.031 179.261C134.433 183.284 134.809 187.093 135.144 190.554L136.714 206.902C136.889 208.794 137.023 210.282 137.117 211.342C137.117 211.825 137.117 212.2 137.198 212.509C137.215 212.638 137.215 212.769 137.198 212.898C137.172 212.797 137.159 212.693 137.157 212.589L136.996 211.436C136.875 210.376 136.701 208.887 136.473 207.01C136.044 203.094 135.44 197.541 134.688 190.674C134.313 187.227 133.91 183.459 133.481 179.408C132.868 175.077 132.841 170.684 133.4 166.345C134.997 157.279 136.969 147.421 138.942 137.014C139.948 131.823 140.915 126.754 141.867 121.859C142.332 119.4 142.78 116.995 143.209 114.643C143.604 112.321 144.133 110.024 144.793 107.763C145.989 103.549 147.822 99.5419 150.227 95.8799C151.338 94.2309 152.635 92.7144 154.092 91.3602C154.952 90.9014 155.85 90.5156 156.775 90.2068L159.271 89.2679C165.793 86.9075 171.12 85.1103 174.797 83.9032L179.037 82.5621L180.151 82.2133C180.259 82.1249 180.375 82.0485 180.5 81.9854Z" fill="white"/>
<path opacity="0.3" d="M163.875 145.41L172.664 166.734L161.379 183.968L168.035 168.867L163.875 145.41Z" fill="white"/>
<path d="M165.484 136.732C165.486 136.949 165.464 137.165 165.417 137.376C165.336 137.846 165.229 138.463 165.095 139.214C164.786 140.89 164.343 143.237 163.753 146.134L159.03 170.275C159.325 177.142 159.647 184.72 159.996 192.7C160.519 205.615 160.989 217.511 161.338 226.926V227.168H161.11L145.208 230.212L140.794 231.017L139.626 231.205C139.493 231.223 139.357 231.223 139.224 231.205C139.348 231.15 139.479 231.109 139.613 231.084L140.753 230.816L145.141 229.864L161.123 226.564L160.895 226.859C160.479 217.471 159.956 205.548 159.379 192.633C159.056 184.653 158.748 177.075 158.466 170.208V170.128C160.492 160.324 162.21 151.982 163.431 145.987C164.048 143.09 164.545 140.769 164.907 139.106C165.081 138.355 165.216 137.765 165.323 137.282C165.361 137.095 165.415 136.911 165.484 136.732Z" fill="#E61D55"/>
<path d="M160.586 213.38C160.959 213.415 161.325 213.5 161.673 213.635L164.625 214.561C167.135 215.379 170.691 216.572 174.837 217.994L174.421 218.168C175.36 215.875 176.367 213.38 177.427 210.765L178.594 207.949L178.796 208.405C173.428 206.554 168.785 204.891 165.377 203.67L161.445 202.195C160.955 202.039 160.483 201.832 160.036 201.578C160.544 201.651 161.044 201.777 161.526 201.954L165.551 203.228C168.946 204.341 173.602 205.91 178.97 207.748L179.319 207.868L179.185 208.204L178.031 211.033C176.944 213.635 175.924 216.13 174.971 218.423L174.85 218.705L174.555 218.611C170.436 217.149 166.92 215.929 164.437 214.95L161.552 213.836C161.216 213.717 160.892 213.564 160.586 213.38Z" fill="#E61D55"/>
<path d="M249.083 129.074C248.833 130.128 248.496 131.16 248.077 132.158C247.432 134.036 246.601 136.665 245.903 139.615C245.326 142.144 244.878 144.7 244.561 147.273C244.5 148.354 244.343 149.427 244.091 150.479C243.941 149.398 243.941 148.301 244.091 147.22C244.274 144.604 244.669 142.007 245.272 139.454C245.867 136.903 246.67 134.404 247.674 131.984C248.011 130.955 248.485 129.976 249.083 129.074Z" fill="#E61D55"/>
<path d="M175.615 393.795C175.505 393.492 175.428 393.177 175.387 392.857L174.864 390.174L172.998 380.169C171.388 371.72 168.973 360.051 166.396 347.243C163.82 334.435 161.458 322.727 159.982 314.25C159.231 310.012 158.64 306.579 158.332 304.205C158.171 303.065 158.037 302.153 157.943 301.523C157.88 301.209 157.853 300.89 157.862 300.57C157.961 300.877 158.037 301.191 158.09 301.509C158.211 302.193 158.385 303.105 158.6 304.191C159.056 306.619 159.687 310.026 160.465 314.183C162.076 322.633 164.491 334.301 167.081 347.123C169.671 359.944 172.005 371.639 173.482 380.102C174.233 384.34 174.823 387.774 175.132 390.161C175.293 391.287 175.427 392.199 175.521 392.843C175.573 393.158 175.605 393.476 175.615 393.795Z" fill="white"/>
<g clip-path="url(#clip0_2239_737)">
<path d="M93.1011 405.168C93.1011 405.168 142.101 362.445 127.36 321.085C121.91 305.8 105.06 305.22 83.9851 309.177C83.9939 309.371 84.0026 309.564 84.0026 309.758C84.0026 322.299 74.9217 332.465 63.7324 332.465C52.5343 332.465 43.4621 322.299 43.4621 309.758C43.4621 309.01 43.4971 308.28 43.5583 307.55C25.4664 301.957 -0.534098 300.744 0.935649 340.784C2.03796 370.932 25.9826 396.33 48.6499 409.715C48.6499 409.715 35.5709 423.637 43.4533 428.35C51.3357 433.064 63.7236 416.223 63.7236 416.223C63.7236 416.223 61.1603 437.778 72.5508 436.204C83.9414 434.63 80.1445 416.671 80.1445 416.671C80.1445 416.671 94.0022 428.122 97.799 420.717C101.596 413.303 93.1011 405.168 93.1011 405.168Z" fill="white" stroke="#010202" stroke-width="2" stroke-miterlimit="10" stroke-linecap="round" stroke-linejoin="round"/>
<path d="M83.9946 309.758C83.9946 322.299 74.9137 332.465 63.7156 332.465C52.5175 332.465 43.4453 322.299 43.4453 309.758C43.4453 297.217 52.5262 287.051 63.7243 287.051C74.9224 287.051 83.9946 297.217 83.9946 309.758Z" fill="white"/>
<path d="M63.7243 332.465C74.9241 332.465 84.0033 322.299 84.0033 309.758C84.0033 297.217 74.9241 287.051 63.7243 287.051C52.5245 287.051 43.4453 297.217 43.4453 309.758C43.4453 322.299 52.5245 332.465 63.7243 332.465Z" stroke="#010202" stroke-width="2" stroke-miterlimit="10" stroke-linecap="round" stroke-linejoin="round"/>
<path d="M73.7063 353.66C73.7063 359.033 70.0407 363.386 65.5177 363.386C60.9947 363.386 57.3291 359.033 57.3291 353.66" stroke="#010202" stroke-width="2" stroke-miterlimit="10" stroke-linecap="round" stroke-linejoin="round"/>
<path d="M43.4446 340.785C43.4446 339.052 42.0449 337.645 40.3214 337.645C38.598 337.645 37.1895 339.052 37.1895 340.785C37.1895 342.517 38.5892 343.924 40.3214 343.924C42.0449 343.933 43.4446 342.526 43.4446 340.785Z" fill="#010202"/>
<path d="M97.7991 340.785C97.7991 339.052 96.3994 337.645 94.6759 337.645C92.9525 337.645 91.5439 339.052 91.5439 340.785C91.5439 342.517 92.9437 343.924 94.6759 343.924C96.3994 343.933 97.7991 342.526 97.7991 340.785Z" fill="#010202"/>
<path d="M76.7676 327.127C93.8359 327.567 111.989 328.974 129.862 331.982C129.469 328.385 128.664 324.744 127.36 321.085C126.835 319.608 126.197 318.289 125.462 317.075C115.926 316.248 101.841 315.316 83.4777 314.85C82.4803 319.731 80.0745 324.005 76.7676 327.127Z" fill="#E61D55"/>
<path d="M76.7676 327.127C93.8359 327.567 111.989 328.974 129.862 331.982C129.469 328.385 128.664 324.744 127.36 321.085C126.835 319.608 126.197 318.289 125.462 317.075C115.926 316.248 101.841 315.316 83.4777 314.85C82.4803 319.731 80.0745 324.005 76.7676 327.127Z" stroke="#010202" stroke-width="2" stroke-miterlimit="10" stroke-linecap="round" stroke-linejoin="round"/>
<path d="M43.9347 314.674C32.1243 314.85 19.299 315.237 5.47634 315.905C3.34171 319.643 1.84571 324.506 1.21582 330.724C12.2389 329.404 29.8496 327.707 50.7061 327.153C47.3379 323.996 44.9146 319.643 43.9347 314.674Z" fill="#E61D55"/>
<path d="M43.9347 314.674C32.1243 314.85 19.299 315.237 5.47634 315.905C3.34171 319.643 1.84571 324.506 1.21582 330.724C12.2389 329.404 29.8496 327.707 50.7061 327.153C47.3379 323.996 44.9146 319.643 43.9347 314.674Z" stroke="#010202" stroke-width="2" stroke-miterlimit="10" stroke-linecap="round" stroke-linejoin="round"/>
<path d="M67.5301 309.758C67.5301 312.115 65.8241 314.023 63.7158 314.023C61.6161 314.023 59.9102 312.115 59.9102 309.758C59.9102 307.401 61.6161 305.493 63.7158 305.493C65.8241 305.493 67.5301 307.401 67.5301 309.758Z" stroke="#010202" stroke-width="2" stroke-miterlimit="10" stroke-linecap="round" stroke-linejoin="round"/>
</g>
<defs>
<clipPath id="clip0_2239_737">
<rect width="131" height="151" fill="white" transform="translate(0 286.171)"/>
</clipPath>
</defs>
</svg>
