<svg width="529" height="600" viewBox="0 0 529 600" fill="none" xmlns="http://www.w3.org/2000/svg">
<path d="M303.428 34.0811L322.142 34.7692C342.233 35.5018 357.95 52.3737 357.24 72.4867L354.509 147.677C353.821 166.658 338.703 181.732 320.055 182.709L330.223 555.31C330.267 556.553 330.223 557.974 330.09 559.261C328.38 576.288 313.196 588.72 296.168 587.011C279.141 585.302 266.709 570.117 268.419 553.09L305.581 182.353L298.078 182.087C277.987 181.354 262.269 164.483 263.002 144.347L265.688 69.1567C266.421 49.0659 283.315 33.3707 303.428 34.0811Z" fill="#E61D55"/>
<path d="M252.036 79.4802C249.461 79.3914 247.463 77.2158 247.552 74.6407C247.641 72.0655 249.816 70.0675 252.391 70.1563L295.748 71.7325L295.77 71.0443L261.893 69.8011C259.518 69.7345 257.675 67.7143 257.742 65.3389L257.786 64.6286C257.875 62.2754 259.873 60.4106 262.248 60.4772L296.125 61.7204L296.147 61.0322L252.791 59.456C250.216 59.3672 248.218 57.1916 248.307 54.6165C248.395 52.0413 250.571 50.0433 253.146 50.1321L296.525 51.6861L296.547 51.3975C296.547 51.2643 296.591 51.1311 296.613 50.9757L262.692 49.7325C260.317 49.6659 258.474 47.6457 258.541 45.2704L258.563 44.5378C258.63 42.1624 260.65 40.3198 263.025 40.3864L306.648 41.9626L309.933 42.0958L311.421 42.1624C312.464 42.1846 313.396 42.6286 314.107 43.2502C317.304 44.9373 319.435 48.3117 319.302 52.1745L315.661 152.162C315.505 156.269 312.797 159.688 309.156 160.976C308.446 161.375 307.602 161.597 306.736 161.575L305.604 161.553L302.23 161.464L249.128 159.555C246.553 159.466 244.555 157.29 244.644 154.715C244.733 152.14 246.908 150.142 249.483 150.231L292.884 151.807C292.884 151.674 292.839 151.541 292.862 151.385L292.884 151.097L258.985 149.876C256.632 149.787 254.767 147.789 254.833 145.414L254.878 144.703C254.944 142.328 256.965 140.485 259.34 140.552L293.239 141.773L293.261 141.085L249.905 139.508C247.33 139.42 245.332 137.244 245.421 134.669C245.51 132.094 247.685 130.096 250.26 130.184L293.616 131.761L293.639 131.072L259.762 129.829C257.386 129.763 255.544 127.743 255.61 125.367L255.655 124.657C255.721 122.281 257.742 120.439 260.117 120.505L294.016 121.726L294.038 121.038L250.682 119.462C248.107 119.373 246.109 117.198 246.198 114.622C246.287 112.047 248.462 110.049 251.037 110.138L294.393 111.714L294.416 111.026L260.517 109.805C258.163 109.716 256.299 107.718 256.365 105.343L256.41 104.633C256.476 102.257 258.496 100.415 260.872 100.481L294.749 101.724L294.771 101.036L251.415 99.46C248.839 99.3712 246.841 97.1956 246.93 94.6204C247.019 92.0453 249.195 90.0473 251.77 90.1361L295.126 91.7123L295.148 91.0241L261.249 89.8031C258.874 89.7365 257.031 87.7163 257.098 85.3409L257.142 84.6306C257.231 82.2774 259.229 80.4126 261.604 80.4792L295.481 81.7224L295.503 81.0342L252.036 79.4802Z" fill="white"/>
<path d="M252.036 79.4802C249.461 79.3914 247.463 77.2158 247.552 74.6407C247.641 72.0655 249.816 70.0675 252.391 70.1563L295.748 71.7325L295.77 71.0443L261.893 69.8011C259.518 69.7345 257.675 67.7143 257.742 65.3389L257.786 64.6286C257.875 62.2754 259.873 60.4106 262.248 60.4772L296.125 61.7204L296.147 61.0322L252.791 59.456C250.216 59.3672 248.218 57.1916 248.307 54.6165C248.395 52.0413 250.571 50.0433 253.146 50.1321L296.525 51.6861L296.547 51.3975C296.547 51.2643 296.591 51.1311 296.613 50.9757L262.692 49.7325C260.317 49.6659 258.474 47.6457 258.541 45.2704L258.563 44.5378C258.63 42.1624 260.65 40.3198 263.025 40.3864L306.648 41.9626L309.933 42.0958L311.421 42.1624C312.464 42.1846 313.396 42.6286 314.107 43.2502C317.304 44.9373 319.435 48.3117 319.302 52.1745L315.661 152.162C315.505 156.269 312.797 159.688 309.156 160.976C308.446 161.375 307.602 161.597 306.736 161.575L305.604 161.553L302.23 161.464L249.128 159.555C246.553 159.466 244.555 157.29 244.644 154.715C244.733 152.14 246.908 150.142 249.483 150.231L292.884 151.807C292.884 151.674 292.839 151.541 292.862 151.385L292.884 151.097L258.985 149.876C256.632 149.787 254.767 147.789 254.833 145.414L254.878 144.703C254.944 142.328 256.965 140.485 259.34 140.552L293.239 141.773L293.261 141.085L249.905 139.508C247.33 139.42 245.332 137.244 245.421 134.669C245.51 132.094 247.685 130.096 250.26 130.184L293.616 131.761L293.639 131.072L259.762 129.829C257.386 129.763 255.544 127.743 255.61 125.367L255.655 124.657C255.721 122.281 257.742 120.439 260.117 120.505L294.016 121.726L294.038 121.038L250.682 119.462C248.107 119.373 246.109 117.198 246.198 114.622C246.286 112.047 248.462 110.049 251.037 110.138L294.393 111.714L294.416 111.026L260.517 109.805C258.163 109.716 256.299 107.718 256.365 105.343L256.41 104.633C256.476 102.257 258.496 100.415 260.872 100.481L294.749 101.724L294.771 101.036L251.415 99.46C248.839 99.3712 246.841 97.1956 246.93 94.6204C247.019 92.0453 249.195 90.0473 251.77 90.1361L295.126 91.7123L295.148 91.0241L261.249 89.8031C258.874 89.7365 257.031 87.7163 257.098 85.3409L257.142 84.6306C257.231 82.2774 259.229 80.4126 261.604 80.4792L295.481 81.7224L295.503 81.0342L252.036 79.4802Z" stroke="#E61D53" stroke-width="0.776" stroke-miterlimit="10" stroke-linecap="round" stroke-linejoin="round"/>
<path d="M269.951 80.1241C267.376 80.0353 265.378 77.8597 265.467 75.2845C265.556 72.7093 267.731 70.7114 270.306 70.8002L313.663 72.3763L313.685 71.6881L279.786 70.4672C277.41 70.4006 275.568 68.3804 275.634 66.005L275.679 65.2946C275.768 62.9414 277.766 61.0767 280.141 61.1433L314.018 62.3864L314.04 61.6982L270.684 60.1221C268.109 60.0333 266.111 57.8577 266.2 55.2825C266.288 52.7073 268.464 50.7094 271.039 50.7982L314.417 52.3521L314.44 52.0635C314.44 51.9303 314.484 51.7971 314.506 51.6417L280.585 50.3986C278.21 50.332 276.367 48.3118 276.434 45.9364L276.478 45.226C276.545 42.8506 278.565 41.008 280.94 41.0746L324.563 42.6508L327.848 42.784L329.336 42.8506C330.379 42.8728 331.311 43.3168 332.022 43.9384C335.219 45.6256 337.35 49 337.217 52.8627L333.576 152.851C333.42 156.957 330.712 160.376 327.071 161.664C326.361 162.063 325.517 162.285 324.652 162.263L323.519 162.241L320.234 162.108L267.043 160.199C264.468 160.11 262.47 157.934 262.559 155.359C262.648 152.784 264.823 150.786 267.398 150.875L310.799 152.451C310.799 152.318 310.754 152.185 310.777 152.029L310.799 151.741L276.9 150.52C274.547 150.431 272.682 148.433 272.748 146.057L272.793 145.347C272.859 142.972 274.88 141.129 277.255 141.196L311.154 142.417L311.176 141.728L267.82 140.152C265.245 140.063 263.247 137.888 263.336 135.313C263.425 132.738 265.6 130.74 268.175 130.828L311.531 132.405L311.554 131.716L277.677 130.473C275.301 130.407 273.459 128.386 273.525 126.011L273.57 125.301C273.636 122.925 275.657 121.083 278.032 121.149L311.931 122.37L311.953 121.682L268.597 120.106C266.022 120.017 264.024 117.841 264.113 115.266C264.202 112.691 266.377 110.693 268.952 110.782L312.308 112.358L312.331 111.67L278.432 110.449C276.078 110.36 274.214 108.362 274.28 105.987L274.325 105.276C274.391 102.901 276.411 101.058 278.787 101.125L312.664 102.368L312.686 101.68L269.33 100.104C266.755 100.015 264.757 97.8395 264.845 95.2643C264.934 92.6891 267.11 90.6912 269.685 90.78L313.041 92.3561L313.063 91.6679L279.164 90.447C276.789 90.3804 274.946 88.3602 275.013 85.9848L275.057 85.2744C275.146 82.9212 277.144 81.0565 279.519 81.1231L313.396 82.3662L313.418 81.678L269.951 80.1241Z" fill="white"/>
<path d="M269.951 80.1241C267.376 80.0353 265.378 77.8597 265.467 75.2845C265.556 72.7093 267.731 70.7114 270.306 70.8002L313.663 72.3763L313.685 71.6881L279.786 70.4672C277.41 70.4006 275.568 68.3804 275.634 66.005L275.679 65.2946C275.768 62.9414 277.766 61.0767 280.141 61.1433L314.018 62.3864L314.04 61.6982L270.684 60.1221C268.109 60.0333 266.111 57.8577 266.2 55.2825C266.288 52.7073 268.464 50.7094 271.039 50.7982L314.417 52.3521L314.44 52.0635C314.44 51.9303 314.484 51.7971 314.506 51.6417L280.585 50.3986C278.21 50.332 276.367 48.3118 276.434 45.9364L276.478 45.226C276.545 42.8506 278.565 41.008 280.94 41.0746L324.563 42.6508L327.848 42.784L329.336 42.8506C330.379 42.8728 331.311 43.3168 332.022 43.9384C335.219 45.6256 337.35 49 337.217 52.8627L333.576 152.851C333.42 156.957 330.712 160.376 327.071 161.664C326.361 162.063 325.517 162.285 324.652 162.263L323.519 162.241L320.234 162.108L267.043 160.199C264.468 160.11 262.47 157.934 262.559 155.359C262.648 152.784 264.823 150.786 267.398 150.875L310.799 152.451C310.799 152.318 310.754 152.185 310.777 152.029L310.799 151.741L276.9 150.52C274.547 150.431 272.682 148.433 272.748 146.057L272.793 145.347C272.859 142.972 274.88 141.129 277.255 141.196L311.154 142.417L311.176 141.728L267.82 140.152C265.245 140.063 263.247 137.888 263.336 135.313C263.425 132.738 265.6 130.74 268.175 130.828L311.531 132.405L311.554 131.716L277.677 130.473C275.301 130.407 273.459 128.386 273.525 126.011L273.57 125.301C273.636 122.925 275.657 121.083 278.032 121.149L311.931 122.37L311.953 121.682L268.597 120.106C266.022 120.017 264.024 117.841 264.113 115.266C264.202 112.691 266.377 110.693 268.952 110.782L312.308 112.358L312.331 111.67L278.432 110.449C276.078 110.36 274.214 108.362 274.28 105.987L274.325 105.276C274.391 102.901 276.411 101.058 278.787 101.125L312.664 102.368L312.686 101.68L269.33 100.104C266.755 100.015 264.757 97.8395 264.845 95.2643C264.934 92.6891 267.11 90.6912 269.685 90.78L313.041 92.3561L313.063 91.6679L279.164 90.447C276.789 90.3804 274.946 88.3602 275.013 85.9848L275.057 85.2744C275.146 82.9212 277.144 81.0565 279.519 81.1231L313.396 82.3662L313.418 81.678L269.951 80.1241Z" stroke="#E61D53" stroke-width="0.776" stroke-miterlimit="10" stroke-linecap="round" stroke-linejoin="round"/>
</svg>
