<svg width="314" height="66" viewBox="0 0 314 66" fill="none" xmlns="http://www.w3.org/2000/svg">
<path d="M177.979 32.9988C177.979 32.1205 178.668 31.4304 179.545 31.4304L249.121 31.4304C249.998 31.4304 250.687 32.1205 250.687 32.9988C250.687 33.8771 249.998 34.5672 249.121 34.5672L179.545 34.5672C178.668 34.63 177.979 33.8771 177.979 32.9988Z" fill="#221F1F"/>
<path d="M1.56549 32.9993C1.56549 21.3304 11.0218 11.9199 22.6074 11.9199L184.993 11.9199L184.993 54.1415L22.6074 54.1415C10.9592 54.1415 1.56549 44.6683 1.56549 32.9993Z" fill="#E61D55"/>
<path d="M-0.000458921 36.8258L-0.000458589 29.2347C-0.000458134 18.8205 8.45386 10.3511 18.8496 10.3511L185.055 10.3511C185.932 10.3511 186.621 11.0412 186.621 11.9195L186.621 54.141C186.621 55.0194 185.932 55.7095 185.055 55.7095L18.8496 55.7094C8.45386 55.7094 -0.000459376 47.24 -0.000458921 36.8258ZM183.427 13.4879L18.7869 13.4879C10.1447 13.4879 3.13078 20.5144 3.13078 29.172L3.13078 36.8258C3.13078 45.4834 10.1447 52.5099 18.7869 52.5099L183.427 52.5099L183.427 13.4879Z" fill="#E61D55"/>
<path d="M248.056 32.9993C248.056 14.8058 262.836 -2.23647e-06 281.059 -1.43988e-06C299.221 -6.46029e-07 314 14.8058 314 32.9993C314 51.1929 299.221 65.9986 281.059 65.9986C262.836 66.0614 248.056 51.2556 248.056 32.9993ZM310.869 32.9993C310.869 16.5624 297.467 3.13682 281.059 3.13682C264.652 3.13682 251.25 16.5624 251.25 32.9993C251.25 49.4362 264.652 62.8618 281.059 62.8618C297.467 62.8618 310.869 49.499 310.869 32.9993Z" fill="#221F1F"/>
<path d="M13.8264 46.6C13.793 45.9833 13.7597 45.225 13.7264 44.325C13.7097 43.425 13.7014 42.5 13.7014 41.55C13.7014 40.3667 13.7097 39.3917 13.7264 38.625C13.743 37.8583 13.7847 37.25 13.8514 36.8C13.9347 36.35 14.0597 36.0417 14.2264 35.875C14.393 35.6917 14.6264 35.6 14.9264 35.6C15.2097 35.6 15.4597 35.7 15.6764 35.9C15.893 36.1 16.018 36.5333 16.0514 37.2C16.068 37.6333 16.0847 38.025 16.1014 38.375C16.1347 38.725 16.1514 39.0667 16.1514 39.4C16.168 39.7333 16.1764 40.0667 16.1764 40.4C16.193 40.7333 16.2014 41.1083 16.2014 41.525C16.2014 42.3583 16.1847 43.1917 16.1514 44.025C16.118 44.8583 16.0847 45.7083 16.0514 46.575C16.0347 46.975 15.993 47.2833 15.9264 47.5C15.8764 47.7167 15.8014 47.8833 15.7014 48C15.6014 48.1167 15.4847 48.1833 15.3514 48.2C15.2347 48.2333 15.093 48.25 14.9264 48.25C14.6264 48.25 14.3764 48.1417 14.1764 47.925C13.9764 47.725 13.8597 47.2833 13.8264 46.6ZM14.9264 32.15C14.5264 32.15 14.168 32.0083 13.8514 31.725C13.5514 31.425 13.4014 31.075 13.4014 30.675C13.4014 30.2417 13.5514 29.8833 13.8514 29.6C14.168 29.3 14.5014 29.15 14.8514 29.15C15.268 29.15 15.643 29.3 15.9764 29.6C16.3097 29.8833 16.4764 30.225 16.4764 30.625C16.4764 31.0417 16.3097 31.4 15.9764 31.7C15.6597 32 15.3097 32.15 14.9264 32.15ZM23.7428 40.45C23.7094 39.5333 23.6761 38.5583 23.6428 37.525C23.6261 36.475 23.6178 35.2667 23.6178 33.9L18.6428 26.775C18.5094 26.5917 18.4011 26.4 18.3178 26.2C18.2511 26 18.2178 25.8083 18.2178 25.625C18.2178 25.3083 18.3011 25.05 18.4678 24.85C18.6511 24.6333 18.9594 24.525 19.3928 24.525C19.7428 24.525 20.0511 24.625 20.3178 24.825C20.6011 25.0083 20.8594 25.2833 21.0928 25.65L24.8178 31.575L28.5428 25.65C28.7761 25.2833 29.0261 25.0083 29.2928 24.825C29.5761 24.625 29.8928 24.525 30.2428 24.525C30.6761 24.525 30.9761 24.6333 31.1428 24.85C31.3261 25.05 31.4178 25.3083 31.4178 25.625C31.4178 25.8083 31.3761 26 31.2928 26.2C31.2261 26.4 31.1261 26.5917 30.9928 26.775L26.1178 33.75C26.1178 34.8833 26.1011 35.975 26.0678 37.025C26.0511 38.0583 26.0178 39.1917 25.9678 40.425C25.9511 40.825 25.9094 41.1333 25.8428 41.35C25.7928 41.5667 25.7178 41.7333 25.6178 41.85C25.5178 41.9667 25.4011 42.0333 25.2678 42.05C25.1511 42.0833 25.0094 42.1 24.8428 42.1C24.5428 42.1 24.2928 42 24.0928 41.8C23.8928 41.5833 23.7761 41.1333 23.7428 40.45ZM45.3514 37.75C44.5847 36.0667 43.9014 34.4417 43.3014 32.875C42.718 31.2917 42.218 29.8833 41.8014 28.65C41.418 30.7167 41.093 32.8 40.8264 34.9C40.5764 37 40.2514 39.0083 39.8514 40.925C39.7514 41.3583 39.568 41.65 39.3014 41.8C39.0347 41.9333 38.8097 42 38.6264 42C38.3264 42 38.0847 41.9083 37.9014 41.725C37.7347 41.5417 37.6514 41.3083 37.6514 41.025C37.6514 40.6417 37.693 40.0583 37.7764 39.275C37.8764 38.475 37.993 37.575 38.1264 36.575C38.2764 35.575 38.443 34.525 38.6264 33.425C38.8097 32.325 38.993 31.2667 39.1764 30.25C39.3764 29.2167 39.5597 28.2833 39.7264 27.45C39.9097 26.6167 40.068 25.975 40.2014 25.525C40.418 24.7583 40.8597 24.375 41.5264 24.375C41.9264 24.375 42.268 24.575 42.5514 24.975C42.8347 25.3583 43.1347 25.9583 43.4514 26.775C43.7847 27.575 44.1764 28.5917 44.6264 29.825C45.093 31.0583 45.693 32.5083 46.4264 34.175C47.143 32.5083 47.718 31.0667 48.1514 29.85C48.6014 28.6167 48.9764 27.6 49.2764 26.8C49.593 25.9833 49.893 25.3833 50.1764 25C50.4597 24.6 50.8097 24.4 51.2264 24.4C51.6097 24.4 51.9014 24.5 52.1014 24.7C52.3014 24.8833 52.4514 25.1667 52.5514 25.55C52.668 26.0167 52.8097 26.6667 52.9764 27.5C53.143 28.3167 53.318 29.2333 53.5014 30.25C53.7014 31.25 53.893 32.3 54.0764 33.4C54.2597 34.5 54.4264 35.55 54.5764 36.55C54.7264 37.55 54.843 38.4583 54.9264 39.275C55.0264 40.075 55.0764 40.6917 55.0764 41.125C55.0764 41.3917 54.9847 41.6083 54.8014 41.775C54.618 41.925 54.3847 42 54.1014 42C53.918 42 53.693 41.9333 53.4264 41.8C53.1597 41.65 52.9764 41.3583 52.8764 40.925C52.6764 39.975 52.493 38.9917 52.3264 37.975C52.1764 36.9583 52.0264 35.9333 51.8764 34.9C51.743 33.85 51.6097 32.8083 51.4764 31.775C51.343 30.725 51.2014 29.6833 51.0514 28.65C50.8347 29.3167 50.5847 30.05 50.3014 30.85C50.018 31.65 49.718 32.4583 49.4014 33.275C49.0847 34.075 48.7597 34.8667 48.4264 35.65C48.093 36.4333 47.768 37.1417 47.4514 37.775C47.3347 37.9917 47.1764 38.1583 46.9764 38.275C46.793 38.375 46.6014 38.425 46.4014 38.425C46.1847 38.425 45.9764 38.375 45.7764 38.275C45.593 38.1583 45.4514 37.9833 45.3514 37.75ZM63.109 42.425C61.209 42.425 59.8173 41.9083 58.934 40.875C58.584 40.475 58.284 39.9667 58.034 39.35C57.8007 38.7167 57.609 37.9 57.459 36.9C57.3257 35.9 57.2257 34.6667 57.159 33.2C57.109 31.7167 57.084 29.9167 57.084 27.8C57.084 27.1167 57.1007 26.5583 57.134 26.125C57.1673 25.675 57.234 25.325 57.334 25.075C57.434 24.8083 57.559 24.625 57.709 24.525C57.8757 24.425 58.084 24.375 58.334 24.375C58.8173 24.375 59.159 24.5917 59.359 25.025C59.559 25.4583 59.659 26.2083 59.659 27.275C59.659 27.6417 59.6507 27.9667 59.634 28.25C59.634 28.5333 59.634 28.825 59.634 29.125C59.634 29.4083 59.6257 29.725 59.609 30.075C59.609 30.425 59.609 30.85 59.609 31.35C59.609 33.0167 59.659 34.4 59.759 35.5C59.8757 36.6 60.0673 37.4833 60.334 38.15C60.6007 38.8 60.959 39.2583 61.409 39.525C61.8757 39.7917 62.4507 39.925 63.134 39.925C63.8507 39.925 64.4423 39.7833 64.909 39.5C65.3923 39.2 65.7757 38.7083 66.059 38.025C66.3423 37.325 66.5423 36.4 66.659 35.25C66.7923 34.1 66.859 32.6667 66.859 30.95C66.859 30.2 66.8507 29.5583 66.834 29.025C66.834 28.4917 66.834 28.0083 66.834 27.575C66.834 26.9583 66.8507 26.4417 66.884 26.025C66.934 25.6083 67.0007 25.2833 67.084 25.05C67.184 24.8 67.3173 24.625 67.484 24.525C67.6507 24.425 67.859 24.375 68.109 24.375C68.359 24.375 68.5673 24.425 68.734 24.525C68.9007 24.625 69.034 24.8 69.134 25.05C69.234 25.3 69.3007 25.65 69.334 26.1C69.3673 26.5333 69.384 27.1 69.384 27.8C69.384 30.7333 69.2923 33.15 69.109 35.05C68.9257 36.9333 68.6007 38.425 68.134 39.525C67.6673 40.6083 67.0257 41.3667 66.209 41.8C65.409 42.2167 64.3757 42.425 63.109 42.425ZM79.6666 24.3C80.2166 24.3 80.7666 24.35 81.3166 24.45C81.8833 24.5333 82.3916 24.675 82.8416 24.875C83.2916 25.0583 83.6583 25.2917 83.9416 25.575C84.2416 25.8417 84.3916 26.1583 84.3916 26.525C84.3916 26.9083 84.2916 27.2 84.0916 27.4C83.8916 27.6 83.6416 27.7 83.3416 27.7C83.0583 27.7 82.8083 27.6583 82.5916 27.575C82.3749 27.475 82.1249 27.3667 81.8416 27.25C81.5749 27.1333 81.2499 27.0333 80.8666 26.95C80.4833 26.85 79.9749 26.8 79.3416 26.8C78.7083 26.8 78.0999 26.9667 77.5166 27.3C76.9499 27.6167 76.4499 28.0667 76.0166 28.65C75.5999 29.2167 75.2666 29.8917 75.0166 30.675C74.7666 31.4583 74.6416 32.3083 74.6416 33.225C74.6416 34.3583 74.7833 35.3333 75.0666 36.15C75.3666 36.9667 75.7499 37.6417 76.2166 38.175C76.6833 38.6917 77.2083 39.0833 77.7916 39.35C78.3916 39.6 78.9916 39.725 79.5916 39.725C80.3083 39.725 80.9083 39.65 81.3916 39.5C81.8749 39.35 82.2833 39.1833 82.6166 39C82.9666 38.8167 83.2666 38.65 83.5166 38.5C83.7666 38.35 84.0083 38.275 84.2416 38.275C84.5249 38.275 84.7499 38.3583 84.9166 38.525C85.0833 38.675 85.1666 38.95 85.1666 39.35C85.1666 39.6833 85.0333 40.025 84.7666 40.375C84.5166 40.7083 84.1416 41.0167 83.6416 41.3C83.1583 41.5667 82.5749 41.7917 81.8916 41.975C81.2083 42.1417 80.4416 42.225 79.5916 42.225C78.6583 42.225 77.7249 42.0417 76.7916 41.675C75.8749 41.3083 75.0499 40.7667 74.3166 40.05C73.5999 39.3167 73.0166 38.4083 72.5666 37.325C72.1166 36.225 71.8916 34.95 71.8916 33.5C71.8916 32.05 72.0916 30.7583 72.4916 29.625C72.9083 28.4917 73.4666 27.5333 74.1666 26.75C74.8833 25.95 75.7083 25.3417 76.6416 24.925C77.5916 24.5083 78.5999 24.3 79.6666 24.3ZM97.2324 40.45C97.1991 39.55 97.1658 38.6083 97.1324 37.625C97.1158 36.625 97.1074 35.475 97.1074 34.175C96.5741 34.1917 96.0074 34.2083 95.4074 34.225C94.8074 34.225 94.1908 34.225 93.5574 34.225C92.8074 34.225 92.1241 34.225 91.5074 34.225C90.8908 34.225 90.3408 34.2167 89.8574 34.2C89.8408 35.25 89.8241 36.2667 89.8074 37.25C89.7908 38.2167 89.7574 39.275 89.7074 40.425C89.6908 40.825 89.6491 41.1333 89.5824 41.35C89.5324 41.5667 89.4574 41.7333 89.3574 41.85C89.2574 41.9667 89.1408 42.0333 89.0074 42.05C88.8908 42.0833 88.7491 42.1 88.5824 42.1C88.2824 42.1 88.0324 42 87.8324 41.8C87.6324 41.5833 87.5158 41.1333 87.4824 40.45C87.4491 39.85 87.4241 39.225 87.4074 38.575C87.4074 37.925 87.3991 37.225 87.3824 36.475C87.3658 35.725 87.3574 34.9167 87.3574 34.05C87.3574 33.1667 87.3574 32.1833 87.3574 31.1C87.3574 29.9167 87.3658 28.9083 87.3824 28.075C87.3991 27.225 87.4408 26.5333 87.5074 26C87.5908 25.4667 87.7158 25.075 87.8824 24.825C88.0491 24.575 88.2824 24.45 88.5824 24.45C88.8658 24.45 89.1158 24.5417 89.3324 24.725C89.5491 24.9083 89.6741 25.3333 89.7074 26C89.7408 26.5667 89.7658 27.0833 89.7824 27.55C89.7991 28 89.8158 28.45 89.8324 28.9C89.8491 29.3333 89.8574 29.7833 89.8574 30.25C89.8574 30.7167 89.8574 31.2333 89.8574 31.8C91.1074 31.75 92.3324 31.725 93.5324 31.725C94.1158 31.725 94.6991 31.7333 95.2824 31.75C95.8824 31.7667 96.4908 31.7917 97.1074 31.825V31.1C97.1074 29.9167 97.1158 28.9083 97.1324 28.075C97.1491 27.225 97.1908 26.5333 97.2574 26C97.3408 25.4667 97.4658 25.075 97.6324 24.825C97.7991 24.575 98.0324 24.45 98.3324 24.45C98.6158 24.45 98.8658 24.5417 99.0824 24.725C99.2991 24.9083 99.4241 25.3333 99.4574 26C99.4908 26.6 99.5158 27.1333 99.5324 27.6C99.5491 28.0667 99.5658 28.5333 99.5824 29C99.5991 29.45 99.6074 29.925 99.6074 30.425C99.6074 30.9083 99.6074 31.4583 99.6074 32.075C99.6074 32.825 99.6074 33.5417 99.6074 34.225C99.6074 34.9083 99.5991 35.5833 99.5824 36.25C99.5658 36.9167 99.5491 37.5917 99.5324 38.275C99.5158 38.9583 99.4908 39.675 99.4574 40.425C99.4408 40.825 99.3991 41.1333 99.3324 41.35C99.2824 41.5667 99.2074 41.7333 99.1074 41.85C99.0074 41.9667 98.8908 42.0333 98.7574 42.05C98.6408 42.0833 98.4991 42.1 98.3324 42.1C98.0324 42.1 97.7824 42 97.5824 41.8C97.3824 41.5833 97.2658 41.1333 97.2324 40.45ZM109.316 42.25C108.316 42.25 107.375 42.05 106.491 41.65C105.625 41.25 104.866 40.675 104.216 39.925C103.566 39.1583 103.05 38.225 102.666 37.125C102.3 36.025 102.116 34.775 102.116 33.375C102.116 32.0583 102.275 30.85 102.591 29.75C102.925 28.65 103.408 27.7 104.041 26.9C104.691 26.1 105.491 25.4833 106.441 25.05C107.391 24.6 108.491 24.375 109.741 24.375C110.758 24.375 111.725 24.5583 112.641 24.925C113.558 25.2917 114.358 25.8417 115.041 26.575C115.741 27.3083 116.291 28.225 116.691 29.325C117.091 30.425 117.291 31.7083 117.291 33.175C117.291 34.3917 117.125 35.55 116.791 36.65C116.475 37.75 115.983 38.7167 115.316 39.55C114.666 40.3667 113.841 41.025 112.841 41.525C111.841 42.0083 110.666 42.25 109.316 42.25ZM109.366 39.9C110.283 39.9 111.083 39.7167 111.766 39.35C112.45 38.9667 113.016 38.4667 113.466 37.85C113.916 37.2333 114.25 36.525 114.466 35.725C114.683 34.9083 114.791 34.075 114.791 33.225C114.791 32.1917 114.65 31.275 114.366 30.475C114.1 29.6583 113.733 28.975 113.266 28.425C112.8 27.875 112.258 27.4583 111.641 27.175C111.025 26.875 110.366 26.725 109.666 26.725C108.833 26.725 108.1 26.9 107.466 27.25C106.85 27.6 106.325 28.075 105.891 28.675C105.475 29.275 105.158 29.9833 104.941 30.8C104.725 31.6 104.616 32.4583 104.616 33.375C104.616 34.3583 104.741 35.2583 104.991 36.075C105.241 36.875 105.575 37.5583 105.991 38.125C106.425 38.6917 106.933 39.1333 107.516 39.45C108.1 39.75 108.716 39.9 109.366 39.9ZM131.704 37.75C130.937 36.0667 130.254 34.4417 129.654 32.875C129.071 31.2917 128.571 29.8833 128.154 28.65C127.771 30.7167 127.446 32.8 127.179 34.9C126.929 37 126.604 39.0083 126.204 40.925C126.104 41.3583 125.921 41.65 125.654 41.8C125.387 41.9333 125.162 42 124.979 42C124.679 42 124.437 41.9083 124.254 41.725C124.087 41.5417 124.004 41.3083 124.004 41.025C124.004 40.6417 124.046 40.0583 124.129 39.275C124.229 38.475 124.346 37.575 124.479 36.575C124.629 35.575 124.796 34.525 124.979 33.425C125.162 32.325 125.346 31.2667 125.529 30.25C125.729 29.2167 125.912 28.2833 126.079 27.45C126.262 26.6167 126.421 25.975 126.554 25.525C126.771 24.7583 127.212 24.375 127.879 24.375C128.279 24.375 128.621 24.575 128.904 24.975C129.187 25.3583 129.487 25.9583 129.804 26.775C130.137 27.575 130.529 28.5917 130.979 29.825C131.446 31.0583 132.046 32.5083 132.779 34.175C133.496 32.5083 134.071 31.0667 134.504 29.85C134.954 28.6167 135.329 27.6 135.629 26.8C135.946 25.9833 136.246 25.3833 136.529 25C136.812 24.6 137.162 24.4 137.579 24.4C137.962 24.4 138.254 24.5 138.454 24.7C138.654 24.8833 138.804 25.1667 138.904 25.55C139.021 26.0167 139.162 26.6667 139.329 27.5C139.496 28.3167 139.671 29.2333 139.854 30.25C140.054 31.25 140.246 32.3 140.429 33.4C140.612 34.5 140.779 35.55 140.929 36.55C141.079 37.55 141.196 38.4583 141.279 39.275C141.379 40.075 141.429 40.6917 141.429 41.125C141.429 41.3917 141.337 41.6083 141.154 41.775C140.971 41.925 140.737 42 140.454 42C140.271 42 140.046 41.9333 139.779 41.8C139.512 41.65 139.329 41.3583 139.229 40.925C139.029 39.975 138.846 38.9917 138.679 37.975C138.529 36.9583 138.379 35.9333 138.229 34.9C138.096 33.85 137.962 32.8083 137.829 31.775C137.696 30.725 137.554 29.6833 137.404 28.65C137.187 29.3167 136.937 30.05 136.654 30.85C136.371 31.65 136.071 32.4583 135.754 33.275C135.437 34.075 135.112 34.8667 134.779 35.65C134.446 36.4333 134.121 37.1417 133.804 37.775C133.687 37.9917 133.529 38.1583 133.329 38.275C133.146 38.375 132.954 38.425 132.754 38.425C132.537 38.425 132.329 38.375 132.129 38.275C131.946 38.1583 131.804 37.9833 131.704 37.75ZM154.034 40.725C153.867 40.325 153.684 39.8667 153.484 39.35C153.3 38.8167 153.1 38.2583 152.884 37.675C152.384 37.6917 151.859 37.7083 151.309 37.725C150.759 37.725 150.2 37.725 149.634 37.725C148.917 37.725 148.267 37.725 147.684 37.725C147.1 37.725 146.567 37.7167 146.084 37.7C145.884 38.2833 145.692 38.8333 145.509 39.35C145.325 39.8667 145.15 40.325 144.984 40.725C144.65 41.575 144.167 42 143.534 42C143.3 42 143.075 41.925 142.859 41.775C142.659 41.625 142.559 41.4083 142.559 41.125C142.559 40.8417 142.609 40.475 142.709 40.025C142.809 39.5583 142.934 39.0667 143.084 38.55C143.25 38.0167 143.425 37.475 143.609 36.925C143.792 36.3583 143.967 35.8333 144.134 35.35C144.3 34.8167 144.534 34.1417 144.834 33.325C145.15 32.4917 145.484 31.625 145.834 30.725C146.184 29.825 146.534 28.9417 146.884 28.075C147.234 27.1917 147.55 26.425 147.834 25.775C147.9 25.6083 147.984 25.425 148.084 25.225C148.184 25.0083 148.3 24.8083 148.434 24.625C148.584 24.4417 148.742 24.2833 148.909 24.15C149.092 24.0167 149.292 23.95 149.509 23.95C149.725 23.95 149.925 24.025 150.109 24.175C150.292 24.3083 150.45 24.475 150.584 24.675C150.734 24.875 150.859 25.0833 150.959 25.3C151.075 25.5167 151.167 25.7083 151.234 25.875C151.5 26.5417 151.8 27.3083 152.134 28.175C152.484 29.0417 152.825 29.9167 153.159 30.8C153.509 31.6833 153.834 32.525 154.134 33.325C154.434 34.125 154.675 34.8 154.859 35.35C155.009 35.8333 155.175 36.35 155.359 36.9C155.559 37.45 155.742 37.9917 155.909 38.525C156.075 39.0583 156.209 39.5583 156.309 40.025C156.425 40.475 156.484 40.8417 156.484 41.125C156.484 41.4083 156.375 41.625 156.159 41.775C155.959 41.925 155.742 42 155.509 42C155.209 42 154.934 41.9 154.684 41.7C154.434 41.4833 154.217 41.1583 154.034 40.725ZM149.609 35.225C150.009 35.225 150.409 35.2333 150.809 35.25C151.209 35.25 151.609 35.2583 152.009 35.275C151.809 34.6917 151.609 34.1083 151.409 33.525C151.209 32.9417 151.017 32.3833 150.834 31.85C150.667 31.3167 150.509 30.825 150.359 30.375C150.225 29.9083 150.109 29.5 150.009 29.15C149.942 28.9333 149.867 28.7583 149.784 28.625C149.7 28.4917 149.592 28.425 149.459 28.425C149.325 28.425 149.217 28.5 149.134 28.65C149.05 28.7833 148.975 28.9583 148.909 29.175C148.709 29.8583 148.425 30.75 148.059 31.85C147.709 32.9333 147.334 34.075 146.934 35.275C147.384 35.2583 147.834 35.25 148.284 35.25C148.734 35.2333 149.175 35.225 149.609 35.225ZM148.009 22.6C147.825 22.5667 147.642 22.5083 147.459 22.425C147.292 22.325 147.209 22.15 147.209 21.9C147.225 21.7 147.342 21.4667 147.559 21.2C147.792 20.9333 148.075 20.6667 148.409 20.4C148.742 20.1167 149.117 19.85 149.534 19.6C149.95 19.3333 150.359 19.1 150.759 18.9C151.175 18.7 151.559 18.5417 151.909 18.425C152.259 18.2917 152.542 18.225 152.759 18.225C153.042 18.225 153.284 18.3083 153.484 18.475C153.7 18.6417 153.809 18.8833 153.809 19.2C153.809 19.4 153.7 19.625 153.484 19.875C153.267 20.1083 152.984 20.35 152.634 20.6C152.284 20.85 151.892 21.1 151.459 21.35C151.025 21.5833 150.592 21.7917 150.159 21.975C149.742 22.1583 149.342 22.3083 148.959 22.425C148.575 22.5417 148.259 22.6 148.009 22.6ZM164.331 24.35C164.798 24.35 165.331 24.3917 165.931 24.475C166.548 24.5417 167.123 24.675 167.656 24.875C168.19 25.0583 168.64 25.3083 169.006 25.625C169.373 25.925 169.556 26.3 169.556 26.75C169.556 27.0167 169.481 27.2417 169.331 27.425C169.181 27.6083 168.94 27.7 168.606 27.7C168.356 27.7 168.098 27.65 167.831 27.55C167.581 27.45 167.29 27.35 166.956 27.25C166.64 27.1333 166.265 27.025 165.831 26.925C165.415 26.825 164.923 26.775 164.356 26.775C163.256 26.775 162.44 26.975 161.906 27.375C161.39 27.7583 161.131 28.2917 161.131 28.975C161.131 29.4417 161.248 29.8333 161.481 30.15C161.715 30.4667 162.023 30.7417 162.406 30.975C162.806 31.1917 163.248 31.375 163.731 31.525C164.231 31.675 164.74 31.8167 165.256 31.95C165.84 32.1 166.415 32.2833 166.981 32.5C167.565 32.7167 168.081 33 168.531 33.35C168.981 33.7 169.34 34.1417 169.606 34.675C169.89 35.2083 170.031 35.8833 170.031 36.7C170.031 37.55 169.873 38.3167 169.556 39C169.24 39.6667 168.806 40.2417 168.256 40.725C167.706 41.1917 167.048 41.5583 166.281 41.825C165.515 42.075 164.681 42.2 163.781 42.2C163.281 42.2 162.698 42.15 162.031 42.05C161.365 41.9667 160.731 41.8167 160.131 41.6C159.531 41.3667 159.023 41.0667 158.606 40.7C158.19 40.3167 157.981 39.85 157.981 39.3C157.981 38.9667 158.065 38.7 158.231 38.5C158.415 38.3 158.681 38.2 159.031 38.2C159.315 38.2 159.548 38.2583 159.731 38.375C159.915 38.475 160.073 38.5917 160.206 38.725C160.706 39.1583 161.273 39.45 161.906 39.6C162.54 39.75 163.19 39.825 163.856 39.825C164.24 39.825 164.64 39.8 165.056 39.75C165.49 39.6833 165.881 39.5583 166.231 39.375C166.581 39.1917 166.873 38.9333 167.106 38.6C167.34 38.25 167.456 37.7833 167.456 37.2C167.456 36.6667 167.348 36.2333 167.131 35.9C166.931 35.55 166.656 35.2583 166.306 35.025C165.956 34.7917 165.54 34.6 165.056 34.45C164.59 34.3 164.081 34.15 163.531 34C162.915 33.8333 162.306 33.65 161.706 33.45C161.106 33.25 160.573 32.9833 160.106 32.65C159.64 32.3 159.256 31.8667 158.956 31.35C158.673 30.8167 158.531 30.1417 158.531 29.325C158.531 28.5083 158.681 27.7917 158.981 27.175C159.281 26.5583 159.69 26.0417 160.206 25.625C160.723 25.2083 161.331 24.8917 162.031 24.675C162.748 24.4583 163.515 24.35 164.331 24.35ZM172.957 24.8C172.991 24.1167 173.107 23.675 173.307 23.475C173.507 23.2583 173.757 23.15 174.057 23.15C174.224 23.15 174.366 23.1667 174.482 23.2C174.616 23.2167 174.732 23.2833 174.832 23.4C174.932 23.5167 175.007 23.6833 175.057 23.9C175.124 24.1167 175.166 24.425 175.182 24.825C175.216 25.6917 175.249 26.5417 175.282 27.375C175.316 28.2083 175.332 29.0417 175.332 29.875C175.332 30.2917 175.324 30.6667 175.307 31C175.307 31.3333 175.299 31.6667 175.282 32C175.282 32.3333 175.266 32.675 175.232 33.025C175.216 33.375 175.199 33.7667 175.182 34.2C175.166 34.5333 175.124 34.8083 175.057 35.025C174.991 35.225 174.907 35.3833 174.807 35.5C174.707 35.6167 174.591 35.7 174.457 35.75C174.341 35.7833 174.207 35.8 174.057 35.8C173.757 35.8 173.524 35.7167 173.357 35.55C173.191 35.3667 173.066 35.05 172.982 34.6C172.916 34.15 172.874 33.5417 172.857 32.775C172.841 32.0083 172.832 31.0333 172.832 29.85C172.832 28.9 172.841 27.975 172.857 27.075C172.891 26.175 172.924 25.4167 172.957 24.8ZM174.057 39.25C174.441 39.25 174.791 39.4 175.107 39.7C175.441 40 175.607 40.3583 175.607 40.775C175.607 41.175 175.441 41.525 175.107 41.825C174.774 42.1083 174.399 42.25 173.982 42.25C173.632 42.25 173.299 42.1083 172.982 41.825C172.682 41.525 172.532 41.1583 172.532 40.725C172.532 40.325 172.682 39.9833 172.982 39.7C173.299 39.4 173.657 39.25 174.057 39.25Z" fill="white"/>
</svg>
