<svg width="398" height="360" viewBox="0 0 398 360" fill="none" xmlns="http://www.w3.org/2000/svg">
<path d="M309.927 338.421L287.393 355.375L353.866 355.375L336.73 338.208L309.927 338.208" fill="white"/>
<path d="M353.867 356.565L287.393 356.565C286.875 356.565 286.417 356.229 286.265 355.772C286.112 355.284 286.265 354.766 286.692 354.461L308.829 337.812C309.012 337.385 309.439 337.08 309.927 337.08L336.73 337.08C337.035 337.08 337.34 337.202 337.553 337.415L354.69 354.552C355.026 354.888 355.117 355.406 354.934 355.833C354.782 356.26 354.355 356.565 353.867 356.565ZM290.93 354.186L351.001 354.186L336.212 339.397L310.567 339.397L290.93 354.186Z" fill="#010202"/>
<path d="M317.703 295.945L291.113 295.945L291.113 338.421L317.703 338.421L317.703 295.945Z" fill="white"/>
<path d="M317.733 339.611L291.143 339.611C290.503 339.611 289.954 339.092 289.954 338.421L289.954 295.945C289.954 295.305 290.472 294.756 291.143 294.756L317.733 294.756C318.373 294.756 318.922 295.274 318.922 295.945L318.922 338.421C318.922 339.092 318.373 339.611 317.733 339.611ZM292.302 337.232L316.544 337.232L316.544 297.134L292.302 297.134L292.302 337.232Z" fill="#010202"/>
<path d="M337.188 338.421L317.733 338.421L317.733 295.945L337.188 288.749L337.188 338.421Z" fill="white"/>
<path d="M337.187 339.611L317.733 339.611C317.093 339.611 316.544 339.092 316.544 338.421L316.544 295.945C316.544 295.457 316.849 295 317.306 294.817L336.761 287.621C337.126 287.499 337.523 287.529 337.858 287.773C338.163 287.987 338.377 288.353 338.377 288.749L338.377 338.421C338.377 339.092 337.828 339.611 337.187 339.611ZM318.922 337.232L335.998 337.232L335.998 290.457L318.922 296.769L318.922 337.232Z" fill="#010202"/>
<path d="M343.895 288.749C342.553 289.42 295.625 260.177 287.941 250.481C280.288 240.784 352.494 175.042 352.494 175.042L382.743 196.234C382.773 196.204 375.242 272.954 343.895 288.749Z" fill="white"/>
<path d="M343.897 289.969C343.135 289.969 341.397 289.206 335.085 285.456C330.084 282.467 323.741 278.503 317.673 274.509C310.05 269.508 291.755 257.189 287.028 251.243C284.711 248.285 285.199 240.632 316.515 208.34C333.438 190.868 351.551 174.371 351.734 174.188C352.13 173.822 352.74 173.761 353.197 174.097L383.446 195.289C383.812 195.533 383.995 195.96 383.934 196.387C383.629 199.558 375.975 273.96 344.415 289.847C344.294 289.877 344.141 289.969 343.897 289.969ZM352.618 176.536C349.142 179.738 333.194 194.466 318.222 209.956C287.181 242.004 287.943 248.499 288.919 249.749C296.176 258.927 339.079 285.7 343.775 287.499C372.347 272.557 380.702 204.376 381.555 196.783L352.618 176.536Z" fill="#010202"/>
<path d="M380.669 194.74L352.494 175.042C352.494 175.042 280.288 240.815 287.941 250.481C293.857 257.951 323.252 277.131 336.912 285.151C342.919 266.062 352.677 241.272 380.669 194.74Z" fill="#E61D55"/>
<path d="M337.613 286.919L336.332 286.157C324.44 279.174 293.368 259.232 287.025 251.213C284.708 248.255 285.196 240.601 316.512 208.31C333.435 190.837 351.548 174.341 351.731 174.158L352.432 173.517L382.284 194.405L381.705 195.35C353.438 242.339 343.803 267.282 338.101 285.486L337.613 286.919ZM352.615 176.536C349.139 179.738 333.191 194.466 318.219 209.956C287.178 242.004 287.94 248.499 288.916 249.749C294.405 256.701 321.909 274.814 336.271 283.382C342.034 265.27 351.883 240.479 379.113 195.106L352.615 176.536Z" fill="#010202"/>
<path d="M370.272 192.118C370.272 192.118 379.145 196.814 382.774 196.204C386.402 195.594 398.112 181.75 396.099 165.681C394.086 149.611 383.292 144.336 383.292 144.336L367.649 191.295L370.272 192.118Z" fill="white"/>
<path d="M382.101 197.454C378.076 197.454 371.033 193.886 369.813 193.246L367.282 192.453C366.977 192.362 366.733 192.148 366.581 191.874C366.428 191.6 366.398 191.264 366.52 190.959L382.162 144.001C382.284 143.665 382.498 143.421 382.833 143.269C383.138 143.147 383.504 143.147 383.809 143.299C384.266 143.513 395.183 149.032 397.256 165.559C399.33 182.116 387.163 196.692 382.955 197.393C382.681 197.424 382.406 197.454 382.101 197.454ZM369.142 190.532L370.606 190.99C370.667 191.02 370.728 191.051 370.819 191.081C374.112 192.819 380.211 195.442 382.589 195.045C385.273 194.588 396.921 181.75 394.908 165.833C393.384 153.606 386.706 147.965 383.961 146.135L369.142 190.532Z" fill="#010202"/>
<path d="M350.483 139.122C350.483 139.122 376.31 134.273 385.976 147.202C395.673 160.101 374.267 193.094 370.242 192.118C366.217 191.173 345.238 183.092 344.018 173.822C342.829 164.552 350.483 139.122 350.483 139.122Z" fill="#E61D55"/>
<path d="M370.394 193.338C370.242 193.338 370.12 193.338 369.967 193.277C366.948 192.575 344.201 184.464 342.829 173.975C341.609 164.553 349.019 139.823 349.324 138.786L349.537 138.085L350.239 137.963C351.306 137.75 376.889 133.145 386.891 146.47C394.148 156.137 385.427 174.92 379.146 184.525C376.523 188.611 372.895 193.338 370.394 193.338ZM351.428 140.189C350.208 144.336 344.171 165.62 345.207 173.7C346.244 181.72 365.454 189.77 370.455 190.99C372.254 190.624 379.085 181.994 383.597 171.291C386.128 165.223 389.696 154.155 385.061 147.934C376.798 136.896 355.575 139.549 351.428 140.189Z" fill="#010202"/>
<path d="M343.897 288.749C343.897 288.749 294.804 307.776 264.555 298.903C264.555 298.903 241.563 272.283 241.563 264.599C241.563 256.945 308.525 246.029 308.525 246.029L343.897 288.749Z" fill="white"/>
<path d="M283.459 302.471C276.69 302.471 270.134 301.769 264.249 300.031C264.035 299.97 263.822 299.848 263.7 299.665C261.321 296.921 240.403 272.466 240.403 264.599C240.403 262.891 240.403 258.866 274.829 251.304C291.417 247.645 308.219 244.901 308.371 244.87C308.798 244.809 309.195 244.962 309.469 245.297L344.841 288.017C345.084 288.322 345.176 288.688 345.084 289.084C344.993 289.45 344.719 289.755 344.383 289.877C342.706 290.487 311.39 302.471 283.459 302.471ZM265.224 297.836C291.783 305.398 333.406 291.28 341.913 288.2L308.066 247.31C304.773 247.858 289.954 250.359 275.317 253.591C243.697 260.543 242.782 264.202 242.782 264.568C242.751 270.453 258.76 290.335 265.224 297.836Z" fill="#010202"/>
<path d="M264.554 298.903C264.554 298.903 232.689 322.26 220.187 321.894C207.685 321.498 186.706 289.237 187.926 280.76C189.146 272.283 244.398 258.561 254.491 260.604C264.554 262.586 264.554 298.903 264.554 298.903Z" fill="white"/>
<path d="M220.493 323.053C220.371 323.053 220.279 323.053 220.157 323.053C213.571 322.84 205.948 314.912 201.984 310.216C193.933 300.641 185.883 286.462 186.737 280.577C186.951 279.174 188.048 277.802 190.122 276.308C201.77 268.075 245.222 257.494 254.705 259.385C265.439 261.519 265.744 295.061 265.744 298.873C265.744 299.238 265.561 299.604 265.256 299.818C263.975 300.794 233.452 323.053 220.493 323.053ZM251.93 261.55C240.038 261.55 202.441 270.514 191.494 278.26C189.451 279.693 189.146 280.608 189.085 280.912C188.414 285.517 195.428 298.751 203.813 308.691C210.125 316.192 216.102 320.553 220.249 320.675C220.34 320.675 220.432 320.675 220.554 320.675C231.866 320.675 259.401 301.16 263.426 298.263C263.365 284.572 260.834 263.013 254.309 261.702C253.638 261.611 252.876 261.55 251.93 261.55Z" fill="#010202"/>
<path d="M209.942 316.68C220.98 310.856 247.356 297.836 264.493 296.311C264.28 287.987 262.908 262.251 254.461 260.574C244.368 258.561 189.116 272.283 187.896 280.729C186.981 287.133 198.751 307.136 209.942 316.68Z" fill="#E61D55"/>
<path d="M209.788 318.113L209.178 317.595C198.079 308.142 185.699 287.712 186.736 280.577C186.949 279.174 188.047 277.802 190.12 276.308C201.769 268.075 245.221 257.494 254.704 259.385C263.455 261.123 265.346 283.23 265.712 296.25L265.742 297.378L264.644 297.47C247.63 298.995 221.131 312.137 210.52 317.717L209.788 318.113ZM251.929 261.55C240.037 261.55 202.439 270.514 191.493 278.26C189.45 279.693 189.145 280.608 189.084 280.912C188.26 286.584 199.299 305.703 210.124 315.278C221.04 309.576 246.227 297.226 263.303 295.244C262.784 280.272 260.162 262.922 254.246 261.733C253.637 261.611 252.874 261.55 251.929 261.55Z" fill="#010202"/>
<path d="M340.664 284.846L308.524 246.059C308.524 246.059 241.563 256.945 241.563 264.629C241.563 270.728 256.138 288.871 262.084 295.976C274.007 293.658 314.928 286.035 340.664 284.846Z" fill="#E61D55"/>
<path d="M261.626 297.256L261.169 296.708C253.393 287.377 240.373 270.819 240.373 264.599C240.373 262.891 240.373 258.866 274.799 251.304C291.387 247.645 308.189 244.901 308.341 244.901L309.012 244.779L343.103 285.913L340.724 286.035C315.049 287.224 274.22 294.817 262.297 297.134L261.626 297.256ZM308.067 247.31C304.773 247.858 289.954 250.359 275.318 253.591C243.697 260.543 242.782 264.202 242.782 264.599C242.782 268.441 250.344 279.937 262.572 294.665C274.952 292.286 312.884 285.273 338.285 283.779L308.067 247.31Z" fill="#010202"/>
<path d="M291.113 338.422L268.609 355.375L335.083 355.375L317.916 338.208L291.113 338.208" fill="white"/>
<path d="M335.084 356.565L268.61 356.565C268.091 356.565 267.634 356.229 267.481 355.772C267.329 355.284 267.481 354.765 267.908 354.461L290.046 337.812C290.229 337.385 290.656 337.08 291.144 337.08L317.947 337.08C318.252 337.08 318.557 337.202 318.77 337.415L335.907 354.552C336.242 354.887 336.364 355.406 336.151 355.833C335.998 356.26 335.571 356.565 335.084 356.565ZM272.147 354.186L332.217 354.186L317.428 339.397L291.784 339.397L272.147 354.186Z" fill="#010202"/>
<path d="M351.884 192.209C351.793 192.209 351.671 192.209 351.58 192.209C349.628 192.057 348.164 190.319 348.347 188.367L363.746 7.66805L227.688 24.8659L227.688 45.3264C227.688 47.278 226.102 48.8941 224.12 48.8941C222.169 48.8941 220.553 47.3085 220.553 45.3264L220.553 21.7251C220.553 19.9261 221.894 18.4319 223.663 18.188L367.161 0.0448984C368.228 -0.0770721 369.296 0.258347 370.058 1.02066C370.82 1.75249 371.217 2.81973 371.125 3.88697L355.361 188.977C355.269 190.807 353.714 192.209 351.884 192.209Z" fill="#010202"/>
<path d="M361.093 139.305C361.093 139.305 361.703 121.467 339.291 121.954C316.879 122.442 218.693 142.75 217.381 266.123C217.381 266.123 203.69 268.471 197.714 274.722C191.737 280.973 220.461 278.046 220.461 278.046C220.461 278.046 226.56 299.299 235.83 304.209C245.13 309.088 240.007 285.242 240.007 285.242C240.007 285.242 338.285 259.08 344.597 232.704C353.318 196.143 363.319 158.393 361.093 139.305Z" fill="white"/>
<path d="M196.159 278.107C195.946 277.894 195.763 277.65 195.641 277.406C195.244 276.582 195.092 275.271 196.616 273.655C201.831 268.197 212.259 265.605 215.888 264.843C216.711 212.426 234.763 172.694 269.524 146.714C296.541 126.528 326.972 120.674 339.261 120.399C347.189 120.216 353.287 122.259 357.404 126.376C362.496 131.529 362.649 138.176 362.649 139.213C364.6 156.381 357.099 187.452 349.14 220.354C348.134 224.562 347.097 228.8 346.091 233.039C339.993 258.592 254.369 282.894 241.806 286.34C242.691 290.975 244.429 302.593 240.465 305.581C239.489 306.313 237.781 306.923 235.129 305.52C226.621 301.037 220.858 284.389 219.364 279.662C211.344 280.485 199.239 281.065 196.159 278.107ZM354.934 128.297C351.458 124.973 346.213 123.357 339.352 123.509C327.369 123.784 297.76 129.486 271.384 149.215C237.172 174.798 219.516 214.134 218.967 266.154C218.967 266.886 218.419 267.526 217.687 267.648C217.565 267.679 204.392 269.996 198.842 275.79C198.69 275.942 198.598 276.064 198.537 276.156C200.337 277.375 210.033 277.558 220.309 276.521C221.041 276.46 221.742 276.918 221.956 277.619C222.017 277.833 227.963 298.324 236.562 302.837C237.233 303.202 238.117 303.538 238.605 303.172C240.556 301.678 240.068 292.896 238.513 285.578C238.33 284.785 238.818 283.962 239.611 283.748C240.587 283.504 337.096 257.525 343.072 232.338C344.079 228.099 345.115 223.891 346.122 219.653C354.019 186.965 361.49 156.076 359.538 139.488C359.538 139.427 359.538 139.335 359.538 139.274C359.538 139.213 359.66 133.084 355.178 128.571C355.117 128.48 355.026 128.388 354.934 128.297Z" fill="#010202"/>
<path d="M118.86 351.472C118.86 355.406 110.657 358.608 100.564 358.608C90.4711 358.608 82.2686 355.406 82.2686 351.472C82.2686 347.539 90.4406 344.337 100.564 344.337C110.688 344.337 118.86 347.539 118.86 351.472Z" fill="white"/>
<path d="M100.594 359.797C91.1414 359.797 81.1094 356.87 81.1094 351.472C81.1094 346.075 91.1414 343.148 100.594 343.148C110.047 343.148 120.079 346.075 120.079 351.472C120.079 356.87 110.016 359.797 100.594 359.797ZM100.594 345.526C90.806 345.526 83.4878 348.667 83.4878 351.472C83.4878 354.278 90.806 357.418 100.594 357.418C110.382 357.418 117.701 354.278 117.701 351.472C117.701 348.667 110.382 345.526 100.594 345.526Z" fill="#010202"/>
<path d="M100.899 349.734C97.3922 349.734 94.5869 346.898 94.5869 343.422L94.5869 303.172L107.241 303.172L107.241 343.422C107.211 346.898 104.375 349.734 100.899 349.734Z" fill="white"/>
<path d="M103.309 351.045L98.4916 351.045C95.6253 351.045 93.2773 348.697 93.2773 345.831L93.2773 303.172C93.2773 302.44 93.8567 301.861 94.5885 301.861L107.212 301.861C107.944 301.861 108.524 302.44 108.524 303.172L108.524 345.831C108.554 348.697 106.206 351.045 103.309 351.045ZM95.8997 304.483L95.8997 345.831C95.8997 347.264 97.0584 348.423 98.4611 348.423L103.309 348.423C104.743 348.423 105.901 347.264 105.901 345.831L105.901 304.483L95.8997 304.483Z" fill="#010202"/>
<path d="M143.742 277.192C132.856 272.405 115.383 269.325 95.7157 269.325C76.0175 269.325 58.5757 272.435 47.6899 277.192L35.9502 277.192L35.9502 288.749C35.9502 299.482 62.6922 308.173 95.7157 308.173C128.739 308.173 155.481 299.482 155.481 288.749L155.481 277.192L143.742 277.192Z" fill="white"/>
<path d="M95.7165 309.362C61.5342 309.362 34.7617 300.306 34.7617 288.749L34.7617 277.192C34.7617 276.552 35.2801 276.003 35.9509 276.003L47.4467 276.003C59.0034 271.002 76.5671 268.136 95.7165 268.136C114.866 268.136 132.43 271.002 143.986 276.003L155.482 276.003C156.122 276.003 156.671 276.521 156.671 277.192L156.671 288.749C156.671 300.306 129.899 309.362 95.7165 309.362ZM37.1401 278.351L37.1401 288.719C37.1401 297.531 60.6804 306.984 95.7165 306.984C130.752 306.984 154.293 297.531 154.293 288.719L154.293 278.351L143.742 278.351C143.59 278.351 143.407 278.321 143.254 278.26C132.155 273.381 114.378 270.484 95.686 270.484C76.994 270.484 59.2168 273.381 48.1175 278.26C47.965 278.321 47.8126 278.351 47.6296 278.351L37.1401 278.351Z" fill="#010202"/>
<path d="M155.482 277.192C155.482 287.926 128.74 296.647 95.7167 296.647C62.6932 296.647 35.9512 287.956 35.9512 277.192C35.9512 266.459 62.6932 257.738 95.7167 257.738C128.74 257.738 155.482 266.428 155.482 277.192Z" fill="#E61D55"/>
<path d="M95.7155 297.805C61.5333 297.805 34.7607 288.749 34.7607 277.192C34.7607 265.636 61.5333 256.579 95.7155 256.579C129.898 256.579 156.67 265.636 156.67 277.192C156.67 288.749 129.898 297.805 95.7155 297.805ZM95.7155 258.927C60.6795 258.927 37.1392 268.38 37.1392 277.192C37.1392 286.005 60.6795 295.457 95.7155 295.457C130.752 295.457 154.292 286.035 154.292 277.192C154.292 268.349 130.752 258.927 95.7155 258.927Z" fill="#010202"/>
<path d="M206.069 145.769C205.368 112.349 187.56 106.708 161.184 104.939C158.592 120.735 149.2 132.413 137.979 132.413C124.959 132.413 114.378 116.588 114.103 96.8895C99.3448 93.5353 78.0305 88.8089 47.5378 82.192C-33.542 64.6283 2.13433 202.607 75.3776 258.287C75.3776 258.287 56.2892 277.04 73.0907 283.718C89.8921 290.365 101.998 270.392 101.998 270.392C101.998 270.392 95.3503 298.842 115.902 296.403C136.485 293.994 129.228 266.154 129.228 266.154C129.228 266.154 133.466 276.43 144.962 276.43C156.457 276.43 154.049 256.457 148.59 252.219C148.621 252.951 207.533 214.042 206.069 145.769Z" fill="white"/>
<path d="M113.493 297.805C109.407 297.805 106.144 296.494 103.827 293.872C99.3747 288.901 99.4357 280.394 100.015 275.027C95.2582 280.668 85.1957 289.816 72.6022 284.846C68.3332 283.169 65.8329 280.546 65.1315 277.131C63.6679 269.935 70.8946 261.336 73.5475 258.47C48.9704 239.412 26.9853 209.834 13.1416 177.055C-0.458103 144.885 -3.72081 115.155 4.42072 97.4993C9.36052 86.7964 20.8562 75.2702 47.7507 81.0638C74.2793 86.7964 96.6914 91.7362 114.347 95.7612C114.865 95.8832 115.261 96.3406 115.261 96.8894C115.536 115.825 125.72 131.224 137.978 131.224C148.376 131.224 157.433 120.338 159.994 104.726C160.086 104.116 160.634 103.689 161.244 103.72C173.167 104.513 185.364 106.129 193.932 112.502C202.653 118.966 206.892 129.517 207.227 145.708C207.989 181.141 192.377 208.431 179.174 225.08C167.434 239.869 155.146 249.535 150.48 252.463C153.865 256.549 155.39 265.453 153.408 271.246C152.005 275.363 148.986 277.619 144.931 277.619C138.344 277.619 133.953 274.417 131.331 271.46C131.941 276.826 131.971 284.968 128.007 290.792C125.354 294.665 121.329 296.951 116.024 297.592C115.17 297.744 114.316 297.805 113.493 297.805ZM101.967 269.264C102.119 269.264 102.272 269.295 102.424 269.356C102.973 269.569 103.278 270.148 103.125 270.728C103.095 270.88 99.7102 285.73 105.595 292.317C107.852 294.817 111.236 295.823 115.749 295.305C120.323 294.756 123.799 292.835 126.056 289.542C131.788 281.156 128.099 266.672 128.068 266.52C127.916 265.91 128.251 265.3 128.831 265.087C129.41 264.873 130.05 265.178 130.294 265.758C130.447 266.154 134.411 275.302 144.931 275.302C147.98 275.302 150.053 273.686 151.151 270.514C153.164 264.629 150.938 255.634 147.827 253.195C147.584 252.981 147.401 252.676 147.37 252.341C147.34 251.883 147.584 251.426 148.01 251.213C148.102 251.182 148.193 251.121 148.285 251.121C149.992 250.206 164.233 240.418 178.015 222.763C190.67 206.571 205.611 180.073 204.879 145.8C204.544 130.401 200.641 120.43 192.53 114.423C184.693 108.599 173.35 106.982 162.159 106.19C159.171 122.381 149.322 133.603 137.978 133.603C124.409 133.603 113.523 117.99 112.913 97.8652C95.4107 93.9012 73.334 89.0223 47.2324 83.3812C27.1987 79.0513 13.1416 84.2655 6.58569 98.5055C-1.2814 115.581 2.0118 144.58 15.3371 176.14C29.2417 209.011 51.3794 238.619 76.0784 257.403C76.3528 257.616 76.5053 257.921 76.5358 258.287C76.5663 258.622 76.4138 258.958 76.1698 259.202C76.0784 259.293 65.9853 269.325 67.4795 276.674C67.9978 279.266 70.0408 281.278 73.517 282.65C89.1902 288.84 100.869 270.027 100.991 269.813C101.174 269.478 101.57 269.264 101.967 269.264Z" fill="#010202"/>
<path d="M103.979 159.704C105.9 157.844 105.93 154.764 104.07 152.813C102.21 150.892 99.1303 150.861 97.1788 152.721C95.2577 154.581 95.1968 157.661 97.0873 159.613C98.9778 161.534 102.058 161.564 103.979 159.704Z" fill="#010202"/>
<path d="M167.984 159.704C169.905 157.844 169.935 154.764 168.075 152.813C166.215 150.892 163.135 150.861 161.184 152.721C159.263 154.582 159.202 157.661 161.092 159.613C162.983 161.534 166.062 161.564 167.984 159.704Z" fill="#010202"/>
<path d="M161.885 96.1576C161.885 116.191 151.182 132.444 137.978 132.444C124.775 132.444 114.072 116.191 114.072 96.1576C114.072 76.124 124.775 59.8714 137.978 59.8714C151.182 59.8409 161.885 76.0935 161.885 96.1576Z" fill="white"/>
<path d="M137.978 133.633C124.135 133.633 112.883 116.832 112.883 96.1576C112.883 75.4836 124.135 58.6822 137.978 58.6822C151.822 58.6822 163.074 75.4836 163.074 96.1576C163.074 116.801 151.822 133.633 137.978 133.633ZM137.978 61.0301C125.446 61.0301 115.261 76.7948 115.261 96.1271C115.261 115.49 125.446 131.224 137.978 131.224C150.511 131.224 160.695 115.459 160.695 96.1271C160.695 76.7948 150.511 61.0301 137.978 61.0301Z" fill="#010202"/>
<path d="M114.103 96.9199C111.938 96.432 109.651 95.9137 107.212 95.3648C76.3225 97.2553 33.267 101.616 1.79859 111.465C0.487407 121.192 1.3412 132.657 4.02455 144.946C26.8025 140.219 77.7862 130.614 126.605 128.053C119.287 122.015 114.286 110.367 114.103 96.9199Z" fill="#E61D55"/>
<path d="M3.10968 146.349L2.86574 145.19C0.0604208 132.444 -0.671402 121.04 0.609288 111.312L0.700766 110.55L1.43259 110.337C33.0534 100.427 76.3529 96.0662 107.12 94.1756L107.303 94.1756L107.455 94.2061C109.895 94.755 112.182 95.2734 114.347 95.7612L115.262 95.9747L115.262 96.92C115.444 109.574 120.049 121.162 127.337 127.169L129.685 129.12L126.635 129.273C78.8533 131.743 29.4553 140.89 4.23791 146.105L3.10968 146.349ZM2.86574 112.38C1.76801 121.375 2.46934 131.865 4.90875 143.543C30.0042 138.359 77.3592 129.7 123.708 127.016C117.305 120.399 113.279 109.605 112.914 97.8652C111.084 97.4383 109.132 97.0114 107.089 96.5541C76.7188 98.4446 34.1512 102.714 2.86574 112.38Z" fill="#010202"/>
<path d="M161.184 104.939C159.629 114.484 155.543 122.534 150.115 127.413C170.484 127.443 189.542 129.151 204.819 133.45C200.276 110.886 183.932 106.464 161.184 104.939Z" fill="#E61D55"/>
<path d="M206.344 135.158L204.484 134.639C190.518 130.675 172.192 128.663 150.085 128.632L146.975 128.632L149.292 126.559C154.598 121.802 158.501 113.874 159.995 104.787L160.178 103.689L161.245 103.75C186.158 105.427 201.465 110.764 205.978 133.237L206.344 135.158ZM152.951 126.254C173.046 126.437 189.939 128.297 203.233 131.803C198.599 112.715 184.572 107.806 162.16 106.19C160.666 114.209 157.403 121.314 152.951 126.254Z" fill="#010202"/>
<path d="M137.979 107.074C134.198 107.074 131.148 103.994 131.148 100.244C131.148 96.4626 134.228 93.4133 137.979 93.4133C141.76 93.4133 144.809 96.4931 144.809 100.244C144.809 103.994 141.76 107.074 137.979 107.074ZM137.979 95.7917C135.509 95.7917 133.527 97.8043 133.527 100.244C133.527 102.683 135.539 104.696 137.979 104.696C140.449 104.696 142.431 102.683 142.431 100.244C142.431 97.8043 140.449 95.7917 137.979 95.7917Z" fill="#010202"/>
<path d="M132.155 196.356C119.226 196.356 111.908 184.617 111.603 184.098C111.267 183.549 111.45 182.818 111.999 182.482C112.548 182.147 113.28 182.33 113.615 182.879C113.676 183.001 120.568 194.008 132.155 194.008C132.216 194.008 132.277 194.008 132.307 194.008C143.864 193.917 147.157 181.903 147.188 180.561C147.188 179.921 147.706 179.372 148.377 179.372C149.017 179.372 149.566 179.89 149.566 180.561C149.566 182.421 145.938 196.265 132.368 196.387C132.277 196.356 132.216 196.356 132.155 196.356Z" fill="#010202"/>
<path d="M258.699 45.3265L189.572 45.3265L189.572 64.0794L258.699 64.0794L258.699 45.3265Z" fill="white"/>
<path d="M258.7 65.2686L189.573 65.2686C188.933 65.2686 188.384 64.7502 188.384 64.0794L188.384 45.3264C188.384 44.6861 188.902 44.1372 189.573 44.1372L258.7 44.1372C259.34 44.1372 259.889 44.6556 259.889 45.3264L259.889 64.0794C259.889 64.7502 259.371 65.2686 258.7 65.2686ZM190.762 62.8902L257.511 62.8902L257.511 46.4852L190.762 46.4852L190.762 62.8902Z" fill="#010202"/>
<path d="M284.465 164.431C286.021 162.814 285.96 160.223 284.343 158.667C282.727 157.112 280.136 157.173 278.58 158.789C277.025 160.436 277.086 162.997 278.702 164.553C280.318 166.108 282.91 166.047 284.465 164.431Z" fill="#010202"/>
<path d="M320.66 199.04C322.215 197.424 322.154 194.832 320.538 193.277C318.922 191.721 316.33 191.782 314.775 193.399C313.22 195.045 313.281 197.607 314.897 199.162C316.543 200.717 319.105 200.656 320.66 199.04Z" fill="#010202"/>
<path d="M275.501 207.486C274.159 206.206 273.244 204.711 272.757 202.973C271.171 197.332 274.8 191.508 274.952 191.234C275.409 190.502 276.355 190.288 277.087 190.746C277.788 191.203 278.032 192.148 277.574 192.88C277.544 192.941 274.525 197.851 275.745 202.15C276.324 204.223 277.849 205.84 280.258 207.029C286.326 210.017 294.04 198.43 294.132 198.308C294.589 197.607 295.535 197.393 296.266 197.851C296.998 198.308 297.181 199.253 296.724 199.985C296.358 200.564 287.515 214.073 278.886 209.804C277.574 209.163 276.446 208.37 275.501 207.486Z" fill="#010202"/>
</svg>
