<svg width="175" height="168" viewBox="0 0 175 168" fill="none" xmlns="http://www.w3.org/2000/svg">
<g clip-path="url(#clip0_2510_94)">
<path d="M116.02 96.137C116.02 71.5523 90.0595 51.5967 58.0239 51.5967C25.9603 51.5967 0 71.5241 0 96.137C0 115.697 16.4256 132.294 39.2358 138.278C38.1951 147.282 33.6106 160.746 16.2006 167.972C16.2006 167.972 43.1453 169.383 59.7115 140.621C90.9595 139.943 116.02 120.298 116.02 96.137Z" fill="#FFFEFE"/>
<path d="M142.627 113.016C162.287 101.528 175 83.379 175 62.9153C175 28.1694 138.296 0 93.0412 0C47.7865 0 11.082 28.1694 11.082 62.9153C11.082 63.9597 11.1102 64.9758 11.1945 65.9919C22.3043 54.4476 40.1643 46.9395 60.3307 46.9395C94.0537 46.9395 121.392 67.9395 121.392 93.8226C121.392 105.819 115.514 116.742 105.867 125.04C110.929 124.419 115.851 123.488 120.577 122.19C140.546 153.492 170.247 149.399 170.247 149.399C145.243 141.411 142.768 120.016 142.627 113.016Z" fill="#E61D55"/>
<path d="M93.0412 2.90726C136.637 2.90726 172.103 29.8347 172.103 62.9153C172.103 72.3427 169.291 81.3468 163.778 89.7016C158.462 97.7742 150.643 104.944 141.193 110.476C140.293 111.012 139.73 112 139.758 113.044C139.871 118.605 141.474 134.581 155.706 145.25C146.002 142.851 133.233 136.556 123.052 120.609C122.517 119.762 121.589 119.282 120.605 119.282C120.352 119.282 120.098 119.31 119.845 119.395C118.017 119.903 116.133 120.355 114.192 120.75C120.773 112.79 124.317 103.476 124.317 93.8226C124.317 80.3871 117.567 67.7702 105.304 58.371C93.2662 49.1411 77.3188 44.0323 60.3588 44.0323C42.6394 44.0323 26.1857 49.5645 14.1759 59.3589C16.5666 27.9153 51.021 2.90726 93.0412 2.90726ZM93.0412 0C47.7865 0 11.082 28.1694 11.082 62.9153C11.082 63.9597 11.1102 64.9758 11.1945 65.9919C22.3043 54.4476 40.1643 46.9395 60.3307 46.9395C94.0537 46.9395 121.392 67.9395 121.392 93.8226C121.392 105.819 115.514 116.742 105.867 125.04C110.929 124.419 115.851 123.488 120.577 122.19C136.412 147 158.35 149.569 166.759 149.569C168.953 149.569 170.247 149.399 170.247 149.399C145.243 141.383 142.768 120.016 142.655 113.016C162.316 101.528 175.029 83.379 175.029 62.9153C175 28.1694 138.296 0 93.0412 0Z" fill="white"/>
<path d="M57.9958 55.9435C87.5844 55.9435 111.688 73.9797 111.688 96.137C111.688 106.439 106.429 116.262 96.8941 123.77C87.05 131.532 73.8026 135.992 59.599 136.302C58.0802 136.331 56.702 137.149 55.9426 138.476C50.7393 147.508 43.9609 154.254 35.7481 158.572C41.0921 151.488 42.9203 143.923 43.5109 138.786C43.7641 136.641 42.3859 134.637 40.3046 134.101C18.76 128.456 4.30328 113.185 4.30328 96.1652C4.3314 73.9515 28.4073 55.9435 57.9958 55.9435ZM57.9958 51.5967C25.9603 51.5967 0 71.5241 0 96.137C0 115.697 16.4256 132.294 39.2358 138.278C38.2232 147.282 33.6106 160.746 16.2006 167.972C16.2006 167.972 16.4256 167.972 16.8194 167.972C20.8976 167.972 44.6078 166.814 59.7115 140.621C90.9595 139.915 116.02 120.27 116.02 96.1088C116.02 71.5241 90.0313 51.5967 57.9958 51.5967Z" fill="#010202"/>
</g>
<defs>
<clipPath id="clip0_2510_94">
<rect width="175" height="168" fill="white"/>
</clipPath>
</defs>
</svg>
