<svg width="722" height="531" viewBox="0 0 722 531" fill="none" xmlns="http://www.w3.org/2000/svg">
<g clip-path="url(#clip0_2213_771)">
<path d="M91.8451 0C111.098 6.11476 130.625 11.4765 149.501 18.591C161.599 23.1608 173.06 29.3794 186.225 30.47C201.835 31.7552 217.368 32.0798 231.548 23.758C238.52 19.6555 245.896 21.2264 253.064 22.4468C259.413 23.5373 265.631 25.4977 271.823 27.3412C281.71 30.2752 289.216 36.2212 295.382 44.5819C300.053 50.9174 306.193 56.1623 311.552 62.0045C316.639 67.535 321.569 73.2214 326.968 79.2842C328.828 77.6354 331.157 76.2593 332.549 74.234C339.99 63.4585 350.28 62.4718 361.897 65.0424C377.963 68.5996 390.269 76.6098 397.775 91.9032C402.211 100.939 407.844 109.507 413.867 117.596C423.78 130.903 434.981 142.795 453.167 144.391C455.652 144.612 458.137 145.859 460.452 146.962C466.618 149.922 466.853 152.48 464.472 158.815C461.545 166.592 458.566 174.68 457.707 182.846C455.275 206.006 453.479 229.362 458.189 252.419C459.503 258.845 463.34 264.96 466.879 270.698C471.367 277.994 477.221 284.473 481.579 291.834C486.236 299.701 492.675 304.557 501.04 307.945C508.559 310.983 515.48 315.449 522.843 318.902C525.796 320.292 529.412 321.759 532.417 321.291C544.334 319.422 556.432 317.721 567.854 314.073C574.202 312.048 581.006 307.387 584.661 301.96C590.294 293.586 594.418 283.837 597.332 274.126C601.235 261.104 609.924 252.744 626.134 251.432C640.326 250.277 654.636 250.16 668.881 250.121C677.961 250.095 680.732 255.483 675.099 262.675C665.928 274.424 661.531 287.394 661.752 302.22C661.908 313.437 656.939 322.291 647.338 328.12C633.705 336.39 620.189 345.14 603.199 344.725C600.48 344.66 597.735 345.504 594.626 345.997C597.54 351.164 600.623 355.838 602.913 360.862C608.22 372.52 604.656 380.595 591.946 381.738C579.054 382.893 573.877 387.969 572.979 400.952C572.108 413.376 565.486 415.038 555.456 407.495C545.635 400.121 535.709 392.825 525.328 386.282C515.792 380.271 505.06 378.817 494.184 382.478C474.996 388.943 456.445 386.918 437.895 379.712C425.237 374.805 411.981 371.404 399.519 366.081C391.089 362.485 383.231 357.214 375.764 351.8C364.967 343.972 353.779 337.195 340.523 334.793C324.197 331.833 313.296 320.473 301.51 310.464C297.906 307.4 294.667 303.856 291.506 300.324C285.196 293.301 283.349 285.408 284.884 275.826C288.292 254.418 282.451 235.503 267.608 219.288C261.949 213.108 256.252 206.578 252.375 199.269C243.516 182.547 229.661 171.849 213.101 164.047C206.18 160.788 201.9 156.881 201.159 148.312C200.691 142.873 196.775 137.082 192.95 132.707C186.251 125.086 178.992 117.79 171.056 111.559C160.675 103.406 153.507 93.3702 148.434 81.4263C144.479 72.1308 140.368 62.8613 135.62 53.9423C131.626 46.4514 126.293 39.7524 117.447 37.4545C114.962 36.8054 110.734 36.3121 109.849 37.5454C108.21 39.8693 107.417 43.7511 108.106 46.5293C109.108 50.5799 111.476 54.3967 113.7 58.0448C121.076 70.1964 128.296 82.4649 136.244 94.2271C141.89 102.575 147.939 110.884 155.055 117.972C164.136 127.021 171.082 137.082 175.57 148.974C177.014 152.804 178.693 156.543 179.915 160.438C184.521 175.199 191.74 188.104 205.101 196.854C206.532 197.789 207.689 199.139 208.912 200.359C220.932 212.355 218.786 223.857 203.279 230.725C196.255 233.841 190.622 233.244 186.797 226.804C178.888 213.445 167.388 203.163 158.099 191.103C153.052 184.546 151.803 175.004 149.201 166.708C148.187 163.463 148.239 159.906 147.679 156.504C146.509 149.468 141.669 145.729 135.36 143.742C128.986 141.743 122.078 141.016 116.146 138.186C110.123 135.317 104.477 131.11 99.6635 126.463C95.4486 122.373 96.2161 117.271 100.275 112.597C106.649 105.236 106.181 99.8745 99.052 93.0976C96.2291 90.4232 93.2891 87.8656 90.3101 85.373C82.9991 79.2582 77.9906 71.7154 74.9335 62.6536C70.2243 48.7104 63.7459 36.0135 52.9875 25.212C40.2258 12.3983 42.8666 5.60844 60.5197 1.64878C62.3409 1.23334 64.0971 0.558248 65.8924 0C74.5173 0 83.1812 0 91.8451 0ZM596.122 370.819C592.74 364.757 590.632 360.304 587.939 356.253C578.56 342.141 580.693 337.234 597.67 334.481C598.529 334.339 599.4 334.157 600.246 334.209C616.468 335.325 629.074 326.471 642.07 318.915C647.403 315.826 650.265 310.97 650.616 304.557C650.968 298.117 651.163 291.522 652.763 285.33C654.844 277.203 658.24 269.413 661.076 261.429C650.994 261.429 640.612 261.065 630.257 261.52C616.052 262.13 610.77 266.752 607.362 280.228C606.932 281.889 606.581 283.603 605.931 285.187C598.36 303.843 589.058 320.902 566.917 325.575C556.159 327.847 545.452 330.755 534.564 331.937C529.204 332.521 523.168 330.6 518.017 328.458C510.523 325.355 503.85 320.227 496.279 317.409C485.755 313.502 478.261 306.907 472.564 297.481C468.583 290.886 464.238 284.356 459.138 278.605C451.32 269.777 447.43 259.702 446.559 248.174C444.243 217.171 442.864 186.247 453.167 155.66C449.213 154.596 445.258 154.089 441.837 152.48C434.708 149.117 426.382 146.573 421.204 141.159C410.992 130.487 402.368 118.271 393.535 106.353C389.32 100.666 386.601 93.8765 382.425 88.1642C376.012 79.3881 366.164 76.8694 356.004 74.8442C347.353 73.1175 343.073 78.4144 338.117 83.7502C329.622 92.8899 322.259 91.9551 314.479 82.2182C309.419 75.8828 303.331 70.3522 297.737 64.4322C295.369 61.9266 292.442 59.6936 290.881 56.7595C281.931 39.8953 266.034 35.0398 248.954 32.5601C244.479 31.911 238.924 32.0019 235.19 34.0921C225.954 39.2981 216.08 40.4795 205.972 41.3623C185.145 43.1668 165.853 38.2595 147.107 29.2756C128.231 20.2397 108.575 12.9955 87.4481 10.7755C77.3792 9.7239 67.5055 10.3341 57.0203 14.0211C59.8953 17.3446 61.8076 20.3176 64.4094 22.4468C73.1123 29.6131 78.2898 38.9995 81.3079 49.4634C85.3277 63.4455 92.8598 74.3768 104.386 83.5165C117.941 94.266 118.695 105.691 108.744 119.465C108.536 119.751 108.653 120.283 108.497 122.165C111.775 123.996 115.417 126.631 119.476 128.137C125.109 130.228 131.106 131.318 136.869 133.123C151.92 137.835 158.425 145.612 159.14 161.152C159.739 173.927 164.604 184.105 173.658 193.18C180.579 200.112 185.873 208.629 192.092 216.302C193.705 218.288 196.398 221.365 197.946 221.014C200.769 220.391 203.943 218.041 205.309 215.51C206.037 214.159 203.461 210.823 202.03 208.616C201.12 207.214 199.715 205.993 198.297 205.059C182.725 194.945 174.985 179.691 169.508 162.671C165.397 149.909 160.246 137.264 149.969 128.15C136.921 116.557 128.088 102.224 119.892 87.1905C116.094 80.2189 111.02 73.9354 106.935 67.0936C103.527 61.4073 99.9236 55.6171 97.8552 49.3984C95.2404 41.557 96.9446 33.7156 103.501 28.1591C109.147 23.3815 115.886 25.2769 121.961 27.6138C131.991 31.4826 139.77 38.3633 144.726 47.8535C148.798 55.656 152.297 63.7961 155.55 71.988C160.428 84.2565 167.531 94.7723 177.704 103.341C184.807 109.326 191.623 115.648 198.284 122.126C205.218 128.864 210.577 136.849 211.982 146.521C212.646 151.116 214.74 153.362 218.526 154.959C238.026 163.216 251.985 177.328 262.587 195.348C266.164 201.411 270.9 206.863 275.492 212.251C291.493 231.024 299.649 251.991 295.447 277.034C294.758 281.123 295.252 286.758 297.633 289.783C309.38 304.79 322.051 319.214 341.772 323.914C357.24 327.601 370.626 334.91 383.335 344.166C390.074 349.074 397.372 353.579 405.06 356.733C418.603 362.29 432.639 366.639 446.442 371.559C460.751 376.675 475.113 377.168 489.67 372.533C493.326 371.365 497.215 370.625 501.04 370.313C517.6 368.95 531.117 376.752 544.256 385.23C550.513 389.268 556.263 394.071 563.665 399.589C560.491 374.792 577.779 372.533 596.122 370.819Z" fill="#4CC5C4"/>
<path d="M596.122 370.819C577.767 372.52 560.478 374.792 563.665 399.602C556.263 394.084 550.5 389.281 544.256 385.243C531.117 376.765 517.601 368.963 501.04 370.326C497.203 370.638 493.326 371.378 489.67 372.546C475.114 377.181 460.765 376.688 446.442 371.572C432.639 366.639 418.603 362.303 405.061 356.746C397.372 353.592 390.074 349.087 383.336 344.179C370.626 334.923 357.24 327.614 341.772 323.927C322.051 319.227 309.38 304.803 297.633 289.796C295.265 286.771 294.771 281.136 295.448 277.047C299.649 252.004 291.506 231.037 275.492 212.264C270.887 206.863 266.152 201.424 262.587 195.361C251.985 177.341 238.013 163.229 218.526 154.972C214.74 153.375 212.646 151.129 211.983 146.534C210.578 136.862 205.218 128.877 198.284 122.139C191.637 115.661 184.807 109.339 177.704 103.354C167.531 94.7853 160.428 84.2695 155.55 72.001C152.298 63.8091 148.798 55.682 144.727 47.8665C139.783 38.3763 131.991 31.5086 121.961 27.6268C115.886 25.277 109.147 23.3815 103.501 28.1721C96.9448 33.7156 95.2407 41.557 97.8554 49.4115C99.9239 55.6301 103.527 61.4203 106.936 67.1066C111.02 73.9484 116.094 80.2189 119.893 87.2035C128.075 102.237 136.908 116.57 149.969 128.163C160.246 137.29 165.385 149.922 169.508 162.684C174.985 179.704 182.725 194.958 198.297 205.072C199.728 205.994 201.133 207.214 202.031 208.629C203.462 210.849 206.037 214.173 205.309 215.523C203.943 218.054 200.769 220.404 197.946 221.027C196.398 221.365 193.705 218.301 192.092 216.315C185.887 208.655 180.579 200.138 173.658 193.193C164.591 184.105 159.739 173.94 159.14 161.165C158.412 145.625 151.92 137.848 136.869 133.136C131.119 131.331 125.109 130.241 119.476 128.15C115.417 126.644 111.775 124.009 108.497 122.178C108.653 120.296 108.536 119.764 108.744 119.478C118.683 105.704 117.941 94.279 104.386 83.5295C92.86 74.3768 85.3279 63.4455 81.3081 49.4764C78.2901 39.0125 73.1125 29.6131 64.4096 22.4598C61.8078 20.3176 59.8955 17.3576 57.0205 14.0341C67.5057 10.3471 77.3794 9.7369 87.4483 10.7885C108.575 12.9955 128.231 20.2398 147.133 29.3145C165.879 38.3114 185.158 43.2188 205.998 41.4012C216.119 40.5184 225.98 39.337 235.216 34.131C238.937 32.0279 244.492 31.937 248.98 32.5991C266.047 35.0788 281.944 39.9342 290.907 56.7985C292.469 59.7455 295.409 61.9785 297.763 64.4712C303.357 70.3912 309.432 75.9217 314.506 82.2572C322.285 91.9941 329.648 92.9288 338.143 83.7891C343.099 78.4533 347.366 73.1565 356.03 74.8831C366.19 76.9084 376.038 79.44 382.451 88.2032C386.627 93.9155 389.346 100.705 393.561 106.392C402.381 118.31 411.019 130.539 421.231 141.198C426.408 146.612 434.734 149.156 441.863 152.519C445.284 154.128 449.226 154.635 453.194 155.699C442.89 186.273 444.269 217.21 446.585 248.213C447.444 259.728 451.333 269.816 459.165 278.644C464.264 284.395 468.609 290.925 472.59 297.52C478.288 306.946 485.781 313.541 496.305 317.448C503.876 320.253 510.55 325.394 518.043 328.496C523.207 330.639 529.244 332.56 534.59 331.976C545.479 330.794 556.185 327.886 566.943 325.614C589.071 320.928 598.373 303.882 605.957 285.226C606.594 283.642 606.959 281.928 607.388 280.266C610.809 266.778 616.091 262.169 630.284 261.559C640.639 261.117 651.033 261.468 661.102 261.468C658.253 269.452 654.87 277.242 652.789 285.369C651.202 291.561 651.007 298.156 650.643 304.596C650.291 311.009 647.429 315.865 642.096 318.954C629.087 326.497 616.494 335.364 600.272 334.248C599.427 334.183 598.542 334.378 597.696 334.52C580.72 337.273 578.586 342.18 587.966 356.292C590.633 360.304 592.753 364.757 596.122 370.819Z" fill="#C8EAEB"/>
</g>
<g clip-path="url(#clip1_2213_771)">
<path d="M691.883 466.598C692.731 463.552 693.192 460.337 693.192 457.025C693.192 437.443 677.297 421.584 657.672 421.584C650.306 421.584 643.474 423.808 637.804 427.628C632.352 415.057 619.802 406.257 605.192 406.257C599.74 406.257 594.555 407.49 589.928 409.69C589.952 409.255 589.952 408.82 589.952 408.384C589.952 388.803 574.058 372.944 554.432 372.944C538.174 372.944 524.461 383.847 520.269 398.715C509.293 418.973 485.622 458.475 459.963 474.213C424.758 495.825 446.807 529.066 446.807 529.066L691.52 529.042C692.247 529.09 692.973 529.114 693.7 529.114C713.326 529.114 721.976 521.185 721.976 501.627C722 483.883 708.94 469.185 691.883 466.598Z" fill="#E61D55"/>
<path d="M30.1167 466.598C29.2686 463.552 28.7841 460.337 28.7841 457.025C28.7841 437.443 44.6783 421.584 64.3038 421.584C71.6694 421.584 78.502 423.808 84.1716 427.628C89.6231 415.057 102.174 406.257 116.784 406.257C122.235 406.257 127.42 407.49 132.048 409.69C132.024 409.255 132.024 408.82 132.024 408.384C132.024 388.803 147.918 372.944 167.544 372.944C183.801 372.944 197.491 383.847 201.706 398.715C212.682 418.973 236.354 458.475 262.012 474.213C297.217 495.825 275.169 529.066 275.169 529.066L30.4559 529.042C29.729 529.09 29.0021 529.114 28.2752 529.114C8.64975 529.114 0 521.185 0 501.627C0 483.883 13.0594 469.185 30.1167 466.598Z" fill="#E61D55"/>
<path d="M79.0835 466.598C78.2354 463.552 77.7509 460.337 77.7509 457.025C77.7509 437.443 93.6451 421.584 113.271 421.584C120.636 421.584 127.469 423.808 133.138 427.628C138.59 415.057 151.141 406.257 165.751 406.257C171.202 406.257 176.387 407.49 181.015 409.69C180.991 409.255 180.991 408.82 180.991 408.384C180.991 388.803 196.885 372.944 216.51 372.944C232.768 372.944 246.482 383.847 250.673 398.715C261.649 418.973 285.321 458.475 310.979 474.213C346.184 495.825 324.136 529.066 324.136 529.066L79.4227 529.042C78.6958 529.09 77.9931 529.114 77.242 529.114C57.6166 529.114 48.9668 521.185 48.9668 501.627C48.9668 483.883 62.0262 469.185 79.0835 466.598Z" fill="#E61D55"/>
<path d="M77.2179 530.637C56.6232 530.637 47.4404 521.693 47.4404 501.627C47.4404 484.076 60.1122 468.798 77.2179 465.389C76.5879 462.633 76.2487 459.829 76.2487 457.025C76.2487 436.645 92.8698 420.085 113.271 420.085C120.103 420.085 126.693 421.923 132.484 425.452C138.687 412.833 151.552 404.782 165.726 404.782C170.5 404.782 175.103 405.653 179.464 407.393C179.997 387.473 196.4 371.445 216.486 371.445C232.913 371.445 247.524 382.421 252.054 398.159C263.66 419.578 286.75 457.605 311.755 472.956C322.706 479.677 329.393 488.21 331.622 498.291C335.257 514.754 325.783 529.308 325.371 529.912L324.911 530.589L79.3985 530.565C78.6232 530.613 77.9205 530.637 77.2179 530.637ZM113.271 423.083C94.5174 423.083 79.2531 438.313 79.2531 457.025C79.2531 460.119 79.6892 463.189 80.513 466.187L80.9734 467.831L79.2773 468.097C62.8258 470.587 50.4448 485.019 50.4448 501.652C50.4448 520.121 58.1981 527.64 77.1936 527.64C77.8963 527.64 78.5989 527.616 79.2773 527.567L323.239 527.591C324.984 524.618 331.598 512.24 328.642 498.92C326.583 489.661 320.356 481.804 310.155 475.518C284.497 459.781 261.019 421.101 249.316 399.44L249.195 399.126C245.076 384.596 231.629 374.443 216.486 374.443C197.733 374.443 182.469 389.673 182.469 408.385C182.469 408.771 182.493 409.134 182.493 409.521L182.59 412.132L180.337 411.068C175.757 408.892 170.839 407.78 165.726 407.78C152.158 407.78 139.898 415.806 134.519 428.232L133.793 429.9L132.29 428.885C126.669 425.089 120.103 423.083 113.271 423.083Z" fill="white"/>
<path d="M121.775 529.67C120.612 529.67 119.643 528.728 119.643 527.543V446.726C119.643 445.566 120.588 444.599 121.775 444.599C122.938 444.599 123.907 445.541 123.907 446.726V527.543C123.907 528.703 122.962 529.67 121.775 529.67Z" fill="#010202"/>
<path d="M533.765 529.67C532.602 529.67 531.633 528.728 531.633 527.543V446.726C531.633 445.566 532.578 444.599 533.765 444.599C534.928 444.599 535.897 445.541 535.897 446.726V527.543C535.897 528.703 534.952 529.67 533.765 529.67Z" fill="#010202"/>
<path d="M533.765 314.803H121.775V446.46H533.765V314.803Z" fill="white"/>
<path d="M533.765 447.959H121.775C120.951 447.959 120.272 447.282 120.272 446.46V314.803C120.272 313.981 120.951 313.304 121.775 313.304H533.765C534.588 313.304 535.267 313.981 535.267 314.803V446.46C535.291 447.306 534.613 447.959 533.765 447.959ZM123.301 444.961H532.262V316.302H123.301V444.961Z" fill="#010202"/>
<path d="M477.19 488.041H65.2002L121.775 446.46H533.765L477.19 488.041Z" fill="white"/>
<path d="M477.19 489.54H65.1998C64.5456 489.54 63.9641 489.129 63.7703 488.5C63.5764 487.872 63.7945 487.195 64.3033 486.808L120.878 445.251C121.145 445.058 121.46 444.961 121.775 444.961H533.764C534.419 444.961 535 445.372 535.194 446.001C535.388 446.629 535.17 447.306 534.661 447.693L478.086 489.274C477.82 489.443 477.505 489.54 477.19 489.54ZM69.8033 486.518H476.705L529.185 447.959H122.283L69.8033 486.518Z" fill="#010202"/>
<path d="M257.07 393.493L204.469 419.529L147.967 357.69L200.568 331.653L257.07 393.493Z" fill="white"/>
<path d="M204.469 421.028C204.057 421.028 203.645 420.859 203.354 420.545L146.852 358.705C146.537 358.366 146.392 357.883 146.489 357.399C146.586 356.94 146.876 356.529 147.312 356.336L199.914 330.299C200.519 330.009 201.246 330.13 201.707 330.638L258.184 392.477C258.499 392.816 258.645 393.299 258.548 393.759C258.451 394.218 258.16 394.629 257.748 394.822L205.123 420.883C204.905 420.98 204.687 421.028 204.469 421.028ZM150.438 358.149L204.808 417.668L254.598 393.033L200.229 333.49L150.438 358.149Z" fill="#010202"/>
<path d="M255.955 232.802C256.1 229.901 256.318 227.169 256.585 224.534C264.968 222.165 359.897 197.482 457.613 268.436C457.589 353.435 420.3 468.774 339.472 462.053C251.715 454.752 251.86 310.089 255.955 232.802Z" fill="white"/>
<path d="M339.278 464.422C274.538 459.031 245.706 381.067 253.58 232.657C253.726 229.828 253.944 227.096 254.21 224.292C254.307 223.325 254.986 222.503 255.931 222.237C266.398 219.264 360.988 195.306 459.018 266.502C459.624 266.937 459.987 267.662 459.987 268.411C459.963 327.954 441.646 404.855 400.723 442.399C384.587 457.218 366.27 464.688 346.184 464.688C343.93 464.712 341.604 464.616 339.278 464.422ZM258.79 226.395C258.596 228.571 258.45 230.723 258.329 232.923C250.624 378.263 277.979 454.559 339.666 459.684C361.084 461.497 380.54 454.486 397.501 438.918C437.091 402.583 454.972 327.979 455.214 269.644C363.12 203.332 274.635 222.237 258.79 226.395Z" fill="#010202"/>
<path d="M365.809 294.109C364.888 290.773 366.851 287.292 370.195 286.373C373.538 285.455 377.027 287.413 377.948 290.749C378.869 294.085 376.906 297.566 373.562 298.485C370.219 299.428 366.754 297.47 365.809 294.109Z" fill="#010202"/>
<path d="M275.896 296.696C274.975 293.36 276.938 289.879 280.281 288.96C283.625 288.042 287.114 290 288.035 293.336C288.955 296.672 286.993 300.153 283.649 301.072C280.306 302.015 276.841 300.032 275.896 296.696Z" fill="#010202"/>
<path d="M326.316 324.812C336.929 321.886 345.845 308.542 346.257 307.889C346.984 306.801 346.669 305.327 345.578 304.601C344.488 303.876 343.01 304.19 342.283 305.278C339.376 309.678 330.023 321.016 321.858 320.605C317.909 320.412 314.396 317.414 311.416 311.685C310.81 310.524 309.38 310.065 308.217 310.669C307.054 311.274 306.594 312.724 307.2 313.885C311.028 321.21 315.874 325.078 321.64 325.368C323.215 325.44 324.79 325.247 326.316 324.812Z" fill="#010202"/>
<path d="M310.107 390.302L339.763 395.499C348.462 397.022 356.772 391.22 358.299 382.541L361.23 365.933C362.757 357.254 356.942 348.962 348.244 347.439L318.587 342.242C309.889 340.719 301.579 346.521 300.052 355.2L297.12 371.808C295.57 380.487 301.385 388.779 310.107 390.302Z" fill="#E61D55"/>
<path d="M340.951 398.134L308.096 392.381C303.687 391.607 299.834 389.165 297.266 385.491C294.698 381.84 293.704 377.392 294.48 372.992L297.969 353.193C299.568 344.103 308.29 338.011 317.4 339.607L350.255 345.385C354.664 346.158 358.517 348.6 361.085 352.25C363.653 355.901 364.647 360.349 363.871 364.749L360.383 384.548C358.953 392.671 351.854 398.376 343.883 398.376C342.913 398.376 341.92 398.304 340.951 398.134ZM302.669 353.991L299.18 373.79C298.623 376.933 299.325 380.124 301.167 382.735C303.008 385.346 305.77 387.111 308.92 387.667L341.775 393.42C348.292 394.556 354.543 390.205 355.682 383.702L359.171 363.903C359.728 360.76 359.026 357.569 357.184 354.958C355.343 352.347 352.581 350.582 349.431 350.026L316.576 344.248C315.874 344.127 315.171 344.079 314.493 344.079C308.775 344.103 303.687 348.189 302.669 353.991Z" fill="#E61D55"/>
<path d="M392.001 386.313C393.309 386.313 394.375 385.249 394.375 383.944C394.375 382.638 393.309 381.574 392.001 381.574C388.487 381.574 313.596 369.729 270.71 344.732C269.572 344.079 268.118 344.466 267.464 345.578C266.809 346.714 267.173 348.165 268.312 348.817C310.276 373.282 385.653 386.313 392.001 386.313Z" fill="#010202"/>
<path d="M258.257 386.313L205.655 412.349L149.153 350.485L201.754 324.449L258.257 386.313Z" fill="white"/>
<path d="M205.656 413.848C205.244 413.848 204.832 413.679 204.542 413.365L148.04 351.501C147.725 351.162 147.579 350.679 147.676 350.195C147.773 349.736 148.064 349.325 148.5 349.132L201.101 323.095C201.707 322.805 202.434 322.926 202.894 323.434L259.396 385.273C259.711 385.612 259.856 386.095 259.76 386.579C259.663 387.038 259.372 387.449 258.936 387.642L206.31 413.703C206.092 413.8 205.874 413.848 205.656 413.848ZM151.625 350.969L205.995 410.488L255.786 385.853L201.416 326.31L151.625 350.969Z" fill="#010202"/>
<path d="M247.378 382.735L205.268 403.598L160.032 354.063L202.142 333.2L247.378 382.735Z" fill="#E61D55"/>
<path d="M149.154 350.485L147.967 357.69L204.469 419.529L205.656 412.349L149.154 350.485Z" fill="white"/>
<path d="M204.445 421.028C204.033 421.028 203.621 420.859 203.33 420.545L146.852 358.705C146.537 358.367 146.392 357.907 146.465 357.448L147.652 350.268C147.749 349.688 148.161 349.228 148.718 349.059C149.275 348.89 149.881 349.059 150.269 349.494L206.771 411.334C207.086 411.672 207.207 412.132 207.134 412.591L205.947 419.771C205.85 420.351 205.438 420.81 204.881 420.98C204.735 421.004 204.59 421.028 204.445 421.028ZM149.566 357.206L203.451 416.217L204.009 412.833L150.148 353.822L149.566 357.206Z" fill="#010202"/>
<path d="M258.257 386.313L257.07 393.493L204.444 419.529L205.656 412.349L258.257 386.313Z" fill="white"/>
<path d="M204.468 421.028C204.153 421.028 203.838 420.931 203.572 420.738C203.112 420.399 202.893 419.843 202.99 419.287L204.178 412.107C204.25 411.624 204.565 411.213 205.001 410.995L257.603 384.959C258.111 384.717 258.717 384.766 259.177 385.104C259.638 385.442 259.856 385.998 259.759 386.555L258.572 393.734C258.499 394.218 258.184 394.629 257.748 394.847L205.123 420.883C204.905 420.98 204.686 421.028 204.468 421.028ZM207.012 413.34L206.431 416.87L255.713 392.477L256.294 388.948L207.012 413.34Z" fill="#010202"/>
<path d="M195.043 369.922C195.552 369.56 196.303 369.68 196.691 370.212C197.079 370.744 196.933 371.494 196.449 371.856L195.213 372.751L199.501 378.722C200.083 379.52 199.768 380.39 199.162 380.825C198.581 381.236 197.636 381.284 197.054 380.487L192.766 374.54L192.16 374.975C191.651 375.337 190.876 375.241 190.513 374.709C190.125 374.177 190.27 373.428 190.779 373.065L191.409 372.63L190.319 371.107C189.737 370.309 190.052 369.439 190.658 369.004C191.264 368.568 192.184 368.544 192.766 369.342L193.856 370.865L195.043 369.922Z" fill="white"/>
<path d="M207.182 362.887L214.96 373.693C215.541 374.491 215.226 375.337 214.621 375.797C214.015 376.232 213.094 376.232 212.513 375.458L209.29 370.986C209.605 372.364 208.903 373.887 207.4 374.951C204.687 376.909 201.537 375.942 199.696 373.379C197.782 370.72 198.048 367.505 200.81 365.522C201.925 364.724 203.475 364.362 204.881 364.87L204.735 364.652C204.154 363.854 204.469 362.984 205.074 362.549C205.68 362.089 206.601 362.089 207.182 362.887ZM207.158 368.036C206.141 366.634 204.348 366.32 202.918 367.36C201.464 368.399 201.149 370.188 202.167 371.614C203.209 373.065 205.002 373.355 206.48 372.315C207.909 371.252 208.176 369.463 207.158 368.036Z" fill="white"/>
<path d="M213.942 368.23C213.482 368.109 213.167 367.891 212.973 367.626C212.537 366.997 212.731 366.127 213.336 365.692C213.676 365.45 214.136 365.353 214.693 365.498C215.59 365.74 216.244 365.692 217.019 365.136C217.819 364.579 218.182 363.854 217.819 363.347C216.753 361.872 212.173 366.513 209.847 363.274C208.563 361.485 209.46 359.285 211.422 357.859C212.779 356.892 214.499 356.433 215.541 356.65C216.026 356.747 216.365 356.989 216.559 357.254C216.947 357.786 216.825 358.536 216.268 358.947C215.929 359.188 215.469 359.309 214.911 359.237C214.16 359.14 213.409 359.237 212.731 359.72C212.101 360.18 211.737 360.857 212.077 361.364C213.143 362.839 217.722 358.052 220.145 361.413C221.502 363.274 220.581 365.474 218.376 367.07C216.825 368.157 215.251 368.568 213.942 368.23Z" fill="white"/>
<path d="M477.19 531C476.124 531 475.276 530.154 475.276 529.09V488.041C475.276 486.977 476.149 486.131 477.19 486.131C478.257 486.131 479.105 487.002 479.105 488.041V529.09C479.105 530.154 478.257 531 477.19 531Z" fill="#010202"/>
</g>
<defs>
<clipPath id="clip0_2213_771">
<rect width="633" height="412" fill="white" transform="translate(45)"/>
</clipPath>
<clipPath id="clip1_2213_771">
<rect width="722" height="315" fill="white" transform="translate(0 216)"/>
</clipPath>
</defs>
</svg>
