<svg width="689" height="600" viewBox="0 0 689 600" fill="none" xmlns="http://www.w3.org/2000/svg">
<path d="M309.927 549.421L287.393 566.375L353.866 566.375L336.73 549.208L309.927 549.208" fill="white"/>
<path d="M353.867 567.565L287.393 567.565C286.875 567.565 286.417 567.229 286.265 566.772C286.112 566.284 286.265 565.766 286.692 565.461L308.829 548.812C309.012 548.385 309.439 548.08 309.927 548.08L336.73 548.08C337.035 548.08 337.34 548.202 337.553 548.415L354.69 565.552C355.026 565.888 355.117 566.406 354.934 566.833C354.782 567.26 354.355 567.565 353.867 567.565ZM290.93 565.186L351.001 565.186L336.212 550.397L310.567 550.397L290.93 565.186Z" fill="#010202"/>
<path d="M317.703 506.945L291.113 506.945L291.113 549.421L317.703 549.421L317.703 506.945Z" fill="white"/>
<path d="M317.733 550.611L291.143 550.611C290.503 550.611 289.954 550.092 289.954 549.421L289.954 506.945C289.954 506.305 290.472 505.756 291.143 505.756L317.733 505.756C318.373 505.756 318.922 506.274 318.922 506.945L318.922 549.421C318.922 550.092 318.373 550.611 317.733 550.611ZM292.302 548.232L316.544 548.232L316.544 508.134L292.302 508.134L292.302 548.232Z" fill="#010202"/>
<path d="M337.188 549.421L317.733 549.421L317.733 506.945L337.188 499.749L337.188 549.421Z" fill="white"/>
<path d="M337.187 550.611L317.733 550.611C317.093 550.611 316.544 550.092 316.544 549.421L316.544 506.945C316.544 506.457 316.849 506 317.306 505.817L336.761 498.621C337.126 498.499 337.523 498.529 337.858 498.773C338.163 498.987 338.377 499.353 338.377 499.749L338.377 549.421C338.377 550.092 337.828 550.611 337.187 550.611ZM318.922 548.232L335.998 548.232L335.998 501.457L318.922 507.769L318.922 548.232Z" fill="#010202"/>
<path d="M343.895 499.749C342.553 500.42 295.625 471.177 287.941 461.481C280.288 451.784 352.494 386.042 352.494 386.042L382.743 407.234C382.773 407.204 375.242 483.954 343.895 499.749Z" fill="white"/>
<path d="M343.897 500.969C343.135 500.969 341.397 500.206 335.085 496.456C330.084 493.467 323.741 489.503 317.673 485.509C310.05 480.508 291.755 468.189 287.028 462.243C284.711 459.285 285.199 451.632 316.515 419.34C333.438 401.868 351.551 385.371 351.734 385.188C352.13 384.822 352.74 384.761 353.197 385.097L383.446 406.289C383.812 406.533 383.995 406.96 383.934 407.387C383.629 410.558 375.975 484.96 344.415 500.847C344.294 500.877 344.141 500.969 343.897 500.969ZM352.618 387.536C349.142 390.738 333.194 405.466 318.222 420.956C287.181 453.004 287.943 459.499 288.919 460.749C296.176 469.927 339.079 496.7 343.775 498.499C372.347 483.557 380.702 415.376 381.555 407.783L352.618 387.536Z" fill="#010202"/>
<path d="M380.669 405.74L352.494 386.042C352.494 386.042 280.288 451.815 287.941 461.481C293.857 468.951 323.252 488.131 336.912 496.151C342.919 477.062 352.677 452.272 380.669 405.74Z" fill="#E61D55"/>
<path d="M337.613 497.919L336.332 497.157C324.44 490.174 293.368 470.232 287.025 462.213C284.708 459.255 285.196 451.601 316.512 419.31C333.435 401.837 351.548 385.341 351.731 385.158L352.432 384.517L382.284 405.405L381.705 406.35C353.438 453.339 343.803 478.282 338.101 496.486L337.613 497.919ZM352.615 387.536C349.139 390.738 333.191 405.466 318.219 420.956C287.178 453.004 287.94 459.499 288.916 460.749C294.405 467.701 321.909 485.814 336.271 494.382C342.034 476.27 351.883 451.479 379.113 406.106L352.615 387.536Z" fill="#010202"/>
<path d="M370.272 403.118C370.272 403.118 379.145 407.814 382.774 407.204C386.402 406.594 398.112 392.75 396.099 376.681C394.086 360.611 383.292 355.336 383.292 355.336L367.649 402.295L370.272 403.118Z" fill="white"/>
<path d="M382.101 408.454C378.076 408.454 371.033 404.886 369.813 404.246L367.282 403.453C366.977 403.362 366.733 403.148 366.581 402.874C366.428 402.6 366.398 402.264 366.52 401.959L382.162 355.001C382.284 354.665 382.498 354.421 382.833 354.269C383.138 354.147 383.504 354.147 383.809 354.299C384.266 354.513 395.183 360.032 397.256 376.559C399.33 393.116 387.163 407.692 382.955 408.393C382.681 408.424 382.406 408.454 382.101 408.454ZM369.142 401.532L370.606 401.99C370.667 402.02 370.728 402.051 370.819 402.081C374.112 403.819 380.211 406.442 382.589 406.045C385.273 405.588 396.921 392.75 394.908 376.833C393.384 364.606 386.706 358.965 383.961 357.135L369.142 401.532Z" fill="#010202"/>
<path d="M350.483 350.122C350.483 350.122 376.31 345.273 385.976 358.202C395.673 371.101 374.267 404.094 370.242 403.118C366.217 402.173 345.238 394.092 344.018 384.822C342.829 375.552 350.483 350.122 350.483 350.122Z" fill="#E61D55"/>
<path d="M370.394 404.338C370.242 404.338 370.12 404.338 369.967 404.277C366.948 403.575 344.201 395.464 342.829 384.975C341.609 375.553 349.019 350.823 349.324 349.786L349.537 349.085L350.239 348.963C351.306 348.75 376.889 344.145 386.891 357.47C394.148 367.137 385.427 385.92 379.146 395.525C376.523 399.611 372.895 404.338 370.394 404.338ZM351.428 351.189C350.208 355.336 344.171 376.62 345.207 384.7C346.244 392.72 365.454 400.77 370.455 401.99C372.254 401.624 379.085 392.994 383.597 382.291C386.128 376.223 389.696 365.155 385.061 358.934C376.798 347.896 355.575 350.549 351.428 351.189Z" fill="#010202"/>
<path d="M343.897 499.749C343.897 499.749 294.804 518.776 264.555 509.903C264.555 509.903 241.563 483.283 241.563 475.599C241.563 467.945 308.525 457.029 308.525 457.029L343.897 499.749Z" fill="white"/>
<path d="M283.459 513.471C276.69 513.471 270.134 512.769 264.249 511.031C264.035 510.97 263.822 510.848 263.7 510.665C261.321 507.921 240.403 483.466 240.403 475.599C240.403 473.891 240.403 469.866 274.829 462.304C291.417 458.645 308.219 455.901 308.371 455.87C308.798 455.809 309.195 455.962 309.469 456.297L344.841 499.017C345.084 499.322 345.176 499.688 345.084 500.084C344.993 500.45 344.719 500.755 344.383 500.877C342.706 501.487 311.39 513.471 283.459 513.471ZM265.224 508.836C291.783 516.398 333.406 502.28 341.913 499.2L308.066 458.31C304.773 458.858 289.954 461.359 275.317 464.591C243.697 471.543 242.782 475.202 242.782 475.568C242.751 481.453 258.76 501.335 265.224 508.836Z" fill="#010202"/>
<path d="M264.554 509.903C264.554 509.903 232.689 533.26 220.187 532.894C207.685 532.498 186.706 500.237 187.926 491.76C189.146 483.283 244.398 469.561 254.491 471.604C264.554 473.586 264.554 509.903 264.554 509.903Z" fill="white"/>
<path d="M220.493 534.053C220.371 534.053 220.279 534.053 220.157 534.053C213.571 533.84 205.948 525.912 201.984 521.216C193.933 511.641 185.883 497.462 186.737 491.577C186.951 490.174 188.048 488.802 190.122 487.308C201.77 479.075 245.222 468.494 254.705 470.385C265.439 472.519 265.744 506.061 265.744 509.873C265.744 510.238 265.561 510.604 265.256 510.818C263.975 511.794 233.452 534.053 220.493 534.053ZM251.93 472.55C240.038 472.55 202.441 481.514 191.494 489.26C189.451 490.693 189.146 491.608 189.085 491.912C188.414 496.517 195.428 509.751 203.813 519.691C210.125 527.192 216.102 531.553 220.249 531.675C220.34 531.675 220.432 531.675 220.554 531.675C231.866 531.675 259.401 512.16 263.426 509.263C263.365 495.572 260.834 474.013 254.309 472.702C253.638 472.611 252.876 472.55 251.93 472.55Z" fill="#010202"/>
<path d="M209.942 527.68C220.98 521.856 247.356 508.836 264.493 507.311C264.28 498.987 262.908 473.251 254.461 471.574C244.368 469.561 189.116 483.283 187.896 491.729C186.981 498.133 198.751 518.136 209.942 527.68Z" fill="#E61D55"/>
<path d="M209.788 529.113L209.178 528.595C198.079 519.142 185.699 498.712 186.736 491.577C186.949 490.174 188.047 488.802 190.12 487.308C201.769 479.075 245.221 468.494 254.704 470.385C263.455 472.123 265.346 494.23 265.712 507.25L265.742 508.378L264.644 508.47C247.63 509.995 221.131 523.137 210.52 528.717L209.788 529.113ZM251.929 472.55C240.037 472.55 202.439 481.514 191.493 489.26C189.45 490.693 189.145 491.608 189.084 491.912C188.26 497.584 199.299 516.703 210.124 526.278C221.04 520.576 246.227 508.226 263.303 506.244C262.784 491.272 260.162 473.922 254.246 472.733C253.637 472.611 252.874 472.55 251.929 472.55Z" fill="#010202"/>
<path d="M340.664 495.846L308.524 457.059C308.524 457.059 241.563 467.945 241.563 475.629C241.563 481.728 256.138 499.871 262.084 506.976C274.007 504.658 314.928 497.035 340.664 495.846Z" fill="#E61D55"/>
<path d="M261.626 508.256L261.169 507.708C253.393 498.377 240.373 481.819 240.373 475.599C240.373 473.891 240.373 469.866 274.799 462.304C291.387 458.645 308.189 455.901 308.341 455.901L309.012 455.779L343.103 496.913L340.724 497.035C315.049 498.224 274.22 505.817 262.297 508.134L261.626 508.256ZM308.067 458.31C304.773 458.858 289.954 461.359 275.318 464.591C243.697 471.543 242.782 475.202 242.782 475.599C242.782 479.441 250.344 490.937 262.572 505.665C274.952 503.286 312.884 496.273 338.285 494.779L308.067 458.31Z" fill="#010202"/>
<path d="M291.113 549.422L268.609 566.375L335.083 566.375L317.916 549.208L291.113 549.208" fill="white"/>
<path d="M335.084 567.565L268.61 567.565C268.091 567.565 267.634 567.229 267.481 566.772C267.329 566.284 267.481 565.765 267.908 565.461L290.046 548.812C290.229 548.385 290.656 548.08 291.144 548.08L317.947 548.08C318.252 548.08 318.557 548.202 318.77 548.415L335.907 565.552C336.242 565.887 336.364 566.406 336.151 566.833C335.998 567.26 335.571 567.565 335.084 567.565ZM272.147 565.186L332.217 565.186L317.428 550.397L291.784 550.397L272.147 565.186Z" fill="#010202"/>
<path d="M351.884 403.209C351.793 403.209 351.671 403.209 351.58 403.209C349.628 403.057 348.164 401.319 348.347 399.367L363.746 218.668L227.688 235.866L227.688 256.326C227.688 258.278 226.102 259.894 224.12 259.894C222.169 259.894 220.553 258.308 220.553 256.326L220.553 232.725C220.553 230.926 221.894 229.432 223.663 229.188L367.161 211.045C368.228 210.923 369.296 211.258 370.058 212.021C370.82 212.752 371.217 213.82 371.125 214.887L355.361 399.977C355.269 401.807 353.714 403.209 351.884 403.209Z" fill="#010202"/>
<path d="M361.093 350.305C361.093 350.305 361.703 332.467 339.291 332.954C316.879 333.442 218.693 353.75 217.381 477.123C217.381 477.123 203.69 479.471 197.714 485.722C191.737 491.973 220.461 489.046 220.461 489.046C220.461 489.046 226.56 510.299 235.83 515.209C245.13 520.088 240.007 496.242 240.007 496.242C240.007 496.242 338.285 470.08 344.597 443.704C353.318 407.143 363.319 369.393 361.093 350.305Z" fill="white"/>
<path d="M196.159 489.107C195.946 488.894 195.763 488.65 195.641 488.406C195.244 487.582 195.092 486.271 196.616 484.655C201.831 479.197 212.259 476.605 215.888 475.843C216.711 423.426 234.763 383.694 269.524 357.714C296.541 337.528 326.972 331.674 339.261 331.399C347.189 331.216 353.287 333.259 357.404 337.376C362.496 342.529 362.649 349.176 362.649 350.213C364.6 367.381 357.099 398.452 349.14 431.354C348.134 435.562 347.097 439.8 346.091 444.039C339.993 469.592 254.369 493.894 241.806 497.34C242.691 501.975 244.429 513.593 240.465 516.581C239.489 517.313 237.781 517.923 235.129 516.52C226.621 512.037 220.858 495.389 219.364 490.662C211.344 491.485 199.239 492.065 196.159 489.107ZM354.934 339.297C351.458 335.973 346.213 334.357 339.352 334.509C327.369 334.784 297.76 340.486 271.384 360.215C237.172 385.798 219.516 425.134 218.967 477.154C218.967 477.886 218.419 478.526 217.687 478.648C217.565 478.679 204.392 480.996 198.842 486.79C198.69 486.942 198.598 487.064 198.537 487.156C200.337 488.375 210.033 488.558 220.309 487.521C221.041 487.46 221.742 487.918 221.956 488.619C222.017 488.833 227.963 509.324 236.562 513.837C237.233 514.202 238.117 514.538 238.605 514.172C240.556 512.678 240.068 503.896 238.513 496.578C238.33 495.785 238.818 494.962 239.611 494.748C240.587 494.504 337.096 468.525 343.072 443.338C344.079 439.099 345.115 434.891 346.122 430.653C354.019 397.965 361.49 367.076 359.538 350.488C359.538 350.427 359.538 350.335 359.538 350.274C359.538 350.213 359.66 344.084 355.178 339.571C355.117 339.48 355.026 339.388 354.934 339.297Z" fill="#010202"/>
<path d="M118.86 562.472C118.86 566.406 110.657 569.608 100.564 569.608C90.4711 569.608 82.2686 566.406 82.2686 562.472C82.2686 558.539 90.4406 555.337 100.564 555.337C110.688 555.337 118.86 558.539 118.86 562.472Z" fill="white"/>
<path d="M100.594 570.797C91.1414 570.797 81.1094 567.87 81.1094 562.472C81.1094 557.075 91.1414 554.148 100.594 554.148C110.047 554.148 120.079 557.075 120.079 562.472C120.079 567.87 110.016 570.797 100.594 570.797ZM100.594 556.526C90.806 556.526 83.4878 559.667 83.4878 562.472C83.4878 565.278 90.806 568.418 100.594 568.418C110.382 568.418 117.701 565.278 117.701 562.472C117.701 559.667 110.382 556.526 100.594 556.526Z" fill="#010202"/>
<path d="M100.899 560.734C97.3922 560.734 94.5869 557.898 94.5869 554.422L94.5869 514.172L107.241 514.172L107.241 554.422C107.211 557.898 104.375 560.734 100.899 560.734Z" fill="white"/>
<path d="M103.309 562.045L98.4916 562.045C95.6253 562.045 93.2773 559.697 93.2773 556.831L93.2773 514.172C93.2773 513.44 93.8567 512.861 94.5885 512.861L107.212 512.861C107.944 512.861 108.524 513.44 108.524 514.172L108.524 556.831C108.554 559.697 106.206 562.045 103.309 562.045ZM95.8997 515.483L95.8997 556.831C95.8997 558.264 97.0584 559.423 98.4611 559.423L103.309 559.423C104.743 559.423 105.901 558.264 105.901 556.831L105.901 515.483L95.8997 515.483Z" fill="#010202"/>
<path d="M143.742 488.192C132.856 483.405 115.383 480.325 95.7157 480.325C76.0175 480.325 58.5757 483.435 47.6899 488.192L35.9502 488.192L35.9502 499.749C35.9502 510.482 62.6922 519.173 95.7157 519.173C128.739 519.173 155.481 510.482 155.481 499.749L155.481 488.192L143.742 488.192Z" fill="white"/>
<path d="M95.7165 520.362C61.5342 520.362 34.7617 511.306 34.7617 499.749L34.7617 488.192C34.7617 487.552 35.2801 487.003 35.9509 487.003L47.4467 487.003C59.0034 482.002 76.5671 479.136 95.7165 479.136C114.866 479.136 132.43 482.002 143.986 487.003L155.482 487.003C156.122 487.003 156.671 487.521 156.671 488.192L156.671 499.749C156.671 511.306 129.899 520.362 95.7165 520.362ZM37.1401 489.351L37.1401 499.719C37.1401 508.531 60.6804 517.984 95.7165 517.984C130.752 517.984 154.293 508.531 154.293 499.719L154.293 489.351L143.742 489.351C143.59 489.351 143.407 489.321 143.254 489.26C132.155 484.381 114.378 481.484 95.686 481.484C76.994 481.484 59.2168 484.381 48.1175 489.26C47.965 489.321 47.8126 489.351 47.6296 489.351L37.1401 489.351Z" fill="#010202"/>
<path d="M155.482 488.192C155.482 498.926 128.74 507.647 95.7167 507.647C62.6932 507.647 35.9512 498.956 35.9512 488.192C35.9512 477.459 62.6932 468.738 95.7167 468.738C128.74 468.738 155.482 477.428 155.482 488.192Z" fill="#E61D55"/>
<path d="M95.7155 508.805C61.5333 508.805 34.7607 499.749 34.7607 488.192C34.7607 476.636 61.5333 467.579 95.7155 467.579C129.898 467.579 156.67 476.636 156.67 488.192C156.67 499.749 129.898 508.805 95.7155 508.805ZM95.7155 469.927C60.6795 469.927 37.1392 479.38 37.1392 488.192C37.1392 497.005 60.6795 506.457 95.7155 506.457C130.752 506.457 154.292 497.035 154.292 488.192C154.292 479.349 130.752 469.927 95.7155 469.927Z" fill="#010202"/>
<path d="M206.069 356.769C205.368 323.349 187.56 317.708 161.184 315.939C158.592 331.735 149.2 343.413 137.979 343.413C124.959 343.413 114.378 327.588 114.103 307.889C99.3448 304.535 78.0305 299.809 47.5378 293.192C-33.542 275.628 2.13433 413.607 75.3776 469.287C75.3776 469.287 56.2892 488.04 73.0907 494.718C89.8921 501.365 101.998 481.392 101.998 481.392C101.998 481.392 95.3503 509.842 115.902 507.403C136.485 504.994 129.228 477.154 129.228 477.154C129.228 477.154 133.466 487.43 144.962 487.43C156.457 487.43 154.049 467.457 148.59 463.219C148.621 463.951 207.533 425.042 206.069 356.769Z" fill="white"/>
<path d="M113.493 508.805C109.407 508.805 106.144 507.494 103.827 504.872C99.3747 499.901 99.4357 491.394 100.015 486.027C95.2582 491.668 85.1957 500.816 72.6022 495.846C68.3332 494.169 65.8329 491.546 65.1315 488.131C63.6679 480.935 70.8946 472.336 73.5475 469.47C48.9704 450.412 26.9853 420.834 13.1416 388.055C-0.458103 355.885 -3.72081 326.155 4.42072 308.499C9.36052 297.796 20.8562 286.27 47.7507 292.064C74.2793 297.796 96.6914 302.736 114.347 306.761C114.865 306.883 115.261 307.341 115.261 307.889C115.536 326.825 125.72 342.224 137.978 342.224C148.376 342.224 157.433 331.338 159.994 315.726C160.086 315.116 160.634 314.689 161.244 314.72C173.167 315.513 185.364 317.129 193.932 323.502C202.653 329.966 206.892 340.517 207.227 356.708C207.989 392.141 192.377 419.431 179.174 436.08C167.434 450.869 155.146 460.535 150.48 463.463C153.865 467.549 155.39 476.453 153.408 482.246C152.005 486.363 148.986 488.619 144.931 488.619C138.344 488.619 133.953 485.417 131.331 482.46C131.941 487.826 131.971 495.968 128.007 501.792C125.354 505.665 121.329 507.951 116.024 508.592C115.17 508.744 114.316 508.805 113.493 508.805ZM101.967 480.264C102.119 480.264 102.272 480.295 102.424 480.356C102.973 480.569 103.278 481.148 103.125 481.728C103.095 481.88 99.7102 496.73 105.595 503.317C107.852 505.817 111.236 506.823 115.749 506.305C120.323 505.756 123.799 503.835 126.056 500.542C131.788 492.156 128.099 477.672 128.068 477.52C127.916 476.91 128.251 476.3 128.831 476.087C129.41 475.873 130.05 476.178 130.294 476.758C130.447 477.154 134.411 486.302 144.931 486.302C147.98 486.302 150.053 484.686 151.151 481.514C153.164 475.629 150.938 466.634 147.827 464.195C147.584 463.981 147.401 463.676 147.37 463.341C147.34 462.883 147.584 462.426 148.01 462.213C148.102 462.182 148.193 462.121 148.285 462.121C149.992 461.206 164.233 451.418 178.015 433.763C190.67 417.571 205.611 391.073 204.879 356.8C204.544 341.401 200.641 331.43 192.53 325.423C184.693 319.599 173.35 317.982 162.159 317.19C159.171 333.381 149.322 344.603 137.978 344.603C124.409 344.603 113.523 328.99 112.913 308.865C95.4107 304.901 73.334 300.022 47.2324 294.381C27.1987 290.051 13.1416 295.265 6.58569 309.506C-1.2814 326.581 2.0118 355.58 15.3371 387.14C29.2417 420.011 51.3794 449.619 76.0784 468.403C76.3528 468.616 76.5053 468.921 76.5358 469.287C76.5663 469.622 76.4138 469.958 76.1698 470.202C76.0784 470.293 65.9853 480.325 67.4795 487.674C67.9978 490.266 70.0408 492.278 73.517 493.65C89.1902 499.84 100.869 481.027 100.991 480.813C101.174 480.478 101.57 480.264 101.967 480.264Z" fill="#010202"/>
<path d="M103.979 370.704C105.9 368.844 105.93 365.764 104.07 363.813C102.21 361.892 99.1303 361.861 97.1788 363.721C95.2577 365.581 95.1968 368.661 97.0873 370.613C98.9778 372.534 102.058 372.564 103.979 370.704Z" fill="#010202"/>
<path d="M167.984 370.704C169.905 368.844 169.935 365.764 168.075 363.813C166.215 361.892 163.135 361.861 161.184 363.721C159.263 365.582 159.202 368.661 161.092 370.613C162.983 372.534 166.062 372.564 167.984 370.704Z" fill="#010202"/>
<path d="M161.885 307.158C161.885 327.191 151.182 343.444 137.978 343.444C124.775 343.444 114.072 327.191 114.072 307.158C114.072 287.124 124.775 270.871 137.978 270.871C151.182 270.841 161.885 287.093 161.885 307.158Z" fill="white"/>
<path d="M137.978 344.633C124.135 344.633 112.883 327.832 112.883 307.158C112.883 286.484 124.135 269.682 137.978 269.682C151.822 269.682 163.074 286.484 163.074 307.158C163.074 327.801 151.822 344.633 137.978 344.633ZM137.978 272.03C125.446 272.03 115.261 287.795 115.261 307.127C115.261 326.49 125.446 342.224 137.978 342.224C150.511 342.224 160.695 326.459 160.695 307.127C160.695 287.795 150.511 272.03 137.978 272.03Z" fill="#010202"/>
<path d="M114.103 307.92C111.938 307.432 109.651 306.914 107.212 306.365C76.3225 308.255 33.267 312.616 1.79859 322.465C0.487407 332.192 1.3412 343.657 4.02455 355.946C26.8025 351.219 77.7862 341.614 126.605 339.053C119.287 333.015 114.286 321.367 114.103 307.92Z" fill="#E61D55"/>
<path d="M3.10968 357.349L2.86574 356.19C0.0604208 343.444 -0.671402 332.04 0.609288 322.312L0.700766 321.55L1.43259 321.337C33.0534 311.427 76.3529 307.066 107.12 305.176L107.303 305.176L107.455 305.206C109.895 305.755 112.182 306.273 114.347 306.761L115.262 306.975L115.262 307.92C115.444 320.574 120.049 332.162 127.337 338.169L129.685 340.12L126.635 340.273C78.8533 342.743 29.4553 351.89 4.23791 357.105L3.10968 357.349ZM2.86574 323.38C1.76801 332.375 2.46934 342.865 4.90875 354.543C30.0042 349.359 77.3592 340.7 123.708 338.016C117.305 331.399 113.279 320.605 112.914 308.865C111.084 308.438 109.132 308.011 107.089 307.554C76.7188 309.445 34.1512 313.714 2.86574 323.38Z" fill="#010202"/>
<path d="M161.184 315.939C159.629 325.484 155.543 333.534 150.115 338.413C170.484 338.443 189.542 340.151 204.819 344.45C200.276 321.886 183.932 317.464 161.184 315.939Z" fill="#E61D55"/>
<path d="M206.344 346.158L204.484 345.639C190.518 341.675 172.192 339.663 150.085 339.632L146.975 339.632L149.292 337.559C154.598 332.802 158.501 324.874 159.995 315.787L160.178 314.689L161.245 314.75C186.158 316.427 201.465 321.764 205.978 344.237L206.344 346.158ZM152.951 337.254C173.046 337.437 189.939 339.297 203.233 342.803C198.599 323.715 184.572 318.806 162.16 317.19C160.666 325.209 157.403 332.314 152.951 337.254Z" fill="#010202"/>
<path d="M137.979 318.074C134.198 318.074 131.148 314.994 131.148 311.244C131.148 307.463 134.228 304.413 137.979 304.413C141.76 304.413 144.809 307.493 144.809 311.244C144.809 314.994 141.76 318.074 137.979 318.074ZM137.979 306.792C135.509 306.792 133.527 308.804 133.527 311.244C133.527 313.683 135.539 315.696 137.979 315.696C140.449 315.696 142.431 313.683 142.431 311.244C142.431 308.804 140.449 306.792 137.979 306.792Z" fill="#010202"/>
<path d="M132.155 407.356C119.226 407.356 111.908 395.617 111.603 395.098C111.267 394.549 111.45 393.818 111.999 393.482C112.548 393.147 113.28 393.33 113.615 393.879C113.676 394.001 120.568 405.008 132.155 405.008C132.216 405.008 132.277 405.008 132.307 405.008C143.864 404.917 147.157 392.903 147.188 391.561C147.188 390.921 147.706 390.372 148.377 390.372C149.017 390.372 149.566 390.89 149.566 391.561C149.566 393.421 145.938 407.265 132.368 407.387C132.277 407.356 132.216 407.356 132.155 407.356Z" fill="#010202"/>
<path d="M258.699 256.326L189.572 256.326L189.572 275.079L258.699 275.079L258.699 256.326Z" fill="white"/>
<path d="M258.7 276.269L189.573 276.269C188.933 276.269 188.384 275.75 188.384 275.079L188.384 256.326C188.384 255.686 188.902 255.137 189.573 255.137L258.7 255.137C259.34 255.137 259.889 255.656 259.889 256.326L259.889 275.079C259.889 275.75 259.371 276.269 258.7 276.269ZM190.762 273.89L257.511 273.89L257.511 257.485L190.762 257.485L190.762 273.89Z" fill="#010202"/>
<path d="M284.465 375.431C286.021 373.814 285.96 371.223 284.343 369.667C282.727 368.112 280.136 368.173 278.58 369.789C277.025 371.436 277.086 373.997 278.702 375.553C280.318 377.108 282.91 377.047 284.465 375.431Z" fill="#010202"/>
<path d="M320.66 410.04C322.215 408.424 322.154 405.832 320.538 404.277C318.922 402.721 316.33 402.782 314.775 404.399C313.22 406.045 313.281 408.607 314.897 410.162C316.543 411.717 319.105 411.656 320.66 410.04Z" fill="#010202"/>
<path d="M275.501 418.486C274.159 417.206 273.244 415.711 272.757 413.973C271.171 408.332 274.8 402.508 274.952 402.234C275.409 401.502 276.355 401.288 277.087 401.746C277.788 402.203 278.032 403.148 277.574 403.88C277.544 403.941 274.525 408.851 275.745 413.15C276.324 415.223 277.849 416.84 280.258 418.029C286.326 421.017 294.04 409.43 294.132 409.308C294.589 408.607 295.535 408.393 296.266 408.851C296.998 409.308 297.181 410.253 296.724 410.985C296.358 411.564 287.515 425.073 278.886 420.804C277.574 420.163 276.446 419.37 275.501 418.486Z" fill="#010202"/>
<path d="M463.428 34.0811L482.142 34.7692C502.233 35.5018 517.95 52.3737 517.24 72.4867L514.509 147.677C513.821 166.658 498.703 181.732 480.055 182.709L490.223 555.31C490.267 556.553 490.223 557.974 490.09 559.261C488.38 576.288 473.196 588.72 456.168 587.011C439.141 585.302 426.709 570.117 428.419 553.09L465.581 182.353L458.078 182.087C437.987 181.354 422.269 164.483 423.002 144.347L425.688 69.1567C426.421 49.0659 443.315 33.3707 463.428 34.0811Z" fill="#E61D55"/>
<path d="M412.036 79.4802C409.461 79.3914 407.463 77.2158 407.552 74.6407C407.641 72.0655 409.816 70.0675 412.391 70.1563L455.748 71.7325L455.77 71.0443L421.893 69.8011C419.518 69.7345 417.675 67.7143 417.742 65.3389L417.786 64.6286C417.875 62.2754 419.873 60.4106 422.248 60.4772L456.125 61.7204L456.147 61.0322L412.791 59.456C410.216 59.3672 408.218 57.1916 408.307 54.6165C408.395 52.0413 410.571 50.0433 413.146 50.1321L456.525 51.6861L456.547 51.3975C456.547 51.2643 456.591 51.1311 456.613 50.9757L422.692 49.7325C420.317 49.6659 418.474 47.6457 418.541 45.2704L418.563 44.5378C418.63 42.1624 420.65 40.3198 423.025 40.3864L466.648 41.9626L469.933 42.0958L471.421 42.1624C472.464 42.1846 473.396 42.6286 474.107 43.2502C477.304 44.9373 479.435 48.3117 479.302 52.1745L475.661 152.162C475.505 156.269 472.797 159.688 469.156 160.976C468.446 161.375 467.602 161.597 466.736 161.575L465.604 161.553L462.23 161.464L409.128 159.555C406.553 159.466 404.555 157.29 404.644 154.715C404.733 152.14 406.908 150.142 409.483 150.231L452.884 151.807C452.884 151.674 452.839 151.541 452.862 151.385L452.884 151.097L418.985 149.876C416.632 149.787 414.767 147.789 414.833 145.414L414.878 144.703C414.944 142.328 416.965 140.485 419.34 140.552L453.239 141.773L453.261 141.085L409.905 139.508C407.33 139.42 405.332 137.244 405.421 134.669C405.51 132.094 407.685 130.096 410.26 130.184L453.616 131.761L453.639 131.072L419.762 129.829C417.386 129.763 415.544 127.743 415.61 125.367L415.655 124.657C415.721 122.281 417.742 120.439 420.117 120.505L454.016 121.726L454.038 121.038L410.682 119.462C408.107 119.373 406.109 117.198 406.198 114.622C406.287 112.047 408.462 110.049 411.037 110.138L454.393 111.714L454.416 111.026L420.517 109.805C418.163 109.716 416.299 107.718 416.365 105.343L416.41 104.633C416.476 102.257 418.496 100.415 420.872 100.481L454.749 101.724L454.771 101.036L411.415 99.46C408.839 99.3712 406.841 97.1956 406.93 94.6204C407.019 92.0453 409.195 90.0473 411.77 90.1361L455.126 91.7123L455.148 91.0241L421.249 89.8031C418.874 89.7365 417.031 87.7163 417.098 85.3409L417.142 84.6306C417.231 82.2774 419.229 80.4126 421.604 80.4792L455.481 81.7224L455.503 81.0342L412.036 79.4802Z" fill="white"/>
<path d="M412.036 79.4802C409.461 79.3914 407.463 77.2158 407.552 74.6407C407.641 72.0655 409.816 70.0675 412.391 70.1563L455.748 71.7325L455.77 71.0443L421.893 69.8011C419.518 69.7345 417.675 67.7143 417.742 65.3389L417.786 64.6286C417.875 62.2754 419.873 60.4106 422.248 60.4772L456.125 61.7204L456.147 61.0322L412.791 59.456C410.216 59.3672 408.218 57.1916 408.307 54.6165C408.395 52.0413 410.571 50.0433 413.146 50.1321L456.525 51.6861L456.547 51.3975C456.547 51.2643 456.591 51.1311 456.613 50.9757L422.692 49.7325C420.317 49.6659 418.474 47.6457 418.541 45.2704L418.563 44.5378C418.63 42.1624 420.65 40.3198 423.025 40.3864L466.648 41.9626L469.933 42.0958L471.421 42.1624C472.464 42.1846 473.396 42.6286 474.107 43.2502C477.304 44.9373 479.435 48.3117 479.302 52.1745L475.661 152.162C475.505 156.269 472.797 159.688 469.156 160.976C468.446 161.375 467.602 161.597 466.736 161.575L465.604 161.553L462.23 161.464L409.128 159.555C406.553 159.466 404.555 157.29 404.644 154.715C404.733 152.14 406.908 150.142 409.483 150.231L452.884 151.807C452.884 151.674 452.839 151.541 452.862 151.385L452.884 151.097L418.985 149.876C416.632 149.787 414.767 147.789 414.833 145.414L414.878 144.703C414.944 142.328 416.965 140.485 419.34 140.552L453.239 141.773L453.261 141.085L409.905 139.508C407.33 139.42 405.332 137.244 405.421 134.669C405.51 132.094 407.685 130.096 410.26 130.184L453.616 131.761L453.639 131.072L419.762 129.829C417.386 129.763 415.544 127.743 415.61 125.367L415.655 124.657C415.721 122.281 417.742 120.439 420.117 120.505L454.016 121.726L454.038 121.038L410.682 119.462C408.107 119.373 406.109 117.198 406.198 114.622C406.286 112.047 408.462 110.049 411.037 110.138L454.393 111.714L454.416 111.026L420.517 109.805C418.163 109.716 416.299 107.718 416.365 105.343L416.41 104.633C416.476 102.257 418.496 100.415 420.872 100.481L454.749 101.724L454.771 101.036L411.415 99.46C408.839 99.3712 406.841 97.1956 406.93 94.6204C407.019 92.0453 409.195 90.0473 411.77 90.1361L455.126 91.7123L455.148 91.0241L421.249 89.8031C418.874 89.7365 417.031 87.7163 417.098 85.3409L417.142 84.6306C417.231 82.2774 419.229 80.4126 421.604 80.4792L455.481 81.7224L455.503 81.0342L412.036 79.4802Z" stroke="#E61D53" stroke-width="0.776" stroke-miterlimit="10" stroke-linecap="round" stroke-linejoin="round"/>
<path d="M429.951 80.1241C427.376 80.0353 425.378 77.8597 425.467 75.2845C425.556 72.7093 427.731 70.7114 430.306 70.8002L473.663 72.3763L473.685 71.6881L439.786 70.4672C437.41 70.4006 435.568 68.3804 435.634 66.005L435.679 65.2946C435.768 62.9414 437.766 61.0767 440.141 61.1433L474.018 62.3864L474.04 61.6982L430.684 60.1221C428.109 60.0333 426.111 57.8577 426.2 55.2825C426.288 52.7073 428.464 50.7094 431.039 50.7982L474.417 52.3521L474.44 52.0635C474.44 51.9303 474.484 51.7971 474.506 51.6417L440.585 50.3986C438.21 50.332 436.367 48.3118 436.434 45.9364L436.478 45.226C436.545 42.8506 438.565 41.008 440.94 41.0746L484.563 42.6508L487.848 42.784L489.336 42.8506C490.379 42.8728 491.311 43.3168 492.022 43.9384C495.219 45.6256 497.35 49 497.217 52.8627L493.576 152.851C493.42 156.957 490.712 160.376 487.071 161.664C486.361 162.063 485.517 162.285 484.652 162.263L483.519 162.241L480.234 162.108L427.043 160.199C424.468 160.11 422.47 157.934 422.559 155.359C422.648 152.784 424.823 150.786 427.398 150.875L470.799 152.451C470.799 152.318 470.754 152.185 470.777 152.029L470.799 151.741L436.9 150.52C434.547 150.431 432.682 148.433 432.748 146.057L432.793 145.347C432.859 142.972 434.88 141.129 437.255 141.196L471.154 142.417L471.176 141.728L427.82 140.152C425.245 140.063 423.247 137.888 423.336 135.313C423.425 132.738 425.6 130.74 428.175 130.828L471.531 132.405L471.554 131.716L437.677 130.473C435.301 130.407 433.459 128.386 433.525 126.011L433.57 125.301C433.636 122.925 435.657 121.083 438.032 121.149L471.931 122.37L471.953 121.682L428.597 120.106C426.022 120.017 424.024 117.841 424.113 115.266C424.202 112.691 426.377 110.693 428.952 110.782L472.308 112.358L472.331 111.67L438.432 110.449C436.078 110.36 434.214 108.362 434.28 105.987L434.325 105.276C434.391 102.901 436.411 101.058 438.787 101.125L472.664 102.368L472.686 101.68L429.33 100.104C426.755 100.015 424.757 97.8395 424.845 95.2643C424.934 92.6891 427.11 90.6912 429.685 90.78L473.041 92.3561L473.063 91.6679L439.164 90.447C436.789 90.3804 434.946 88.3602 435.013 85.9848L435.057 85.2744C435.146 82.9212 437.144 81.0565 439.519 81.1231L473.396 82.3662L473.418 81.678L429.951 80.1241Z" fill="white"/>
<path d="M429.951 80.1241C427.376 80.0353 425.378 77.8597 425.467 75.2845C425.556 72.7093 427.731 70.7114 430.306 70.8002L473.663 72.3763L473.685 71.6881L439.786 70.4672C437.41 70.4006 435.568 68.3804 435.634 66.005L435.679 65.2946C435.768 62.9414 437.766 61.0767 440.141 61.1433L474.018 62.3864L474.04 61.6982L430.684 60.1221C428.109 60.0333 426.111 57.8577 426.2 55.2825C426.288 52.7073 428.464 50.7094 431.039 50.7982L474.417 52.3521L474.44 52.0635C474.44 51.9303 474.484 51.7971 474.506 51.6417L440.585 50.3986C438.21 50.332 436.367 48.3118 436.434 45.9364L436.478 45.226C436.545 42.8506 438.565 41.008 440.94 41.0746L484.563 42.6508L487.848 42.784L489.336 42.8506C490.379 42.8728 491.311 43.3168 492.022 43.9384C495.219 45.6256 497.35 49 497.217 52.8627L493.576 152.851C493.42 156.957 490.712 160.376 487.071 161.664C486.361 162.063 485.517 162.285 484.652 162.263L483.519 162.241L480.234 162.108L427.043 160.199C424.468 160.11 422.47 157.934 422.559 155.359C422.648 152.784 424.823 150.786 427.398 150.875L470.799 152.451C470.799 152.318 470.754 152.185 470.777 152.029L470.799 151.741L436.9 150.52C434.547 150.431 432.682 148.433 432.748 146.057L432.793 145.347C432.859 142.972 434.88 141.129 437.255 141.196L471.154 142.417L471.176 141.728L427.82 140.152C425.245 140.063 423.247 137.888 423.336 135.313C423.425 132.738 425.6 130.74 428.175 130.828L471.531 132.405L471.554 131.716L437.677 130.473C435.301 130.407 433.459 128.386 433.525 126.011L433.57 125.301C433.636 122.925 435.657 121.083 438.032 121.149L471.931 122.37L471.953 121.682L428.597 120.106C426.022 120.017 424.024 117.841 424.113 115.266C424.202 112.691 426.377 110.693 428.952 110.782L472.308 112.358L472.331 111.67L438.432 110.449C436.078 110.36 434.214 108.362 434.28 105.987L434.325 105.276C434.391 102.901 436.411 101.058 438.787 101.125L472.664 102.368L472.686 101.68L429.33 100.104C426.755 100.015 424.757 97.8395 424.845 95.2643C424.934 92.6891 427.11 90.6912 429.685 90.78L473.041 92.3561L473.063 91.6679L439.164 90.447C436.789 90.3804 434.946 88.3602 435.013 85.9848L435.057 85.2744C435.146 82.9212 437.144 81.0565 439.519 81.1231L473.396 82.3662L473.418 81.678L429.951 80.1241Z" stroke="#E61D53" stroke-width="0.776" stroke-miterlimit="10" stroke-linecap="round" stroke-linejoin="round"/>
</svg>
