<svg width="112" height="144" viewBox="0 0 112 144" fill="none" xmlns="http://www.w3.org/2000/svg">
<path d="M34.3506 48.9735C34.5576 46.8151 32.9806 44.903 30.8221 44.696C28.6735 44.489 26.7515 46.066 26.5544 48.2245C26.3474 50.383 27.9244 52.2951 30.0829 52.502C32.2315 52.709 34.1436 51.1222 34.3506 48.9735Z" fill="#010202"/>
<path d="M73.6055 52.8864C73.8125 50.7279 72.2356 48.8158 70.0771 48.6088C67.9186 48.4019 66.0065 49.9788 65.7995 52.1373C65.5925 54.2958 67.1695 56.2079 69.328 56.4149C71.4865 56.6219 73.3986 55.0449 73.6055 52.8864Z" fill="#010202"/>
<path d="M38.1729 66.1233C38.1729 66.1233 38.9712 74.5601 47.0039 75.457C55.0367 76.3539 56.2096 67.5031 56.2096 67.5031" stroke="#010202" stroke-width="2.187" stroke-miterlimit="10" stroke-linecap="round" stroke-linejoin="round"/>
<path d="M67.8109 17.7294C50.7007 14.7036 27.5486 -7.44309 13.4544 6.65116C-0.639872 20.7454 -8.35722 83.9527 30.8997 119.622C30.8997 119.622 9.42323 136.161 18.1459 141.197C26.8686 146.234 46.6695 125.013 46.6695 125.013C46.6695 125.013 53.7166 142.744 62.4393 141.976C71.162 141.207 65.1202 122.214 65.1202 122.214C65.1202 122.214 109.601 96.3517 110.419 39.2059C111.148 -11.7896 73.8428 28.4726 39.2873 17.3943" stroke="#010202" stroke-width="2.187" stroke-miterlimit="10" stroke-linecap="round" stroke-linejoin="round"/>
</svg>
