<svg width="919" height="632" viewBox="0 0 919 632" fill="none" xmlns="http://www.w3.org/2000/svg">
<path d="M899.805 174.889L898.021 171.925C882.898 147.033 855.577 132.038 826.767 133.849C823.058 134.086 819.372 134.592 815.737 135.365C789.544 140.971 766.745 160.766 757.299 186.128C751.743 201.042 750.187 218.209 739.639 230.052C725.926 245.448 702.631 245.931 682.14 245.301C661.65 244.67 638.342 245.207 624.695 260.671C616.134 270.354 613.423 284.128 614.107 297.097C615.932 331.445 639.885 362.144 670.332 377.407C700.779 392.669 736.634 394.037 769.952 387.331C816.636 377.943 861.039 352.085 887.715 312.225C914.391 272.366 921.154 217.941 899.805 174.889Z" fill="#F5F5F5"/>
<path d="M39.1561 174.889L40.9542 171.925C56.0637 147.033 83.3976 132.038 112.208 133.849C115.916 134.086 119.603 134.592 123.238 135.365C149.431 140.971 172.216 160.766 181.676 186.128C187.232 201.042 188.775 218.209 199.322 230.052C213.049 245.448 236.344 245.931 256.821 245.301C277.298 244.67 300.62 245.207 314.28 260.671C322.828 270.354 325.552 284.128 324.854 297.097C323.029 331.445 299.09 362.144 268.643 377.407C238.196 392.669 202.341 394.037 169.009 387.331C122.325 377.943 77.9362 352.085 51.2464 312.225C24.5566 272.366 17.807 217.941 39.1561 174.889Z" fill="#F5F5F5"/>
<path d="M304.417 200.814C326.872 200.814 345.076 182.62 345.076 160.177C345.076 137.733 326.872 119.539 304.417 119.539C281.962 119.539 263.758 137.733 263.758 160.177C263.758 182.62 281.962 200.814 304.417 200.814Z" fill="#F5F5F5"/>
<path d="M694.553 503.907C708.802 489.666 708.802 466.576 694.553 452.335C680.305 438.094 657.203 438.094 642.955 452.335C628.706 466.576 628.706 489.666 642.955 503.907C657.203 518.148 680.305 518.148 694.553 503.907Z" fill="#F5F5F5"/>
<path d="M918.752 565.641C918.752 565.829 713.07 565.99 459.403 565.99C205.736 565.99 0 565.829 0 565.641C0 565.453 205.642 565.292 459.403 565.292C713.164 565.292 918.752 565.453 918.752 565.641Z" fill="#E61D55"/>
<path d="M470.568 0H462.544V22.6256H470.568V0Z" fill="#E61D55"/>
<path d="M433.694 68.1321C433.815 67.2469 446.254 17.7977 446.254 17.7977C459.095 11.8697 472.246 12.1246 485.665 17.7977L496.95 68.1321H433.694Z" fill="#E61D55"/>
<path d="M497.043 68.1318L433.707 68.2123L292.112 596.099L635.806 599.09L497.043 68.1318Z" fill="#4CC5C4"/>
<path opacity="0.7" d="M497.043 68.293L433.707 68.3734L292.112 596.099L635.806 599.251L497.043 68.293Z" fill="white"/>
<path d="M465.322 78.848C482.782 78.848 496.936 74.0503 496.936 68.132C496.936 62.2137 482.782 57.416 465.322 57.416C447.861 57.416 433.707 62.2137 433.707 68.132C433.707 74.0503 447.861 78.848 465.322 78.848Z" fill="white"/>
<path d="M496.948 68.1319C496.876 67.6747 496.759 67.2255 496.6 66.7907C496.018 65.5486 495.085 64.5042 493.916 63.7865C491.031 61.7077 486.066 59.9641 479.799 58.8912C472.432 57.6973 464.945 57.427 457.511 58.0865C453.147 58.4375 448.828 59.2147 444.615 60.4067C442.387 61.0425 440.242 61.9431 438.228 63.0891C437.196 63.6518 436.252 64.361 435.424 65.1947C434.618 65.9887 434.139 67.0559 434.082 68.1856C434.134 69.3164 434.613 70.3854 435.424 71.1764C436.237 71.9925 437.164 72.6881 438.174 73.2418C440.207 74.3885 442.369 75.289 444.615 75.9241C448.849 77.1296 453.191 77.9157 457.578 78.2712C465.016 78.937 472.509 78.6667 479.88 77.4665C486.133 76.3935 491.098 74.65 493.983 72.5846C495.151 71.8591 496.083 70.811 496.667 69.567C496.827 69.1327 496.944 68.6834 497.016 68.2258C497.055 68.7099 496.982 69.1965 496.801 69.6474C496.264 70.9434 495.353 72.05 494.184 72.826C491.286 75.0121 486.294 76.8495 480.001 77.9761C472.59 79.2596 465.044 79.5797 457.551 78.9284C453.118 78.598 448.731 77.8207 444.454 76.6081C442.177 75.9655 439.98 75.0656 437.906 73.9258C436.833 73.3226 435.848 72.5734 434.981 71.6994C434.489 71.264 434.095 70.7292 433.826 70.1304C433.556 69.5316 433.417 68.8825 433.417 68.2258C433.417 67.5691 433.556 66.9199 433.826 66.3211C434.095 65.7223 434.489 65.1876 434.981 64.7521C435.835 63.8378 436.821 63.0558 437.906 62.4319C439.974 61.29 442.167 60.3899 444.441 59.7496C448.719 58.5434 453.106 57.7662 457.538 57.4293C465.031 56.7847 472.576 57.1047 479.987 58.3816C486.281 59.5216 491.272 61.3456 494.171 63.5317C495.34 64.3077 496.251 65.4143 496.787 66.7103C496.95 67.1654 497.005 67.652 496.948 68.1319Z" fill="#E61D55"/>
<path d="M463.979 631.989C559.121 631.989 636.249 616.545 636.249 597.494C636.249 578.442 559.121 562.999 463.979 562.999C368.838 562.999 291.71 578.442 291.71 597.494C291.71 616.545 368.838 631.989 463.979 631.989Z" fill="#4CC5C4"/>
<path opacity="0.4" d="M463.979 631.989C559.121 631.989 636.249 616.545 636.249 597.494C636.249 578.442 559.121 562.999 463.979 562.999C368.838 562.999 291.71 578.442 291.71 597.494C291.71 616.545 368.838 631.989 463.979 631.989Z" fill="white"/>
<path opacity="0.3" d="M480 622.812C480 622.812 485.603 626.071 494.115 621.792C502.628 617.513 515.511 606.755 520.925 607.218C526.338 607.682 525.066 606.953 534.336 611.127C543.606 615.3 554.555 615.631 568.9 613.18C583.245 610.729 592.8 609.643 587.535 603.707C582.271 597.772 564.082 594.672 558.669 592.035C553.256 589.399 505.348 589.386 502.398 591.638C499.447 593.89 480 622.812 480 622.812Z" fill="black"/>
<path d="M486.711 80.725C486.116 80.9674 485.501 81.1559 484.873 81.2883C483.652 81.5834 481.867 81.9321 479.639 82.2539C473.818 83.0747 467.927 83.2905 462.061 82.8977C456.213 82.5191 450.42 81.5302 444.778 79.9471C442.604 79.3436 440.873 78.7803 439.705 78.3243C439.085 78.1281 438.483 77.8767 437.907 77.5732C438.551 77.6841 439.184 77.8501 439.799 78.0695C440.994 78.4316 442.738 78.9278 444.898 79.4777C450.545 80.8861 456.307 81.7838 462.115 82.1601C467.932 82.5217 473.77 82.3601 479.559 81.6772C481.786 81.409 483.585 81.1408 484.806 80.9262C485.433 80.7966 486.071 80.7292 486.711 80.725Z" fill="white"/>
<path d="M433.237 563.012H432.929L432.016 563.079L428.527 563.254C426.998 563.321 425.146 563.428 422.985 563.562C420.825 563.696 418.383 563.83 415.672 564.045C404.83 564.836 389.882 566.258 373.457 568.524C357.033 570.791 342.245 573.46 331.644 575.861C326.344 577.068 322.09 578.181 319.165 578.999L315.81 579.965L314.938 580.206C314.737 580.206 314.629 580.273 314.629 580.206C314.718 580.155 314.813 580.115 314.911 580.085L315.77 579.777L319.098 578.677C321.996 577.778 326.237 576.598 331.537 575.324C342.124 572.803 356.912 570.026 373.363 567.787C389.814 565.547 404.79 564.166 415.645 563.495C418.329 563.321 420.812 563.2 422.972 563.119C425.132 563.039 426.998 562.945 428.514 562.932H432.016H432.929C433.036 562.938 433.141 562.965 433.237 563.012Z" fill="white"/>
<path d="M574.09 223.395L576.773 215.187C573.93 210.955 572.33 206.011 572.157 200.917C571.94 194.69 573.839 188.573 577.543 183.562C581.248 178.551 586.54 174.941 592.56 173.319C598.579 171.698 604.97 172.16 610.692 174.632C616.414 177.104 621.131 181.438 624.075 186.931C627.018 192.423 628.015 198.75 626.902 204.88C625.79 211.011 622.633 216.584 617.948 220.694C613.262 224.803 607.322 227.206 601.096 227.511C594.87 227.817 588.723 226.007 583.657 222.376L574.09 223.395Z" fill="white"/>
<path d="M574.09 223.395L574.734 223.315L576.586 223.087L583.711 222.228L583.644 222.376C583.635 222.368 583.629 222.359 583.624 222.349C583.619 222.338 583.617 222.327 583.617 222.315C583.617 222.304 583.619 222.293 583.624 222.282C583.629 222.272 583.635 222.263 583.644 222.255C583.658 222.245 583.674 222.24 583.691 222.24C583.708 222.24 583.724 222.245 583.738 222.255C587.488 224.925 591.848 226.612 596.419 227.164C597.829 227.338 599.252 227.396 600.672 227.338C602.186 227.263 603.693 227.08 605.181 226.788C609.954 225.822 614.383 223.602 618.012 220.357C621.641 217.112 624.34 212.959 625.83 208.325C627.319 203.691 627.547 198.744 626.488 193.993C625.43 189.243 623.124 184.86 619.807 181.296C616.768 178.025 612.971 175.551 608.75 174.093C604.73 172.698 600.443 172.239 596.217 172.752C592.244 173.253 588.432 174.627 585.053 176.776C579.047 180.61 574.758 186.617 573.083 193.54C573.003 193.929 572.922 194.318 572.828 194.694C572.739 195.069 572.676 195.45 572.641 195.834C572.547 196.585 572.453 197.336 572.372 198.074C572.291 199.499 572.291 200.927 572.372 202.352C572.771 206.908 574.303 211.292 576.827 215.107C575.928 217.789 575.244 219.787 574.761 221.169C574.533 221.866 574.345 222.389 574.224 222.751C574.103 223.113 574.023 223.288 574.023 223.288L574.184 222.778C574.305 222.416 574.466 221.893 574.694 221.209C575.15 219.801 575.807 217.735 576.68 215.066C574.1 211.245 572.526 206.835 572.104 202.245C571.993 200.808 571.971 199.366 572.037 197.926C572.117 197.175 572.198 196.424 572.292 195.66C572.327 195.271 572.39 194.886 572.48 194.506C572.56 194.117 572.654 193.728 572.735 193.339C574.387 186.317 578.721 180.219 584.811 176.347C588.223 174.146 592.083 172.735 596.11 172.216C600.397 171.682 604.75 172.141 608.831 173.557C613.111 175.033 616.961 177.544 620.035 180.866C620.43 181.261 620.798 181.682 621.136 182.127L622.182 183.468L623.095 184.809C623.419 185.259 623.706 185.735 623.954 186.231L624.732 187.693C624.974 188.181 625.189 188.683 625.376 189.195C625.577 189.705 625.806 190.201 625.98 190.711C626.154 191.22 626.289 191.757 626.436 192.266C627.47 195.938 627.732 199.784 627.206 203.562C626.681 207.341 625.379 210.969 623.383 214.22C621.387 217.471 618.739 220.275 615.607 222.454C612.474 224.633 608.925 226.14 605.181 226.882C603.676 227.18 602.151 227.364 600.619 227.432C599.189 227.481 597.757 227.414 596.338 227.231C591.734 226.657 587.35 224.932 583.59 222.215L583.711 222.094C583.72 222.102 583.726 222.111 583.731 222.121C583.736 222.132 583.738 222.143 583.738 222.154C583.738 222.166 583.736 222.177 583.731 222.188C583.726 222.198 583.72 222.207 583.711 222.215L576.519 222.966L574.694 223.154L574.09 223.395Z" fill="#E61D55"/>
<path d="M587.039 200.635L590.89 196.384L599.062 202.942L611.206 189.007L615.178 192.87L598.874 210.788L587.039 200.635Z" fill="#7F7F7F"/>
<path d="M528.204 194.971C530.624 197.016 532.514 199.617 533.713 202.549C534.911 205.482 535.383 208.661 535.088 211.816C534.766 214.86 533.826 218.321 535.745 220.708C537.664 223.095 541.502 223.109 543.327 225.536C545.46 228.393 543.488 232.497 544.186 235.997C544.564 237.635 545.513 239.084 546.863 240.087C548.212 241.089 549.875 241.579 551.553 241.469C547.536 244.549 542.75 246.465 537.718 247.008C536.483 245.332 535.249 243.669 534.028 241.992C534.645 242.938 534.928 244.062 534.833 245.187C534.739 246.312 534.271 247.373 533.504 248.202C531.923 249.818 529.904 250.937 527.694 251.421C522.499 252.863 517.04 253.086 511.745 252.072C506.449 251.058 501.46 248.833 497.167 245.573" fill="#E61D55"/>
<path d="M470.021 220.32C471.059 218.09 471.977 215.807 472.772 213.48C474.033 208.329 471.671 202.428 474.315 197.841C476.194 194.582 480.058 193.067 483.708 192.061C487.358 191.055 491.236 190.224 494 187.648C496.026 185.771 497.221 183.142 499.234 181.251C502.119 178.569 506.278 177.737 510.21 177.603C514.27 177.328 518.333 178.104 522.005 179.856C523.826 180.751 525.411 182.06 526.632 183.68C527.853 185.299 528.677 187.182 529.036 189.177C529.291 191.136 529.036 193.201 529.56 195.065C530.083 196.929 531.747 198.78 532.7 200.738C533.645 202.833 533.868 205.183 533.334 207.418C532.8 209.654 531.538 211.649 529.748 213.091L501.018 248.095C495.127 250.134 481.091 247.076 476.717 242.65C472.342 238.224 467.914 226.18 470.021 220.32Z" fill="#E61D55"/>
<path d="M529.117 208.531C528.204 200.376 522.3 190.599 514.182 191.847L489.022 199.518C487.839 199.709 486.771 200.335 486.026 201.273C485.281 202.211 484.914 203.393 484.996 204.588L490.672 263.599C490.672 263.599 488.794 265.061 487.599 264.578C487.534 264.551 487.462 264.546 487.393 264.562C487.324 264.578 487.263 264.616 487.216 264.669C487.17 264.723 487.142 264.79 487.136 264.86C487.13 264.93 487.147 265.001 487.183 265.061C490.055 269.501 503.648 288.881 518.369 283.502C521.656 282.295 518.369 271.955 518.838 268.159L518.691 258.463C518.503 253.5 518.409 251.462 518.409 251.515C518.409 251.569 528.781 249.276 530.284 235.529C531.063 228.648 530.137 217.584 529.117 208.531Z" fill="#FFBF9D"/>
<path d="M525.695 220.949C525.718 221.405 525.562 221.851 525.262 222.193C524.962 222.536 524.54 222.749 524.085 222.787C523.864 222.815 523.639 222.798 523.424 222.738C523.209 222.678 523.008 222.576 522.833 222.437C522.658 222.299 522.512 222.126 522.405 221.931C522.297 221.735 522.23 221.52 522.207 221.298C522.18 220.843 522.332 220.395 522.63 220.05C522.928 219.704 523.349 219.488 523.803 219.447C524.027 219.419 524.253 219.436 524.47 219.497C524.687 219.557 524.889 219.661 525.065 219.801C525.242 219.941 525.388 220.114 525.496 220.312C525.604 220.509 525.672 220.726 525.695 220.949Z" fill="#E61D55"/>
<path d="M508.251 221.513C508.281 221.97 508.13 222.419 507.831 222.765C507.532 223.111 507.11 223.326 506.654 223.364C506.432 223.392 506.208 223.376 505.992 223.316C505.777 223.256 505.576 223.153 505.402 223.015C505.227 222.876 505.081 222.704 504.973 222.508C504.866 222.313 504.799 222.097 504.775 221.875C504.749 221.42 504.901 220.973 505.199 220.627C505.497 220.282 505.918 220.066 506.372 220.025C506.594 219.995 506.82 220.01 507.035 220.069C507.251 220.128 507.453 220.231 507.628 220.37C507.804 220.509 507.949 220.682 508.056 220.878C508.163 221.075 508.229 221.291 508.251 221.513Z" fill="#E61D55"/>
<path d="M527.815 215.237C527.614 215.545 526.017 214.472 523.978 214.714C521.938 214.955 520.596 216.31 520.341 216.055C520.086 215.8 520.341 215.398 520.958 214.714C521.725 213.919 522.746 213.416 523.843 213.292C524.936 213.178 526.034 213.453 526.943 214.07C527.641 214.606 527.923 215.102 527.815 215.237Z" fill="#E61D55"/>
<path d="M509.512 216.242C509.257 216.523 507.701 215.316 505.487 215.343C503.272 215.37 501.716 216.577 501.461 216.282C501.206 215.987 501.582 215.652 502.279 215.088C503.201 214.385 504.327 213.999 505.487 213.989C506.64 213.976 507.764 214.349 508.68 215.048C509.391 215.598 509.593 216.108 509.512 216.242Z" fill="#E61D55"/>
<path d="M516.007 229.305C516.969 228.965 517.97 228.744 518.986 228.648C519.455 228.567 519.912 228.447 519.979 228.125C519.993 227.627 519.857 227.137 519.59 226.716L517.979 223.122C515.752 218.012 514.115 213.734 514.329 213.734C514.544 213.734 516.503 217.757 518.731 222.827C519.268 224.088 519.791 225.295 520.274 226.448C520.612 227.012 520.732 227.68 520.609 228.326C520.551 228.499 520.452 228.656 520.322 228.784C520.191 228.912 520.032 229.008 519.858 229.064C519.596 229.145 519.326 229.194 519.053 229.211C518.046 229.371 517.022 229.402 516.007 229.305Z" fill="#E61D55"/>
<path d="M518.382 251.515C511.961 251.91 505.555 250.518 499.878 247.492C499.878 247.492 504.923 256.88 518.53 254.895L518.382 251.515Z" fill="#FF9A6C"/>
<path d="M510.116 234.616C510.346 234.166 510.688 233.783 511.109 233.503C511.624 233.275 512.203 233.233 512.746 233.382C513.547 233.531 514.28 233.93 514.839 234.522C515.115 234.822 515.305 235.192 515.388 235.591C515.47 235.99 515.443 236.404 515.309 236.789C515.081 237.567 513.9 237.969 513.095 238.13C512.275 238.213 511.452 238.014 510.76 237.567C510.452 237.418 510.186 237.196 509.985 236.92C509.784 236.644 509.653 236.322 509.606 235.984C509.646 235.49 509.823 235.016 510.116 234.616Z" fill="#FF9A6C"/>
<path d="M510.573 231.988C510.881 231.988 510.988 234 512.8 235.368C514.612 236.736 516.826 236.4 516.826 236.709C516.826 237.017 516.369 237.138 515.484 237.205C514.289 237.271 513.108 236.92 512.142 236.212C511.218 235.529 510.594 234.515 510.398 233.383C510.237 232.497 510.438 231.988 510.573 231.988Z" fill="#E61D55"/>
<path d="M509.592 208.879C509.431 209.402 507.539 209.254 505.339 209.616C503.138 209.978 501.394 210.689 501.072 210.233C500.937 210.032 501.219 209.536 501.917 208.999C502.851 208.348 503.921 207.917 505.046 207.738C506.17 207.559 507.321 207.637 508.412 207.967C509.19 208.248 509.592 208.637 509.592 208.879Z" fill="#E61D55"/>
<path d="M526.849 208.343C526.5 208.786 524.997 208.343 523.213 208.477C521.428 208.611 519.925 208.933 519.563 208.477C519.402 208.276 519.563 207.833 520.261 207.391C521.14 206.85 522.153 206.562 523.186 206.559C524.213 206.518 525.23 206.764 526.125 207.27C526.782 207.699 527.037 208.128 526.849 208.343Z" fill="#E61D55"/>
<path d="M483.453 201.315C484.959 199.544 486.981 198.288 489.237 197.721C498.631 194.398 508.388 192.205 518.301 191.189C519.469 193.255 518.301 195.977 516.369 197.399C514.34 198.63 512.131 199.535 509.821 200.081C507.58 200.846 505.272 202.066 504.292 204.226C503.313 206.385 503.997 209.295 503.085 211.642C501.501 215.666 495.771 216.833 494.201 220.87C493.021 223.928 494.725 227.267 495.074 230.526C495.259 232.183 495.089 233.86 494.574 235.446C494.058 237.032 493.21 238.489 492.086 239.721C490.962 240.953 489.587 241.93 488.054 242.588C486.522 243.246 484.866 243.569 483.198 243.536C482.849 231.814 482.505 220.096 482.165 208.383C482.084 205.956 482.071 203.327 483.453 201.315Z" fill="#E61D55"/>
<path d="M459.044 230.203C460.936 228.594 463.298 227.239 464.103 224.839C465.271 221.405 462.614 217.274 464.479 214.19C466.197 211.373 470.987 211.641 472.53 208.825C473.778 206.572 472.53 204.52 472.986 202.521C473.425 201.458 474.188 200.56 475.165 199.954C476.143 199.347 477.287 199.063 478.434 199.142L493.759 222.746C495.02 230.552 496.442 234.737 494.604 239.229C493.437 241.618 492.537 244.128 491.92 246.713C491.491 249.329 492.081 252.333 494.188 253.942C484.607 254.425 475.791 249.168 467.646 244.098L459.031 238.733C458.09 238.242 457.284 237.528 456.683 236.654C455.515 234.495 457.139 231.813 459.044 230.203Z" fill="#E61D55"/>
<path d="M467.539 241.738C467.862 241.858 468.201 241.935 468.545 241.966C469.537 242.099 470.545 242.058 471.524 241.845C473.093 241.518 474.55 240.788 475.751 239.726C477.333 238.286 478.355 236.334 478.636 234.214C478.808 232.992 478.739 231.748 478.435 230.552C478.039 229.28 477.475 228.067 476.757 226.945C476.004 225.791 475.421 224.536 475.026 223.216C474.827 222.541 474.78 221.829 474.889 221.134C474.998 220.438 475.261 219.775 475.657 219.193C476.556 218.053 478.18 217.851 479.682 217.248C480.504 216.982 481.228 216.477 481.762 215.799C482.257 215.068 482.511 214.201 482.487 213.318C482.328 211.621 482.014 209.942 481.548 208.302C481.36 207.499 481.36 206.664 481.548 205.861C481.783 205.079 482.293 204.407 482.984 203.97C484.473 203.153 486.156 202.754 487.854 202.817C489.595 202.788 491.301 202.327 492.819 201.476C494.279 200.628 495.481 199.4 496.295 197.922C496.972 196.484 497.425 194.95 497.637 193.375C497.841 191.92 498.196 190.491 498.697 189.11C499.231 187.845 500.032 186.711 501.045 185.784C502.729 184.259 504.854 183.308 507.113 183.067C509.373 182.826 511.65 183.307 513.618 184.443C514.977 185.192 516.194 186.172 517.215 187.34C518.075 188.356 518.81 189.473 519.402 190.666C519.402 190.666 519.402 190.585 519.321 190.411C519.241 190.237 519.16 190.009 519.013 189.7C517.851 187.375 516.025 185.447 513.766 184.161C511.933 183.094 509.834 182.569 507.714 182.646C505.126 182.773 502.659 183.781 500.723 185.502C499.657 186.47 498.81 187.654 498.241 188.976C497.725 190.388 497.352 191.848 497.127 193.335C496.908 194.857 496.455 196.336 495.785 197.72C495.01 199.109 493.874 200.263 492.497 201.06C491.051 201.86 489.427 202.285 487.774 202.294C485.977 202.236 484.197 202.663 482.621 203.528C481.827 204.048 481.243 204.832 480.971 205.741C480.741 206.618 480.718 207.536 480.904 208.423C481.365 210.028 481.683 211.671 481.856 213.332C481.875 214.103 481.654 214.862 481.226 215.504C480.772 216.13 480.134 216.599 479.401 216.846C478.676 217.127 477.898 217.315 477.146 217.61C476.371 217.868 475.679 218.331 475.147 218.951C474.701 219.595 474.407 220.331 474.286 221.104C474.165 221.878 474.221 222.668 474.449 223.417C474.856 224.786 475.462 226.087 476.247 227.28C476.952 228.36 477.512 229.528 477.911 230.754C478.218 231.894 478.296 233.084 478.139 234.254C477.901 236.301 476.951 238.2 475.456 239.619C474.316 240.659 472.931 241.393 471.43 241.751C470.144 242 468.822 241.996 467.539 241.738Z" fill="#4CC5C4"/>
<path d="M555.807 233.476C556.064 234.293 556.031 235.175 555.713 235.971C555.535 236.428 555.259 236.84 554.904 237.178C554.55 237.517 554.125 237.773 553.66 237.929C553.039 238.094 552.385 238.083 551.77 237.896C551.156 237.709 550.606 237.353 550.184 236.869C549.701 236.309 549.43 235.597 549.419 234.857C549.413 234.033 549.558 233.215 549.849 232.443C550.412 230.847 551.486 229.117 551.392 226.998C551.359 225.929 551.103 224.878 550.641 223.912C550.179 222.947 549.521 222.089 548.708 221.392C547.837 220.668 546.841 220.109 545.769 219.742C544.673 219.4 543.536 219.201 542.388 219.152C541.276 219.115 540.171 218.972 539.087 218.723C538.074 218.479 537.181 217.885 536.564 217.047C536.018 216.193 535.725 215.203 535.719 214.19C535.684 213.2 535.793 212.211 536.041 211.253C536.615 209.448 536.958 207.578 537.061 205.687C537.019 204.002 536.467 202.37 535.477 201.006C534.646 199.928 533.617 199.018 532.445 198.324C531.586 197.793 530.77 197.196 530.002 196.54C529.362 195.964 528.851 195.261 528.5 194.475C528.5 194.475 528.5 194.475 528.5 194.649C528.547 194.809 528.605 194.966 528.674 195.118C528.955 195.71 529.347 196.243 529.828 196.688C530.579 197.383 531.387 198.016 532.243 198.579C533.361 199.289 534.339 200.198 535.128 201.261C536.04 202.574 536.54 204.129 536.564 205.727C536.442 207.578 536.09 209.407 535.518 211.172C535.252 212.174 535.13 213.208 535.155 214.244C535.165 215.355 535.486 216.442 536.081 217.382C536.769 218.33 537.773 219 538.912 219.273C540.027 219.535 541.164 219.692 542.307 219.742C543.413 219.785 544.509 219.969 545.568 220.292C546.576 220.634 547.513 221.156 548.332 221.835C549.1 222.477 549.726 223.27 550.171 224.166C550.617 225.061 550.873 226.039 550.922 227.038C551.03 228.97 550.023 230.633 549.46 232.323C549.153 233.146 549.008 234.02 549.03 234.898C549.052 235.736 549.37 236.539 549.929 237.164C550.404 237.693 551.019 238.077 551.704 238.269C552.388 238.461 553.113 238.455 553.794 238.251C554.296 238.078 554.752 237.792 555.127 237.415C555.501 237.038 555.784 236.581 555.954 236.078C556.186 235.457 556.237 234.782 556.102 234.133C556.045 233.898 555.945 233.675 555.807 233.476Z" fill="#E61D55"/>
<path opacity="0.5" d="M496.174 184.993C496.174 184.993 495.611 185.65 494.376 187.246C493.142 188.842 489.975 190.277 488.754 190.76C487.533 191.242 482.729 192.382 480.703 193.08C478.79 193.857 477.058 195.022 475.617 196.5C473.671 198.163 473.457 200.067 472.933 201.677C472.41 203.286 473.134 205.07 473.094 206.545C472.992 207.841 472.527 209.082 471.752 210.126C470.92 211.669 467.042 212.339 465.311 213.412C463.58 214.485 463.889 216.604 463.809 217.57C463.885 218.854 464.051 220.131 464.305 221.392C464.418 222.229 464.418 223.077 464.305 223.913C464.15 224.83 463.782 225.698 463.232 226.448C462.434 227.391 461.534 228.241 460.548 228.983L458.857 230.391C456.965 231.987 455.489 234.509 456.71 236.668C457.311 237.542 458.118 238.256 459.058 238.747C459.058 238.747 462.923 237.191 465.768 231.437C467.297 228.286 467.982 224.906 468.035 219.447C468.035 214.673 473.296 214.914 475.147 211.4C478.448 205.11 475.375 202.146 479.562 199.102C484.433 195.561 486.392 199.585 494.645 191.524C500.844 185.462 501.529 182.417 509.15 179.883C517.081 177.2 525.669 182.565 525.669 182.565C524.592 181.489 523.356 180.585 522.005 179.883C518.333 178.13 514.271 177.354 510.21 177.629C506.279 177.764 502.159 178.582 499.234 181.277C498.609 181.863 498.035 182.5 497.516 183.182L497.221 183.571" fill="white"/>
<path opacity="0.5" d="M533.599 223.377C536.175 226.717 540.026 226.985 540.026 232.001C540.026 237.017 544.535 243.562 544.535 243.562V245.359C547.033 244.413 549.379 243.107 551.499 241.483C549.823 241.594 548.162 241.106 546.813 240.106C545.464 239.106 544.514 237.66 544.132 236.025C543.435 232.524 545.407 228.407 543.274 225.55C541.449 223.122 537.584 223.082 535.692 220.722C533.8 218.361 534.712 214.874 535.035 211.83C535.526 206.665 533.965 201.515 530.687 197.493C530.684 197.461 530.684 197.43 530.687 197.399C531.143 197.774 531.68 198.15 532.257 198.552C533.372 199.266 534.349 200.174 535.142 201.234C536.054 202.548 536.553 204.102 536.578 205.701C536.458 207.552 536.106 209.381 535.531 211.146C535.266 212.147 535.145 213.181 535.169 214.217C535.179 215.329 535.5 216.416 536.095 217.355C536.786 218.302 537.788 218.976 538.926 219.26C540.041 219.518 541.177 219.67 542.321 219.716C543.426 219.764 544.522 219.949 545.582 220.266C546.589 220.607 547.526 221.13 548.346 221.808C549.113 222.451 549.738 223.245 550.184 224.14C550.629 225.035 550.885 226.013 550.936 227.012C551.043 228.957 550.037 230.606 549.473 232.296C549.167 233.119 549.021 233.993 549.044 234.871C549.065 235.709 549.384 236.512 549.943 237.138C550.419 237.665 551.033 238.048 551.717 238.243C552.4 238.437 553.125 238.435 553.807 238.237C554.619 237.933 555.296 237.351 555.719 236.595C556.141 235.838 556.282 234.957 556.115 234.107C556.068 233.883 555.982 233.67 555.86 233.476C556.118 234.294 556.085 235.175 555.766 235.971C555.591 236.429 555.315 236.842 554.96 237.181C554.605 237.519 554.179 237.775 553.713 237.929C553.094 238.095 552.441 238.085 551.827 237.9C551.213 237.715 550.663 237.363 550.238 236.883C549.757 236.316 549.486 235.601 549.473 234.858C549.469 234.034 549.614 233.216 549.902 232.444C550.466 230.848 551.54 229.117 551.446 226.998C551.413 225.929 551.157 224.878 550.695 223.913C550.233 222.947 549.574 222.089 548.762 221.392C547.891 220.668 546.895 220.109 545.823 219.743C544.726 219.405 543.589 219.211 542.442 219.166C541.33 219.118 540.225 218.97 539.141 218.723C538.128 218.479 537.235 217.886 536.618 217.047C536.074 216.197 535.781 215.212 535.773 214.204C535.745 213.21 535.853 212.217 536.095 211.253C536.668 209.453 537.01 207.587 537.114 205.701C537.073 204.012 536.521 202.376 535.531 201.006C534.694 199.934 533.666 199.024 532.498 198.324C531.778 197.867 531.084 197.37 530.419 196.835C530.104 196.287 529.847 195.707 529.654 195.105C529.09 193.214 529.385 191.176 529.13 189.218C528.742 186.719 527.561 184.411 525.762 182.632C527.963 187.286 529.345 192.664 528.54 196.701C528.11 198.901 532.109 200.899 532.566 206.586C533.022 212.272 532.311 221.687 533.599 223.377Z" fill="white"/>
<path d="M529.05 189.593C529.05 189.593 528.969 188.842 528.553 187.554C527.952 185.746 526.899 184.121 525.494 182.833C523.346 180.994 520.836 179.623 518.127 178.81C514.848 177.697 511.347 177.402 507.929 177.952C504.508 178.508 501.31 180.009 498.697 182.284C497.563 183.288 496.578 184.449 495.771 185.73C495.058 186.895 494.15 187.93 493.088 188.788C491.507 189.954 489.71 190.793 487.801 191.256C487.288 191.385 486.768 191.483 486.244 191.551C485.882 191.551 485.694 191.551 485.694 191.551C485.694 191.551 486.432 191.377 487.72 190.961C489.55 190.42 491.265 189.547 492.779 188.386C493.772 187.533 494.611 186.517 495.261 185.382C496.091 184.061 497.098 182.861 498.254 181.814C500.943 179.433 504.25 177.857 507.794 177.268C511.329 176.707 514.948 177.03 518.328 178.206C521.105 179.088 523.662 180.551 525.829 182.498C527.26 183.861 528.286 185.592 528.795 187.501C528.931 188.015 529.021 188.54 529.063 189.07C529.09 189.405 529.077 189.593 529.05 189.593Z" fill="white"/>
<path d="M544.481 237.192C544.481 237.192 544.387 237.057 544.253 236.776C544.076 236.346 543.954 235.895 543.891 235.435C543.717 233.812 543.717 232.175 543.891 230.553C543.965 229.461 543.888 228.364 543.663 227.294C543.342 226.111 542.584 225.095 541.542 224.45C540.343 223.725 539.102 223.071 537.825 222.492C536.332 221.882 535.086 220.792 534.283 219.394C533.726 217.891 533.642 216.253 534.041 214.7C534.349 213.328 534.542 211.933 534.618 210.529C534.697 208.158 534.333 205.793 533.545 203.555C532.76 201.502 531.714 199.559 530.432 197.774C530.432 197.774 530.566 197.855 530.781 198.083C531.091 198.402 531.378 198.743 531.639 199.102C532.625 200.41 533.42 201.85 534.001 203.381C534.881 205.664 535.309 208.096 535.262 210.542C535.207 211.977 535.027 213.404 534.726 214.807C534.356 216.224 534.421 217.72 534.913 219.099C535.655 220.354 536.786 221.333 538.134 221.889C539.44 222.482 540.704 223.163 541.918 223.927C543.073 224.67 543.899 225.827 544.226 227.16C544.442 228.286 544.496 229.438 544.387 230.58C544.182 232.176 544.115 233.787 544.186 235.394C544.293 236.575 544.562 237.165 544.481 237.192Z" fill="white"/>
<path d="M485.707 191.524C483.635 191.908 481.62 192.553 479.709 193.442C477.696 194.444 475.972 195.945 474.704 197.801C473.979 198.906 473.473 200.14 473.215 201.436C473.028 202.863 472.978 204.304 473.067 205.741C473.18 207.278 472.794 208.812 471.967 210.113C470.996 211.181 469.715 211.917 468.303 212.219C467.148 212.481 466.065 212.998 465.137 213.734C464.408 214.467 463.918 215.401 463.728 216.417C463.49 217.924 463.577 219.465 463.983 220.936C464.154 221.482 464.27 222.044 464.331 222.613C464.062 222.108 463.854 221.572 463.714 221.017C463.197 219.509 463.037 217.903 463.244 216.323C463.422 215.2 463.942 214.161 464.734 213.345C465.713 212.518 466.87 211.931 468.115 211.629C469.384 211.351 470.536 210.691 471.416 209.737C472.158 208.533 472.492 207.123 472.369 205.714C472.28 204.236 472.338 202.754 472.544 201.288C472.827 199.911 473.379 198.603 474.167 197.439C475.522 195.488 477.376 193.936 479.535 192.946C480.956 192.271 482.472 191.819 484.03 191.605C484.583 191.504 485.147 191.477 485.707 191.524Z" fill="white"/>
<path d="M530.419 230.432C530.309 229.921 530.259 229.398 530.271 228.876C530.271 227.722 530.15 226.314 530.07 224.638C529.882 221.07 529.587 216.135 528.996 210.716C528.66 206.093 527.135 201.635 524.568 197.774C523.407 196.264 522.054 194.911 520.542 193.75C521.024 193.946 521.475 194.208 521.884 194.528C523.063 195.347 524.105 196.348 524.971 197.492C527.721 201.363 529.355 205.914 529.694 210.649C530.284 216.094 530.513 221.043 530.566 224.638C530.566 226.422 530.566 227.883 530.566 228.876C530.58 229.399 530.53 229.921 530.419 230.432Z" fill="white"/>
<path d="M482.675 561.648L485.909 598.665L502.159 596.666L504.279 560.32L482.675 561.648Z" fill="#E61D55"/>
<path d="M502.427 589.344C502.427 589.344 491.303 598.249 485.439 591.315L484.097 594.883L478.73 620.097C478.536 620.879 478.632 621.705 478.999 622.422C479.366 623.139 479.981 623.7 480.729 624C481.301 624.201 481.92 624.231 482.509 624.085C483.098 623.94 483.631 623.626 484.044 623.182C488.579 618.353 505.138 600.516 504.87 598.222L504.548 592.12C504.518 591.506 504.307 590.915 503.942 590.421C503.576 589.927 503.073 589.552 502.494 589.344H502.427Z" fill="#E61D55"/>
<path d="M481.239 624.148L504.721 596.131V597.472C504.772 598.018 504.705 598.569 504.524 599.088C504.344 599.606 504.054 600.079 503.675 600.476C501.796 603.32 496.55 609.744 484.016 623.276C483.661 623.658 483.216 623.946 482.722 624.114C482.228 624.283 481.7 624.327 481.185 624.242L481.239 624.148Z" fill="#4CC5C4"/>
<path d="M487.761 610.051C487.586 610.145 486.821 608.522 484.956 607.717C483.812 607.31 482.599 607.132 481.387 607.194C481.387 607.114 481.736 606.846 482.447 606.712C483.396 606.565 484.367 606.696 485.243 607.089C486.119 607.481 486.863 608.119 487.385 608.924C487.761 609.541 487.828 610.024 487.761 610.051Z" fill="#FAFAFA"/>
<path d="M485.721 614.371C485.573 614.518 484.554 613.539 482.943 613.137C481.939 612.987 480.926 612.902 479.911 612.882C480.368 612.557 480.899 612.349 481.456 612.277C482.012 612.204 482.579 612.269 483.104 612.466C484.943 612.922 485.882 614.277 485.721 614.371Z" fill="#FAFAFA"/>
<path d="M491.638 604.458C490.304 603.622 488.909 602.887 487.465 602.259C485.95 601.854 484.407 601.558 482.849 601.374C484.438 600.86 486.16 600.941 487.693 601.602C489.306 602.056 490.704 603.068 491.638 604.458Z" fill="#FAFAFA"/>
<path d="M491.853 596.854C491.853 597.042 490.055 596.398 487.828 596.412C485.6 596.425 483.802 597.056 483.802 596.868C484.964 596.017 486.391 595.608 487.828 595.714C489.263 595.598 490.693 596.003 491.853 596.854Z" fill="#E61D55"/>
<path d="M486.566 596.412C486.526 596.01 486.567 595.604 486.687 595.219C486.939 594.154 487.395 593.147 488.029 592.255C488.437 591.566 489.059 591.029 489.8 590.726C490.048 590.659 490.31 590.671 490.55 590.76C490.791 590.849 490.998 591.01 491.142 591.222C491.416 591.662 491.521 592.186 491.437 592.697C491.231 593.728 490.673 594.655 489.857 595.318C489.041 595.981 488.02 596.34 486.969 596.332C485.938 596.291 484.943 595.94 484.114 595.325C483.286 594.71 482.663 593.86 482.326 592.885C482.236 592.636 482.201 592.371 482.222 592.108C482.242 591.844 482.319 591.588 482.447 591.356C482.591 591.145 482.799 590.985 483.04 590.899C483.28 590.812 483.542 590.803 483.788 590.873C484.521 591.141 485.166 591.605 485.654 592.214C486.384 593.002 486.974 593.91 487.398 594.897C487.589 595.253 487.698 595.647 487.72 596.05C487.092 594.766 486.284 593.578 485.318 592.523C484.859 592.019 484.29 591.629 483.654 591.383C483.517 591.339 483.369 591.342 483.233 591.39C483.097 591.439 482.981 591.53 482.903 591.651C482.772 591.974 482.772 592.334 482.903 592.657C483.22 593.483 483.768 594.2 484.482 594.723C485.196 595.246 486.045 595.553 486.928 595.608C487.818 595.609 488.683 595.309 489.38 594.756C490.077 594.203 490.566 593.43 490.766 592.563C490.836 592.211 490.779 591.845 490.605 591.53C490.529 591.407 490.413 591.313 490.277 591.262C490.141 591.211 489.993 591.206 489.854 591.249C489.227 591.503 488.693 591.943 488.324 592.51C487.522 593.702 486.928 595.022 486.566 596.412Z" fill="#FAFAFA"/>
<path d="M545.957 592.536C545.609 591.959 542.562 579.513 542.562 579.513L563.67 574.403L566.139 592.281L545.957 592.536Z" fill="#E61D55"/>
<path d="M566.059 588.781V590.202C566.059 590.202 588.871 600.248 589.018 604.821L543.395 603.856L544.361 587.949C547.681 589.712 551.357 590.703 555.114 590.847C558.872 590.991 562.613 590.285 566.059 588.781Z" fill="#E61D55"/>
<path d="M543.421 603.856L543.649 600.033L587.246 602.353C587.246 602.353 589.259 603.319 588.991 604.821L543.421 603.856Z" fill="#4CC5C4"/>
<path d="M566.193 590.336C566.193 590.577 565.066 590.658 563.952 591.382C562.838 592.106 562.234 593.085 562.033 592.978C561.832 592.87 562.194 591.543 563.549 590.684C564.905 589.826 566.247 590.121 566.193 590.336Z" fill="#FAFAFA"/>
<path d="M570.929 592.509C570.929 592.737 570.003 593.126 569.225 594.091C568.447 595.057 568.205 596.103 567.977 596.09C567.749 596.076 567.655 594.748 568.635 593.555C569.614 592.361 570.929 592.294 570.929 592.509Z" fill="#FAFAFA"/>
<path d="M573.507 598.584C573.305 598.584 573.024 597.457 573.627 596.183C574.231 594.909 575.278 594.426 575.358 594.628C575.439 594.829 574.795 595.486 574.312 596.545C573.829 597.605 573.735 598.557 573.507 598.584Z" fill="#FAFAFA"/>
<path d="M534.713 360.486C534.713 360.486 548.131 421.08 556.263 481.098C562.973 530.467 564.959 583.752 564.959 583.752L541.248 584.476C541.248 584.476 528.554 523.13 518.557 479.006C509.351 438.315 501.542 416.883 501.542 416.883L495.235 357.401L534.713 360.486Z" fill="#E61D55"/>
<path d="M473.068 356.784C473.068 356.784 451.517 384.225 452.43 413.583C452.98 431.139 482.85 587.936 482.85 587.936H506.775L503.072 422.126L511.727 368.184L473.068 356.784Z" fill="#E61D55"/>
<path d="M568.756 250.71C568.505 252.858 568.019 254.972 567.306 257.013C566.819 259.12 566.113 261.17 565.2 263.129C565.448 260.982 565.929 258.869 566.636 256.826C567.116 254.716 567.827 252.665 568.756 250.71Z" fill="white"/>
<path d="M568.554 250.335L564.421 264.028L562.891 266.348C562.891 266.348 561.751 273.926 561.711 275.535C561.67 277.145 564.059 285.487 564.059 285.487L559.644 293.131L572.754 297.651C572.754 297.651 576.028 290.691 576.981 289.886C578.004 288.573 578.611 286.985 578.725 285.326C578.913 283.824 580.537 274.878 580.537 274.878C580.537 274.878 585.904 264.886 583.529 264.471C582.928 264.437 582.326 264.469 581.731 264.564C581.731 264.564 578.497 271.136 577.571 271.27L576.23 270.559C576.23 270.559 578.591 260.608 578.658 258.757C578.725 256.906 578.31 255.619 576.874 255.458C576.874 255.458 575.827 255.927 575.746 256.397C575.666 256.866 573.358 267.958 572.741 267.77C572.123 267.582 572.378 266.576 572.378 266.576C572.378 266.576 575.505 253.164 575.304 252.36C575.221 251.846 574.95 251.381 574.543 251.056C574.136 250.731 573.623 250.569 573.103 250.603L570.607 258.019C570.607 258.019 571.681 251.81 570.607 250.75C570.359 250.464 570.023 250.269 569.651 250.193C569.28 250.118 568.894 250.168 568.554 250.335Z" fill="#FFBF9D"/>
<path d="M572.325 280.19C572.218 280.19 572.258 279.036 571.762 277.212C571.049 274.775 569.561 272.637 567.521 271.123L567.333 271.003V270.788C567.535 269.809 567.736 268.763 567.937 267.703V267.636C568.152 267.301 568.367 266.925 568.568 266.536C569.247 265.313 569.701 263.977 569.91 262.593C570.009 261.986 569.977 261.364 569.816 260.769C569.752 260.53 569.622 260.313 569.442 260.143C569.262 259.972 569.039 259.855 568.796 259.804L569.011 259.71C567.521 261.239 566.26 262.513 565.374 263.371C564.938 263.871 564.447 264.321 563.912 264.712C564.256 264.156 564.666 263.643 565.133 263.184C565.951 262.245 567.146 260.93 568.595 259.361L568.689 259.254H568.809C569.178 259.296 569.526 259.446 569.809 259.685C570.093 259.923 570.301 260.24 570.406 260.595C570.603 261.283 570.653 262.005 570.554 262.714C570.364 264.179 569.91 265.597 569.212 266.899C568.997 267.301 568.783 267.69 568.541 268.052V267.931C568.313 268.991 568.112 270.024 567.91 271.016L567.763 270.681C569.917 272.284 571.433 274.598 572.043 277.212C572.219 277.95 572.305 278.707 572.298 279.465C572.392 279.908 572.365 280.19 572.325 280.19Z" fill="#FF9A6C"/>
<path d="M571.949 269.245C573.455 269.441 574.889 270.008 576.122 270.895C577.468 271.596 578.624 272.613 579.491 273.859C578.203 273.134 576.957 272.337 575.76 271.471C574.451 270.798 573.179 270.055 571.949 269.245Z" fill="#FF9A6C"/>
<path d="M538.926 283.099C538.989 283.385 539.02 283.678 539.02 283.971C539.02 284.615 539.087 285.446 539.127 286.479C539.234 288.652 539.261 291.844 539.221 295.706C539.154 303.498 538.483 314.255 537.369 326.084C536.255 337.913 535.276 348.629 534.914 356.394C534.712 360.284 534.591 363.436 534.565 365.608C534.565 366.641 534.565 367.472 534.484 368.116C534.49 368.408 534.467 368.7 534.417 368.988C534.358 368.701 534.335 368.409 534.35 368.116C534.35 367.472 534.35 366.641 534.35 365.608C534.35 363.422 534.35 360.244 534.484 356.381C534.726 348.589 535.625 337.846 536.738 326.017C537.852 314.188 538.604 303.472 538.805 295.693C538.899 291.803 538.939 288.652 538.912 286.479C538.912 285.446 538.912 284.615 538.912 283.971C538.885 283.681 538.89 283.388 538.926 283.099Z" fill="#E61D55"/>
<path d="M558.182 289.001L552.667 307.268L543.971 273.98C543.481 272.153 542.553 270.472 541.267 269.084C539.981 267.696 538.376 266.642 536.591 266.014L528.889 264.042L535.598 330.336L537.383 335.352C538.626 338.39 540.956 340.856 543.918 342.273C551.848 346.135 562.113 342.407 564.475 333.904L576.686 294.661L558.182 289.001Z" fill="#E2F5F4"/>
<path d="M476.663 283.636L480.555 358.983L529.788 360.78L534.296 365.635L534.686 305.148L518.838 261.627C516.691 265.423 512.773 266.616 508.103 266.12C504.91 265.785 499.113 265.034 496.563 263.089L490.042 256.598L476.663 283.636Z" fill="white"/>
<path d="M489.853 253.004L484.486 258.986L458.279 268.481L472.02 345.867L459.057 375.373C457.688 378.467 456.535 381.654 455.609 384.909L447.316 413.905C447.316 413.905 477.079 426.78 483.801 423.145C490.524 419.511 498.857 379.168 501.541 370.41C504.225 361.653 505.271 333.783 503.943 319.768C502.614 305.752 500.266 285.098 498.991 277.95C497.717 270.801 489.853 253.004 489.853 253.004Z" fill="#E2F5F4"/>
<path d="M518.986 256.061L522.569 261.962L538.068 266.348C538.068 266.348 541.597 287.029 541.436 292.662C541.275 298.295 537.182 360.673 537.102 363.623C537.021 366.574 551.58 411.53 550.52 413.958C549.903 415.379 543.261 415.446 539.168 416.519C538.511 416.689 537.825 416.715 537.157 416.594C536.49 416.474 535.856 416.21 535.3 415.821C534.744 415.432 534.279 414.928 533.937 414.342C533.594 413.757 533.383 413.104 533.318 412.429C532.231 401.243 529.131 375.292 529.399 366.225C529.721 354.463 530.741 325.99 528.755 311.653C526.769 297.316 518.986 261.855 518.986 261.855V256.061Z" fill="#E2F5F4"/>
<path d="M530.272 373.187C530.257 373.089 530.257 372.99 530.272 372.892C530.272 372.664 530.272 372.369 530.272 372.034C530.272 371.229 530.352 370.129 530.419 368.734C530.567 365.81 530.781 361.693 531.036 356.664C531.56 346.43 532.378 332.294 533.076 316.683C533.157 314.725 533.237 312.807 533.264 310.903C533.291 308.998 533.183 307.147 533.089 305.31C532.902 301.622 532.7 298.081 532.459 294.701C532.217 291.322 531.909 288.13 531.493 285.152C531.083 282.407 530.395 279.711 529.44 277.105C528.039 273.316 526.426 269.608 524.609 266L523.119 263.063C522.958 262.755 522.824 262.5 522.73 262.299C522.636 262.097 522.596 262.03 522.609 262.03C522.676 262.104 522.735 262.185 522.784 262.272L523.227 263.009C523.602 263.653 524.153 264.619 524.824 265.893C526.743 269.457 528.424 273.144 529.856 276.931C530.856 279.557 531.576 282.281 532.003 285.058C532.459 288.049 532.767 291.268 533.036 294.648C533.304 298.027 533.505 301.582 533.707 305.256C533.787 307.094 533.962 308.971 533.895 310.903C533.827 312.834 533.774 314.738 533.707 316.697C533.009 332.321 532.123 346.444 531.479 356.677C531.13 361.747 530.862 365.878 530.661 368.748C530.553 370.089 530.459 371.229 530.406 372.034C530.406 372.382 530.339 372.664 530.325 372.892C530.32 372.992 530.302 373.091 530.272 373.187Z" fill="#E61D55"/>
<path d="M501.891 348.844C501.816 348.541 501.775 348.23 501.77 347.918C501.77 347.315 501.676 346.429 501.636 345.236C501.555 342.929 501.515 339.59 501.636 335.459C501.73 333.393 501.877 331.14 502.105 328.753C502.193 326.199 501.959 323.644 501.408 321.148C500.072 315.4 498.346 309.75 496.241 304.236C494.041 298.348 491.76 292.796 489.639 287.78C488.563 285.421 487.622 283.003 486.821 280.538C486.231 278.357 485.76 276.145 485.413 273.912C484.742 269.889 484.406 266.509 484.191 264.202C484.084 263.062 484.017 262.163 483.99 261.52C483.952 261.212 483.952 260.902 483.99 260.594C484.059 260.894 484.104 261.199 484.124 261.506L484.446 264.189C484.728 266.482 485.131 269.795 485.788 273.845C486.169 276.055 486.662 278.244 487.264 280.403C488.08 282.841 489.03 285.232 490.109 287.565C492.27 292.581 494.578 298.12 496.818 304.035C498.935 309.578 500.653 315.266 501.958 321.054C502.5 323.605 502.721 326.214 502.615 328.82C502.36 331.234 502.186 333.487 502.065 335.526C501.824 339.63 501.81 342.969 501.81 345.276C501.81 346.389 501.81 347.261 501.81 347.958C501.81 348.656 501.904 348.844 501.891 348.844Z" fill="#E61D55"/>
<path d="M541.328 284.079C541.372 284.345 541.399 284.614 541.408 284.884C541.408 285.474 541.408 286.225 541.515 287.191C541.609 289.202 541.636 292.126 541.596 295.72C541.529 302.923 540.912 312.861 539.878 323.791C538.845 334.722 537.946 344.62 537.611 351.795C537.423 355.389 537.315 358.3 537.289 360.312L537.221 362.618C537.25 362.89 537.25 363.165 537.221 363.436C537.17 363.167 537.148 362.893 537.154 362.618C537.154 362.028 537.154 361.277 537.154 360.312C537.154 358.3 537.154 355.376 537.275 351.782C537.503 344.58 538.335 334.668 539.368 323.738C540.402 312.807 541.073 302.896 541.26 295.72C541.354 292.126 541.395 289.216 541.368 287.204C541.368 286.252 541.368 285.474 541.368 284.884C541.323 284.618 541.31 284.348 541.328 284.079Z" fill="#E61D55"/>
<path d="M469.9 310.165C469.843 309.63 469.843 309.09 469.9 308.555C469.9 307.522 469.9 306.02 469.819 304.169C469.612 299.357 468.951 294.575 467.847 289.886C466.732 285.2 465.168 280.633 463.177 276.246C462.426 274.556 461.768 273.215 461.285 272.223C461.013 271.759 460.788 271.269 460.614 270.761C460.957 271.175 461.254 271.624 461.5 272.102C462.05 272.987 462.761 274.315 463.58 275.991C465.697 280.362 467.335 284.949 468.464 289.671C469.575 294.4 470.178 299.233 470.262 304.089C470.262 305.953 470.262 307.455 470.142 308.501C470.119 309.063 470.038 309.62 469.9 310.165Z" fill="#E61D55"/>
<path d="M462.734 405.683C462.734 405.683 468.29 410.122 469.444 411.853C470.598 413.583 473.536 419.685 475.791 421.509C475.745 421.807 475.622 422.089 475.433 422.325C475.245 422.561 474.998 422.744 474.717 422.855C474.437 422.966 474.131 423.002 473.832 422.959C473.533 422.915 473.251 422.795 473.013 422.609C470.721 421.238 468.734 419.412 467.176 417.244C466.25 415.742 465.217 416.574 465.123 417.861C465.029 419.149 465.888 427.866 465.888 427.866C465.888 427.866 468.33 437.59 467.565 438.663C467.401 438.872 467.191 439.041 466.951 439.157C466.712 439.274 466.449 439.334 466.183 439.334C465.917 439.334 465.654 439.274 465.415 439.157C465.175 439.041 464.965 438.872 464.801 438.663C464.439 438.153 461.621 429.999 461.621 429.999L460.95 425.586C460.95 425.586 462.131 439.534 461.218 440.594C461.077 440.785 460.893 440.941 460.681 441.048C460.469 441.155 460.235 441.211 459.997 441.211C459.759 441.211 459.525 441.155 459.313 441.048C459.101 440.941 458.917 440.785 458.776 440.594C458.185 440.031 457.729 433.888 457.729 433.888L456.522 425.64L456.347 441.291C456.347 441.291 456.132 442.767 455.005 442.794C453.878 442.82 453.1 441.077 453.1 441.077L451.892 424.956C451.892 424.956 452.187 433.928 451.57 434.344C450.953 434.76 450.013 434.72 449.772 434.022C449.249 430.878 448.895 427.709 448.712 424.527L448.403 409.17L447.826 401.767L462.211 401.23L462.734 405.683Z" fill="#FFBF9D"/>
<path d="M470.075 310.836L458.293 268.481C458.293 268.481 451.369 276.609 449.249 284.576C445.666 297.987 437.266 341.28 437.762 349.931C438.259 358.582 442.929 408.299 442.929 408.299L465.163 403.913L462.775 347.262L470.075 310.836Z" fill="#E2F5F4"/>
<path d="M512.276 328.727C512.976 327.953 513.559 327.081 514.007 326.138C514.994 323.798 515.771 321.374 516.329 318.896C516.902 316.417 517.284 313.897 517.469 311.359C517.482 310.299 517.562 309.242 517.711 308.193C517.897 309.246 517.956 310.318 517.885 311.385C517.825 313.961 517.497 316.523 516.906 319.03C516.347 321.55 515.5 323.998 514.383 326.326C513.972 327.341 513.229 328.187 512.276 328.727Z" fill="#E61D55"/>
<path opacity="0.5" d="M575.345 252.4C575.262 251.886 574.991 251.422 574.584 251.097C574.177 250.772 573.664 250.61 573.144 250.643L570.648 258.074C570.648 258.074 571.722 251.864 570.648 250.791C570.4 250.488 570.056 250.279 569.673 250.199C569.29 250.118 568.89 250.171 568.541 250.348L564.408 264.042L564.274 264.243C564.086 264.471 563.992 264.618 564.019 264.632L562.879 266.362C562.879 266.362 561.738 273.94 561.698 275.549C561.658 277.158 564.046 285.501 564.046 285.501L561.47 289.967L558.169 288.947L552.654 307.214L543.958 273.926C543.536 272.383 542.803 270.942 541.804 269.692C540.805 268.442 539.561 267.409 538.148 266.657V266.362L522.649 261.976C522.649 261.976 538.349 267.864 540.926 273.162C544.347 280.19 548.225 306.436 551.446 309.374C554.666 312.311 559.685 291.254 559.685 291.254L567.052 291.603L564.61 273.363L565.254 266.657L569.977 259.75C569.977 259.75 570.541 259.951 571.198 259.2C571.856 258.449 573.225 252.199 573.708 252.199C574.257 252.227 574.805 252.294 575.345 252.4Z" fill="white"/>
<path opacity="0.5" d="M458.293 268.494C458.293 268.494 458.132 268.655 457.85 269.004C457.568 269.352 457.139 269.849 456.616 270.546C455.075 272.555 453.672 274.665 452.416 276.863C451.509 278.452 450.711 280.101 450.027 281.799C449.28 283.844 448.671 285.936 448.202 288.062C447.102 292.608 445.948 297.812 444.767 303.579C443.586 309.346 442.338 315.65 441.117 322.476C439.896 329.303 438.634 336.572 437.789 344.324C437.551 346.295 437.461 348.281 437.521 350.266C437.695 352.25 437.87 354.289 438.044 356.287C438.393 360.311 438.769 364.482 439.131 368.693C439.493 372.905 442.835 403.926 443.157 408.245L442.633 379.53C441.962 368.237 439.574 353.618 444.727 334.56C449.879 315.502 457.622 283.81 460.131 277.292C462.641 270.774 484.446 258.999 484.446 258.999L458.293 268.494Z" fill="white"/>
<path d="M544.266 274.731C543.725 272.994 542.943 271.342 541.945 269.822C540.773 268.446 539.419 267.237 537.919 266.228C538.486 266.261 539.033 266.446 539.503 266.764C540.694 267.422 541.732 268.323 542.551 269.409C543.369 270.496 543.949 271.742 544.253 273.068C544.408 273.61 544.413 274.185 544.266 274.731Z" fill="white"/>
<path d="M562.704 265.342C562.241 268.584 562.043 271.859 562.113 275.133C562.436 278.391 563.028 281.616 563.885 284.776C563.344 283.955 562.949 283.048 562.717 282.094C561.986 279.846 561.535 277.517 561.375 275.16C561.231 272.807 561.384 270.446 561.832 268.132C561.975 267.162 562.269 266.221 562.704 265.342Z" fill="white"/>
<path d="M484.5 258.985L484.137 259.146L483.037 259.562L478.837 261.078C475.187 262.419 469.9 264.256 463.405 266.684L460.923 267.636C460.084 267.939 459.264 268.293 458.467 268.695C457.046 270.028 455.785 271.523 454.71 273.148C452.34 276.767 450.53 280.724 449.343 284.883C448.725 287.121 448.232 289.391 447.867 291.683C447.41 294.044 446.963 296.449 446.525 298.899C445.585 303.794 444.606 308.877 443.613 314.067C441.654 324.462 439.587 334.373 438.031 343.359C437.453 347.64 437.453 351.98 438.031 356.261C438.433 360.284 438.809 364.093 439.144 367.554L440.714 383.902C440.889 385.794 441.023 387.282 441.117 388.342C441.117 388.825 441.117 389.2 441.198 389.509C441.215 389.638 441.215 389.769 441.198 389.898C441.172 389.797 441.159 389.693 441.157 389.589L440.996 388.436C440.875 387.376 440.701 385.887 440.473 384.01C440.044 380.094 439.44 374.541 438.688 367.674C438.313 364.227 437.91 360.459 437.481 356.408C436.868 352.077 436.841 347.684 437.4 343.345C438.997 334.279 440.969 324.421 442.942 314.014C443.948 308.823 444.915 303.754 445.867 298.859C446.332 296.4 446.78 293.995 447.209 291.643C447.604 289.321 448.133 287.024 448.793 284.763C449.989 280.549 451.822 276.542 454.227 272.88C455.338 271.231 456.635 269.714 458.092 268.36C458.952 267.901 459.85 267.516 460.775 267.207L463.271 266.268C469.793 263.907 475.12 262.11 478.797 260.903L483.037 259.562L484.151 259.213C484.259 259.125 484.375 259.048 484.5 258.985Z" fill="white"/>
<path opacity="0.3" d="M467.874 322.41L476.664 343.734L465.378 360.968L472.034 345.867L467.874 322.41Z" fill="white"/>
<path d="M469.484 313.732C469.486 313.949 469.464 314.165 469.417 314.376C469.336 314.846 469.229 315.463 469.095 316.214C468.786 317.89 468.343 320.237 467.753 323.134L463.03 347.275C463.325 354.142 463.647 361.72 463.996 369.7C464.519 382.615 464.989 394.511 465.338 403.927V404.168H465.11L449.208 407.212L444.794 408.017L443.626 408.205C443.493 408.223 443.357 408.223 443.224 408.205C443.348 408.15 443.479 408.109 443.613 408.084L444.753 407.816L449.141 406.864L465.123 403.564L464.895 403.859C464.479 394.471 463.956 382.548 463.379 369.633C463.056 361.653 462.748 354.075 462.466 347.208V347.128C464.492 337.324 466.21 328.982 467.431 322.987C468.048 320.09 468.545 317.769 468.907 316.106C469.081 315.355 469.216 314.765 469.323 314.282C469.361 314.095 469.415 313.911 469.484 313.732Z" fill="#E61D55"/>
<path d="M464.586 390.38C464.959 390.415 465.325 390.5 465.673 390.635L468.625 391.561C471.135 392.379 474.691 393.572 478.837 394.994L478.421 395.168C479.36 392.875 480.367 390.38 481.427 387.765L482.594 384.949L482.796 385.405C477.428 383.554 472.785 381.891 469.377 380.67L465.445 379.195C464.955 379.039 464.483 378.832 464.036 378.578C464.544 378.651 465.044 378.777 465.526 378.954L469.551 380.228C472.946 381.341 477.602 382.91 482.97 384.748L483.319 384.868L483.185 385.204L482.031 388.033C480.944 390.635 479.924 393.13 478.971 395.423L478.85 395.705L478.555 395.611C474.436 394.149 470.92 392.929 468.437 391.95L465.552 390.836C465.216 390.717 464.892 390.564 464.586 390.38Z" fill="#E61D55"/>
<path d="M553.083 306.074C552.833 307.128 552.496 308.16 552.077 309.158C551.432 311.036 550.601 313.665 549.903 316.615C549.326 319.144 548.878 321.7 548.561 324.273C548.5 325.354 548.343 326.427 548.091 327.479C547.941 326.398 547.941 325.301 548.091 324.22C548.274 321.604 548.669 319.007 549.272 316.454C549.867 313.903 550.67 311.404 551.674 308.984C552.011 307.955 552.485 306.976 553.083 306.074Z" fill="#E61D55"/>
<path d="M479.616 570.795C479.505 570.492 479.429 570.177 479.387 569.857L478.864 567.174L476.999 557.169C475.389 548.72 472.973 537.051 470.397 524.243C467.821 511.435 465.459 499.727 463.983 491.25C463.231 487.012 462.641 483.579 462.332 481.205C462.171 480.065 462.037 479.153 461.943 478.523C461.88 478.209 461.853 477.89 461.863 477.57C461.961 477.877 462.037 478.191 462.091 478.509C462.212 479.193 462.386 480.105 462.601 481.191C463.057 483.619 463.688 487.026 464.466 491.183C466.076 499.633 468.491 511.301 471.081 524.123C473.671 536.944 476.006 548.639 477.482 557.102C478.233 561.34 478.824 564.774 479.132 567.161C479.294 568.287 479.428 569.199 479.522 569.843C479.574 570.158 479.605 570.476 479.616 570.795Z" fill="white"/>
<g clip-path="url(#clip0_11201_351)">
<path d="M397.102 582.168C397.102 582.168 446.102 539.445 431.361 498.085C425.91 482.8 409.061 482.22 387.986 486.177C387.994 486.371 388.003 486.564 388.003 486.758C388.003 499.299 378.922 509.465 367.733 509.465C356.535 509.465 347.463 499.299 347.463 486.758C347.463 486.01 347.498 485.28 347.559 484.55C329.467 478.957 303.466 477.744 304.936 517.784C306.038 547.932 329.983 573.33 352.65 586.715C352.65 586.715 339.571 600.637 347.454 605.35C355.336 610.064 367.724 593.223 367.724 593.223C367.724 593.223 365.161 614.778 376.551 613.204C387.942 611.63 384.145 593.671 384.145 593.671C384.145 593.671 398.003 605.122 401.799 597.717C405.596 590.303 397.102 582.168 397.102 582.168Z" fill="white" stroke="#010202" stroke-width="2" stroke-miterlimit="10" stroke-linecap="round" stroke-linejoin="round"/>
<path d="M387.994 486.758C387.994 499.299 378.913 509.465 367.715 509.465C356.517 509.465 347.445 499.299 347.445 486.758C347.445 474.217 356.526 464.051 367.724 464.051C378.922 464.051 387.994 474.217 387.994 486.758Z" fill="white"/>
<path d="M367.724 509.465C378.924 509.465 388.003 499.299 388.003 486.758C388.003 474.217 378.924 464.051 367.724 464.051C356.524 464.051 347.445 474.217 347.445 486.758C347.445 499.299 356.524 509.465 367.724 509.465Z" stroke="#010202" stroke-width="2" stroke-miterlimit="10" stroke-linecap="round" stroke-linejoin="round"/>
<path d="M377.706 530.66C377.706 536.033 374.041 540.386 369.518 540.386C364.995 540.386 361.329 536.033 361.329 530.66" stroke="#010202" stroke-width="2" stroke-miterlimit="10" stroke-linecap="round" stroke-linejoin="round"/>
<path d="M347.445 517.785C347.445 516.052 346.045 514.645 344.322 514.645C342.598 514.645 341.19 516.052 341.19 517.785C341.19 519.517 342.59 520.924 344.322 520.924C346.045 520.933 347.445 519.526 347.445 517.785Z" fill="#010202"/>
<path d="M401.8 517.785C401.8 516.052 400.4 514.645 398.676 514.645C396.953 514.645 395.544 516.052 395.544 517.785C395.544 519.517 396.944 520.924 398.676 520.924C400.4 520.933 401.8 519.526 401.8 517.785Z" fill="#010202"/>
<path d="M380.768 504.127C397.836 504.567 415.99 505.974 433.863 508.982C433.469 505.385 432.664 501.744 431.361 498.085C430.836 496.608 430.197 495.289 429.462 494.075C419.926 493.248 405.841 492.316 387.478 491.85C386.481 496.731 384.075 501.005 380.768 504.127Z" fill="#E61D55"/>
<path d="M380.768 504.127C397.836 504.567 415.99 505.974 433.863 508.982C433.469 505.385 432.664 501.744 431.361 498.085C430.836 496.608 430.197 495.289 429.462 494.075C419.926 493.248 405.841 492.316 387.478 491.85C386.481 496.731 384.075 501.005 380.768 504.127Z" stroke="#010202" stroke-width="2" stroke-miterlimit="10" stroke-linecap="round" stroke-linejoin="round"/>
<path d="M347.935 491.674C336.124 491.85 323.299 492.237 309.476 492.905C307.342 496.643 305.846 501.506 305.216 507.724C316.239 506.404 333.85 504.707 354.706 504.153C351.338 500.996 348.915 496.643 347.935 491.674Z" fill="#E61D55"/>
<path d="M347.935 491.674C336.124 491.85 323.299 492.237 309.476 492.905C307.342 496.643 305.846 501.506 305.216 507.724C316.239 506.404 333.85 504.707 354.706 504.153C351.338 500.996 348.915 496.643 347.935 491.674Z" stroke="#010202" stroke-width="2" stroke-miterlimit="10" stroke-linecap="round" stroke-linejoin="round"/>
<path d="M371.53 486.758C371.53 489.115 369.824 491.023 367.715 491.023C365.616 491.023 363.91 489.115 363.91 486.758C363.91 484.401 365.616 482.493 367.715 482.493C369.824 482.493 371.53 484.401 371.53 486.758Z" stroke="#010202" stroke-width="2" stroke-miterlimit="10" stroke-linecap="round" stroke-linejoin="round"/>
</g>
<defs>
<clipPath id="clip0_11201_351">
<rect width="131" height="151" fill="white" transform="translate(304 463.171)"/>
</clipPath>
</defs>
</svg>
