<svg width="55" height="56" viewBox="0 0 55 56" fill="none" xmlns="http://www.w3.org/2000/svg">
<ellipse cx="27.5712" cy="27.5553" rx="27.3114" ry="27.5446" fill="#EE1254"/>
<path d="M29.255 55.1444C28.1167 55.1444 26.9783 55.1444 25.8418 55.1444C25.7049 55.1131 25.5699 55.067 25.4313 55.056C19.4658 54.5662 14.168 52.4029 9.69299 48.3966C2.68765 42.1276 -0.426448 34.2071 0.387194 24.8027C0.896176 18.9295 3.18021 13.7431 7.08058 9.34832C12.4076 3.34443 19.1028 0.216365 27.0896 0.0193652C32.2579 -0.107672 37.105 1.16822 41.5144 3.89492C48.5781 8.2639 52.9181 14.5771 54.4414 22.8216C54.6257 23.8232 54.7224 24.8414 54.861 25.8503C54.861 26.9991 54.861 28.148 54.861 29.2969C54.8172 29.6504 54.768 30.0039 54.7297 30.3573C54.1441 35.8107 52.1866 40.7026 48.7386 44.9427C44.4515 50.2175 38.9658 53.4929 32.3035 54.7154C31.2964 54.9013 30.2712 55.0026 29.255 55.1444ZM43.5649 41.6508C43.574 41.463 43.5886 41.3046 43.5886 41.1482C43.5905 37.488 43.5978 33.8279 43.5832 30.1677C43.5795 29.4165 43.5284 28.6617 43.4372 27.916C42.9592 23.9834 40.626 21.5108 36.8715 21.0689C34.2664 20.7614 32.017 21.5089 30.3806 23.7109C30.2694 23.8619 30.1544 24.0092 29.9355 24.2982C29.9355 23.2654 29.9355 22.4 29.9355 21.5089C27.6898 21.5089 25.5134 21.5089 23.3187 21.5089C23.3187 28.2437 23.3187 34.9436 23.3187 41.6545C25.5298 41.6545 27.708 41.6545 29.9373 41.6545C29.9373 41.4133 29.9373 41.2015 29.9373 40.9917C29.9373 38.2999 29.9337 35.6082 29.9392 32.9165C29.941 31.8579 29.9373 30.7992 29.9811 29.7424C30.0322 28.5273 30.6379 27.5938 31.6011 26.9126C33.5148 25.5612 35.9995 26.4155 36.6362 28.6727C36.846 29.4184 36.919 30.2266 36.9244 31.0073C36.9554 34.3618 36.9372 37.7181 36.9372 41.0727C36.9372 41.2641 36.9372 41.4538 36.9372 41.6526C39.1866 41.6508 41.3648 41.6508 43.5649 41.6508ZM12.9913 21.4703C12.9913 28.2529 12.9913 34.9546 12.9913 41.6453C15.2115 41.6453 17.3897 41.6453 19.6172 41.6453C19.6172 41.3985 19.6172 41.1868 19.6172 40.9751C19.6172 34.9086 19.6172 28.8439 19.6172 22.7775C19.6172 22.5087 19.5935 22.2362 19.6227 21.971C19.6683 21.5568 19.495 21.4574 19.1064 21.461C17.3642 21.4795 15.622 21.4684 13.8798 21.4684C13.5988 21.4703 13.3161 21.4703 12.9913 21.4703ZM12.5772 15.2583C12.59 17.302 14.1479 18.7491 16.3134 18.7288C18.4916 18.7086 20.0751 17.232 20.0551 15.2381C20.035 13.1705 18.4679 11.7252 16.2733 11.7436C14.0896 11.7639 12.5644 13.2147 12.5772 15.2583Z" fill="white"/>
</svg>
