<svg width="55" height="56" viewBox="0 0 55 56" fill="none" xmlns="http://www.w3.org/2000/svg">
<ellipse cx="27.3114" cy="27.5534" rx="27.3114" ry="27.5446" fill="#EE1254"/>
<path d="M29.0171 55.1498C27.8787 55.1498 26.7404 55.1498 25.6038 55.1498C25.4506 55.1185 25.2974 55.078 25.1405 55.0559C24.0149 54.8958 22.8765 54.8055 21.7673 54.5736C7.93177 51.6793 -1.49078 38.5043 0.194878 24.3829C1.09244 16.8637 4.50937 10.7015 10.369 6.0048C16.6264 0.989585 23.7978 -0.844172 31.6806 0.370968C36.9018 1.17554 41.499 3.42907 45.4341 6.98796C50.1463 11.2483 53.0925 16.5286 54.2035 22.829C54.3805 23.8324 54.4845 24.8468 54.6231 25.8576C54.6231 27.0065 54.6231 28.1553 54.6231 29.3042C54.5921 29.4423 54.5447 29.5803 54.5337 29.7203C54.2126 33.9733 53.0031 37.9556 50.803 41.5937C46.4684 48.763 40.2056 53.1706 32.0108 54.7282C31.0239 54.916 30.0168 55.0117 29.0171 55.1498ZM23.079 28.5475C23.079 33.9015 23.079 39.1873 23.079 44.5026C25.2901 44.5026 27.4482 44.5026 29.672 44.5026C29.672 39.1726 29.672 33.8738 29.672 28.5254C31.1862 28.5254 32.6365 28.5254 34.1069 28.5254C34.2985 26.6346 34.4846 24.7934 34.6761 22.9008C33.7822 22.9008 32.9667 22.9008 32.1513 22.9008C31.3376 22.9008 30.524 22.9008 29.6611 22.9008C29.6611 21.8568 29.6611 20.8737 29.6611 19.8905C29.6629 18.4471 30.0661 18.042 31.5055 18.0402C32.5143 18.0402 33.5213 18.0402 34.5557 18.0402C34.5703 17.8414 34.5904 17.7033 34.5904 17.5652C34.5922 15.9174 34.5922 14.2696 34.5922 12.6199C34.4791 12.5905 34.4116 12.5555 34.3459 12.5555C32.6402 12.55 30.929 12.4616 29.2287 12.5629C25.7626 12.7672 23.6865 14.5844 23.2122 17.8929C23.0078 19.3198 23.1082 20.7908 23.0681 22.2435C23.0626 22.4497 23.0498 22.6559 23.0389 22.9265C21.9808 22.9265 20.9792 22.9265 19.9831 22.9265C19.9831 24.8339 19.9831 26.6732 19.9831 28.5456C21.0029 28.5475 21.9935 28.5475 23.079 28.5475Z" fill="#FEFEFE"/>
</svg>
