<svg width="84" height="47" viewBox="0 0 84 47" fill="none" xmlns="http://www.w3.org/2000/svg">
<path d="M19.853 28.6189C20.7337 28.6189 21.4779 28.9125 22.0718 29.5065C22.6658 30.1004 22.9662 30.8514 22.9662 31.7594C22.9662 32.5855 22.7272 33.3091 22.2425 33.9304C21.7578 34.5516 21.0751 35.0159 20.1944 35.3368C18.7812 35.8215 17.1632 36.0604 15.3335 36.0604C14.1388 36.0604 13.0328 35.9375 12.0088 35.6986C10.9847 35.4596 10.0357 35.0773 9.16189 34.5516C8.28803 34.026 7.54388 33.3774 6.92262 32.5923C6.30136 31.8072 5.82347 30.8446 5.47529 29.7044C5.12711 28.5643 4.95643 27.2877 4.95643 25.8745V14.1593H3.26332C2.36216 14.1593 1.5907 13.8384 0.955785 13.2035C0.320871 12.5686 0 11.7971 0 10.896C0 9.99479 0.320871 9.22333 0.955785 8.58842C1.5907 7.9535 2.36216 7.63263 3.26332 7.63263H4.95643V3.82314C4.95643 2.76495 5.33192 1.86378 6.07607 1.11963C6.82704 0.375487 7.72821 0 8.7864 0C9.84459 0 10.7458 0.375487 11.4899 1.11963C12.2341 1.86378 12.6095 2.76495 12.6095 3.82314V7.63263H18.9587C19.8599 7.63263 20.6313 7.9535 21.2662 8.58842C21.9011 9.22333 22.222 9.99479 22.222 10.896C22.222 11.7971 21.9011 12.5686 21.2662 13.2035C20.6313 13.8384 19.8599 14.1593 18.9587 14.1593H12.6095V24.8095C12.6095 26.2295 12.9509 27.2945 13.6336 28.0045C14.3163 28.7145 15.238 29.0695 16.4054 29.0695C17.0335 29.0695 17.7162 28.9808 18.4535 28.8101C18.9997 28.6804 19.4639 28.6189 19.853 28.6189Z" fill="#EF1154"/>
<path d="M51.3606 6.89532C52.4256 6.89532 53.3336 7.27081 54.0777 8.01496C54.8219 8.75911 55.1974 9.6671 55.1974 10.7321V42.8192C55.1974 43.8842 54.8219 44.7922 54.0777 45.5364C53.3336 46.2805 52.4256 46.656 51.3606 46.656C50.316 46.656 49.4149 46.2805 48.6707 45.5364C47.9266 44.7922 47.5511 43.8842 47.5511 42.8192V31.6638C45.4825 34.5926 42.5127 36.0604 38.635 36.0604C37.0716 36.0604 35.5901 35.8215 34.1974 35.3368C32.8047 34.852 31.569 34.1693 30.4971 33.2887C29.4253 32.408 28.4968 31.3634 27.7117 30.1619C26.9266 28.9603 26.3326 27.6222 25.923 26.1407C25.5134 24.6593 25.3086 23.1095 25.3086 21.4779C25.3086 19.4366 25.6295 17.525 26.278 15.7363C26.9266 13.9477 27.8209 12.4047 28.9747 11.1008C30.1285 9.79682 31.5349 8.77276 33.2075 8.02179C34.8801 7.27081 36.6893 6.89532 38.635 6.89532C42.5127 6.89532 45.4825 8.36314 47.5511 11.2919V10.7321C47.5511 9.6671 47.9266 8.75911 48.6707 8.01496C49.4149 7.27081 50.3092 6.89532 51.3606 6.89532ZM37.5973 28.5507C38.5053 28.9535 39.4884 29.1515 40.5329 29.1515C41.5774 29.1515 42.5605 28.9535 43.4685 28.5507C44.3765 28.1479 45.148 27.6086 45.7829 26.919C46.4178 26.2295 46.9162 25.4171 47.278 24.4749C47.6398 23.5328 47.8242 22.5361 47.8242 21.4779C47.8242 20.4197 47.6398 19.4229 47.278 18.4808C46.9162 17.5387 46.4178 16.7263 45.7829 16.0367C45.148 15.3472 44.3765 14.8079 43.4685 14.4051C42.5605 14.0023 41.5774 13.8043 40.5329 13.8043C39.4884 13.8043 38.5053 14.0023 37.5973 14.4051C36.6893 14.8079 35.911 15.3472 35.2761 16.0367C34.6412 16.7263 34.136 17.5387 33.7741 18.4808C33.4123 19.4229 33.228 20.4197 33.228 21.4779C33.228 22.5361 33.4123 23.5328 33.7741 24.4749C34.136 25.4171 34.6412 26.2295 35.2761 26.919C35.911 27.6086 36.6824 28.1479 37.5973 28.5507Z" fill="#EF1154"/>
<path d="M68.7071 15.197C68.7071 15.8797 69.2396 16.4464 70.3046 16.8901C70.8781 17.1291 72.0797 17.4704 73.9093 17.9278C76.21 18.5013 77.9509 19.0679 79.1252 19.6209C81.699 20.8498 83.2555 22.618 83.7812 24.9324C83.9246 25.5809 83.9997 26.2636 83.9997 26.9805C83.9997 28.5029 83.6856 29.8478 83.0644 31.0153C82.4431 32.1827 81.5624 33.1316 80.436 33.8621C79.3095 34.5926 77.9919 35.1388 76.4831 35.5074C74.9743 35.8761 73.3085 36.0604 71.4789 36.0604C69.8472 36.0604 68.2634 35.9307 66.7136 35.6713C65.1639 35.4119 63.8326 35.0569 62.713 34.6131C62.0371 34.3605 61.5046 33.9714 61.1154 33.4457C60.7263 32.92 60.5283 32.3192 60.5283 31.6365C60.5283 30.7353 60.8219 29.9844 61.409 29.3904C61.9961 28.7965 62.7676 28.4961 63.7234 28.4961C64.2149 28.4961 64.7747 28.5712 65.396 28.7145C66.0173 28.8579 66.5976 29.0218 67.1369 29.2061C67.6762 29.3904 68.3521 29.5543 69.1782 29.6976C70.0043 29.841 70.8371 29.9161 71.6837 29.9161C72.3869 29.9161 73.0081 29.882 73.5475 29.8069C74.0868 29.7318 74.5852 29.6089 75.029 29.4382C75.4727 29.2675 75.8141 29.0218 76.053 28.7077C76.292 28.3937 76.408 28.0114 76.408 27.5676C76.408 27.1102 76.2373 26.7142 75.8892 26.3729C75.541 26.0315 75.0767 25.7448 74.4964 25.5127C73.9161 25.2805 73.2403 25.0621 72.4825 24.8641C71.7247 24.6661 70.9259 24.4476 70.0862 24.2223C69.2465 23.9971 68.4136 23.7445 67.5738 23.4645C66.7341 23.1846 65.9353 22.8296 65.1775 22.3859C64.4197 21.9421 63.7439 21.4369 63.1636 20.8634C62.5833 20.29 62.119 19.5663 61.7708 18.6924C61.4227 17.8186 61.252 16.8355 61.252 15.7432C61.252 14.2754 61.566 12.9714 62.1873 11.8244C62.8086 10.6775 63.6688 9.74903 64.7543 9.04584C65.8398 8.34266 67.0891 7.80332 68.4886 7.44149C69.8882 7.07965 71.4106 6.89532 73.0491 6.89532C74.5169 6.89532 75.9438 7.01821 77.3297 7.26398C78.7156 7.50976 79.9308 7.84428 80.9685 8.26073C82.4909 8.86834 83.2487 9.9197 83.2487 11.4148C83.2487 12.2682 82.9551 12.985 82.368 13.5517C81.7809 14.1183 81.0163 14.4051 80.081 14.4051C79.6372 14.4051 79.1252 14.33 78.5585 14.1798C77.9919 14.0296 77.4594 13.8589 76.9747 13.6746C76.4899 13.4902 75.8755 13.3196 75.145 13.1694C74.4145 13.0192 73.6772 12.9441 72.9399 12.9441C71.4311 12.9441 70.3456 13.1557 69.6902 13.5722C69.0348 13.9886 68.7071 14.5348 68.7071 15.197Z" fill="#EF1154"/>
</svg>
