<svg width="55" height="56" viewBox="0 0 55 56" fill="none" xmlns="http://www.w3.org/2000/svg">
<ellipse cx="27.0828" cy="27.5456" rx="26.9373" ry="27.5446" fill="#EE1254"/>
<path d="M29.1398 55.1336C28.0014 55.1336 26.8631 55.1336 25.7265 55.1336C25.5897 55.1023 25.4547 55.0563 25.3161 55.0452C19.3506 54.5555 14.0528 52.3922 9.57775 48.3859C2.57241 42.1169 -0.541682 34.1964 0.271959 24.7919C0.779117 18.9188 3.06497 13.7323 6.96534 9.33758C12.2923 3.33369 18.9875 0.205623 26.9744 0.00862302C32.1426 -0.118414 36.9898 1.15748 41.3992 3.88418C48.4629 8.255 52.8029 14.5664 54.3262 22.8109C54.5105 23.8125 54.6071 24.8306 54.7458 25.8395C54.7458 26.9884 54.7458 28.1373 54.7458 29.2861C54.702 29.6396 54.6528 29.9931 54.6144 30.3466C54.0307 35.8 52.0714 40.6919 48.6234 44.932C44.3363 50.2068 38.8506 53.4821 32.1882 54.7046C31.1812 54.8924 30.1559 54.9937 29.1398 55.1336ZM11.6666 27.5794C11.7651 30.1993 11.7687 32.8413 11.9858 35.4649C12.3179 39.4767 15.0908 42.4851 19.0222 43.0503C20.9997 43.3339 23.0247 43.3707 25.0296 43.3707C28.4229 43.3707 31.8252 43.3854 35.2075 43.1442C38.3434 42.9196 40.7296 41.2976 42.1088 38.361C42.7108 37.0796 42.9808 35.7006 43.0009 34.2921C43.0575 30.5786 43.0885 26.8632 43.0903 23.1497C43.0903 21.9861 43.01 20.817 42.8933 19.6589C42.4864 15.6379 39.7901 12.6553 35.8405 12.079C33.8812 11.7918 31.8726 11.7605 29.8878 11.7605C26.4763 11.7605 23.0557 11.7439 19.6571 11.9796C15.4155 12.2723 12.3325 15.4335 11.9804 19.7105C11.7651 22.3156 11.7633 24.9411 11.6666 27.5794Z" fill="white"/>
<path d="M27.4149 14.5361C29.7957 14.6043 32.1782 14.6135 34.5535 14.7552C37.8409 14.9522 40.0118 17.0419 40.0993 20.3486C40.2252 25.1336 40.2289 29.9261 40.103 34.7111C40.0136 38.0896 37.8591 40.2621 34.506 40.3542C29.7847 40.483 25.0543 40.4812 20.3311 40.3523C17.0091 40.2621 14.8473 38.0877 14.7579 34.7461C14.6302 29.961 14.6302 25.1686 14.7579 20.3835C14.8473 17.0382 17.0109 14.9835 20.3238 14.7442C21.5115 14.6595 22.7027 14.63 23.8922 14.6079C25.0652 14.5858 26.2383 14.6024 27.4113 14.6024C27.4149 14.5822 27.4149 14.5582 27.4149 14.5361ZM35.4802 27.5584C35.4766 23.0716 31.9046 19.4574 27.4551 19.439C22.9965 19.4206 19.3807 23.0624 19.3843 27.5657C19.388 32.0489 22.9618 35.6667 27.4113 35.6851C31.8644 35.7053 35.4839 32.0618 35.4802 27.5584ZM37.6785 19.1629C37.7004 18.1171 36.9013 17.2536 35.8815 17.2205C34.8162 17.1873 33.9533 18.0011 33.9332 19.0598C33.9131 20.111 34.7067 20.9708 35.7265 21.0003C36.7901 21.0334 37.6566 20.2197 37.6785 19.1629Z" fill="white"/>
<path d="M27.4219 32.8388C30.2988 32.8443 32.6485 30.4877 32.6595 27.5898C32.6704 24.6845 30.3444 22.3057 27.473 22.2892C24.5741 22.2708 22.208 24.644 22.208 27.5658C22.208 30.4637 24.5486 32.8333 27.4219 32.8388Z" fill="white"/>
<path d="M27.4219 32.8397C24.5504 32.8341 22.208 30.4646 22.208 27.5648C22.208 24.643 24.5741 22.2698 27.473 22.2882C30.3444 22.3066 32.6722 24.6835 32.6595 27.5888C32.6485 30.4904 30.297 32.8452 27.4219 32.8397Z" fill="white"/>
</svg>
